%TF.GenerationSoftware,KiCad,Pcbnew,(5.1.9)-1*%
%TF.CreationDate,2021-08-06T16:10:44+09:00*%
%TF.ProjectId,IMU_USB_ver2,494d555f-5553-4425-9f76-6572322e6b69,rev?*%
%TF.SameCoordinates,Original*%
%TF.FileFunction,Copper,L2,Bot*%
%TF.FilePolarity,Positive*%
%FSLAX46Y46*%
G04 Gerber Fmt 4.6, Leading zero omitted, Abs format (unit mm)*
G04 Created by KiCad (PCBNEW (5.1.9)-1) date 2021-08-06 16:10:44*
%MOMM*%
%LPD*%
G01*
G04 APERTURE LIST*
%TA.AperFunction,ComponentPad*%
%ADD10C,1.600000*%
%TD*%
%TA.AperFunction,ViaPad*%
%ADD11C,0.800000*%
%TD*%
%TA.AperFunction,Conductor*%
%ADD12C,1.000000*%
%TD*%
%TA.AperFunction,Conductor*%
%ADD13C,0.500000*%
%TD*%
%TA.AperFunction,Conductor*%
%ADD14C,0.250000*%
%TD*%
%TA.AperFunction,Conductor*%
%ADD15C,0.254000*%
%TD*%
%TA.AperFunction,Conductor*%
%ADD16C,0.100000*%
%TD*%
G04 APERTURE END LIST*
D10*
%TO.P,U1,17*%
%TO.N,GND*%
X132080000Y-123190000D03*
%TO.P,U1,18*%
%TO.N,Net-(U1-Pad18)*%
X132080000Y-125730000D03*
%TO.P,U1,19*%
%TO.N,Net-(U1-Pad19)*%
X132080000Y-128270000D03*
%TO.P,U1,20*%
%TO.N,SCK_13*%
X132080000Y-130810000D03*
%TO.P,U1,16*%
%TO.N,Net-(U1-Pad16)*%
X132080000Y-120650000D03*
%TO.P,U1,15*%
%TO.N,Net-(U1-Pad15)*%
X132080000Y-118110000D03*
%TO.P,U1,14*%
%TO.N,MISO_12*%
X132080000Y-115570000D03*
%TO.P,U1,21*%
%TO.N,Net-(U1-Pad21)*%
X134620000Y-130810000D03*
%TO.P,U1,22*%
%TO.N,Net-(U1-Pad22)*%
X137160000Y-130810000D03*
%TO.P,U1,23*%
%TO.N,Net-(U1-Pad23)*%
X139700000Y-130810000D03*
%TO.P,U1,24*%
%TO.N,Net-(U1-Pad24)*%
X142240000Y-130810000D03*
%TO.P,U1,25*%
%TO.N,Net-(U1-Pad25)*%
X144780000Y-130810000D03*
%TO.P,U1,26*%
%TO.N,Net-(U1-Pad26)*%
X147320000Y-130810000D03*
%TO.P,U1,27*%
%TO.N,Net-(U1-Pad27)*%
X149860000Y-130810000D03*
%TO.P,U1,28*%
%TO.N,Net-(U1-Pad28)*%
X152400000Y-130810000D03*
%TO.P,U1,29*%
%TO.N,Net-(U1-Pad29)*%
X154940000Y-130810000D03*
%TO.P,U1,30*%
%TO.N,Net-(U1-Pad30)*%
X157480000Y-130810000D03*
%TO.P,U1,31*%
%TO.N,Net-(U1-Pad31)*%
X160020000Y-130810000D03*
%TO.P,U1,32*%
%TO.N,GND*%
X162560000Y-130810000D03*
%TO.P,U1,33*%
%TO.N,+5V*%
X165100000Y-130810000D03*
%TO.P,U1,13*%
%TO.N,MOSI_11*%
X134620000Y-115570000D03*
%TO.P,U1,12*%
%TO.N,CS2*%
X137160000Y-115570000D03*
%TO.P,U1,11*%
%TO.N,CS1*%
X139700000Y-115570000D03*
%TO.P,U1,10*%
%TO.N,EXTRESN_2*%
X142240000Y-115570000D03*
%TO.P,U1,9*%
%TO.N,EXTRESN_1*%
X144780000Y-115570000D03*
%TO.P,U1,8*%
%TO.N,Net-(U1-Pad8)*%
X147320000Y-115570000D03*
%TO.P,U1,7*%
%TO.N,Net-(U1-Pad7)*%
X149860000Y-115570000D03*
%TO.P,U1,6*%
%TO.N,Net-(U1-Pad6)*%
X152400000Y-115570000D03*
%TO.P,U1,5*%
%TO.N,Net-(U1-Pad5)*%
X154940000Y-115570000D03*
%TO.P,U1,4*%
%TO.N,Net-(U1-Pad4)*%
X157480000Y-115570000D03*
%TO.P,U1,3*%
%TO.N,Net-(U1-Pad3)*%
X160020000Y-115570000D03*
%TO.P,U1,2*%
%TO.N,Net-(U1-Pad2)*%
X162560000Y-115570000D03*
%TO.P,U1,1*%
%TO.N,GND*%
X165100000Y-115570000D03*
%TD*%
D11*
%TO.N,GND*%
X163000000Y-74000000D03*
X163000000Y-76000000D03*
X163000000Y-78000000D03*
X163000000Y-80000000D03*
X161000000Y-80000000D03*
X161000000Y-78000000D03*
X159000000Y-78000000D03*
X157000000Y-78000000D03*
X157000000Y-80000000D03*
X159000000Y-80000000D03*
X155000000Y-80000000D03*
X155000000Y-78000000D03*
X153000000Y-78000000D03*
X153000000Y-80000000D03*
X153000000Y-76000000D03*
X153000000Y-74000000D03*
X153000000Y-72000000D03*
X155000000Y-72000000D03*
X155000000Y-74000000D03*
X155000000Y-76000000D03*
X157000000Y-72000000D03*
X159000000Y-72000000D03*
X161000000Y-72000000D03*
X147000000Y-82000000D03*
X138000000Y-82000000D03*
X147000000Y-74000000D03*
X138000000Y-74000000D03*
X153000000Y-85000000D03*
X153000000Y-90000000D03*
X153000000Y-95000000D03*
X153000000Y-105000000D03*
X153000000Y-110000000D03*
X158000000Y-110000000D03*
X158000000Y-105000000D03*
X158000000Y-100000000D03*
X158000000Y-95000000D03*
X158000000Y-90000000D03*
X158000000Y-85000000D03*
X148000000Y-100000000D03*
X146000000Y-103000000D03*
X148000000Y-103000000D03*
X135000000Y-100000000D03*
X137000000Y-100000000D03*
X139000000Y-99000000D03*
X163000000Y-110000000D03*
X168000000Y-72000000D03*
X168000000Y-67000000D03*
X163000000Y-67000000D03*
X163000000Y-62000000D03*
X158000000Y-62000000D03*
X153000000Y-62000000D03*
X143000000Y-62000000D03*
X143000000Y-67000000D03*
X138000000Y-67000000D03*
X138000000Y-62000000D03*
X133000000Y-62000000D03*
X128000000Y-62000000D03*
X123000000Y-62000000D03*
X123000000Y-67000000D03*
X128000000Y-67000000D03*
X118000000Y-67000000D03*
X113000000Y-67000000D03*
X118000000Y-62000000D03*
X118000000Y-72000000D03*
X113000000Y-72000000D03*
X123000000Y-72000000D03*
X128000000Y-72000000D03*
X128000000Y-77000000D03*
X123000000Y-77000000D03*
X118000000Y-77000000D03*
X113000000Y-77000000D03*
X113000000Y-82000000D03*
X113000000Y-87000000D03*
X113000000Y-92000000D03*
X118000000Y-92000000D03*
X118000000Y-97000000D03*
X118000000Y-102000000D03*
X118000000Y-107000000D03*
X113000000Y-107000000D03*
X118000000Y-82000000D03*
X118000000Y-87000000D03*
X128000000Y-82000000D03*
X128000000Y-87000000D03*
X118000000Y-112000000D03*
X113000000Y-112000000D03*
X113000000Y-117000000D03*
X113000000Y-122000000D03*
X118000000Y-122000000D03*
X123000000Y-117000000D03*
X128000000Y-122000000D03*
X128000000Y-127000000D03*
X123000000Y-127000000D03*
X118000000Y-127000000D03*
X113000000Y-127000000D03*
X113000000Y-132000000D03*
X118000000Y-132000000D03*
X123000000Y-132000000D03*
X128000000Y-132000000D03*
X130000000Y-97000000D03*
X130000000Y-95000000D03*
X130000000Y-93000000D03*
X132000000Y-93000000D03*
X132000000Y-97000000D03*
X132000000Y-99000000D03*
X128000000Y-134000000D03*
X133000000Y-134000000D03*
X138000000Y-134000000D03*
X143000000Y-134000000D03*
X153000000Y-134000000D03*
X158000000Y-134000000D03*
X132000000Y-101000000D03*
X132000000Y-103000000D03*
X130000000Y-103000000D03*
X130000000Y-105000000D03*
X149000000Y-113000000D03*
X149000000Y-111000000D03*
X149000000Y-109000000D03*
X149000000Y-107000000D03*
X146431000Y-99949000D03*
%TO.N,+5V*%
X162560000Y-88900000D03*
%TO.N,+3V3*%
X142250000Y-99050000D03*
X139700000Y-100330000D03*
%TO.N,SCK_13*%
X142240000Y-100330000D03*
X129540000Y-114420427D03*
X135250000Y-102240000D03*
%TO.N,MISO_12*%
X143250000Y-98800000D03*
X137160000Y-102870000D03*
%TO.N,MOSI_11*%
X132080000Y-109220000D03*
X134620000Y-97790000D03*
X146050000Y-97790000D03*
%TO.N,CS2*%
X143256000Y-113665000D03*
X145161000Y-101346000D03*
%TO.N,CS1*%
X134250000Y-108320000D03*
%TO.N,EXTRESN_2*%
X129540000Y-91440000D03*
%TD*%
D12*
%TO.N,+5V*%
X162560000Y-88900000D02*
X162560000Y-105410000D01*
X165100000Y-130810000D02*
X167640000Y-128270000D01*
X167640000Y-110490000D02*
X166370000Y-109220000D01*
X167640000Y-128270000D02*
X167640000Y-110490000D01*
X162560000Y-105410000D02*
X166370000Y-109220000D01*
D13*
%TO.N,+3V3*%
X140980000Y-99050000D02*
X142250000Y-99050000D01*
X139700000Y-100330000D02*
X140980000Y-99050000D01*
%TO.N,SCK_13*%
X135890000Y-101600000D02*
X140970000Y-101600000D01*
X140970000Y-101600000D02*
X142240000Y-100330000D01*
X142240000Y-100330000D02*
X142240000Y-100330000D01*
X129540000Y-107950000D02*
X129540000Y-114420427D01*
X135250000Y-102240000D02*
X135890000Y-101600000D01*
X135250000Y-102240000D02*
X129540000Y-107950000D01*
%TO.N,MISO_12*%
X143510000Y-99060000D02*
X143250000Y-98800000D01*
X143510000Y-101600000D02*
X143510000Y-99060000D01*
X142240000Y-102870000D02*
X143510000Y-101600000D01*
X137160000Y-102870000D02*
X142240000Y-102870000D01*
%TO.N,MOSI_11*%
X134620000Y-97790000D02*
X144780000Y-97790000D01*
X144780000Y-97790000D02*
X146050000Y-97790000D01*
X146050000Y-97790000D02*
X146050000Y-97790000D01*
X132080000Y-113030000D02*
X134620000Y-115570000D01*
X132080000Y-109220000D02*
X132080000Y-113030000D01*
%TO.N,CS2*%
X144850001Y-112070999D02*
X144850001Y-101656999D01*
X143256000Y-113665000D02*
X144850001Y-112070999D01*
X144850001Y-101656999D02*
X145161000Y-101346000D01*
X145161000Y-101346000D02*
X145161000Y-101346000D01*
%TO.N,CS1*%
X134250000Y-108850000D02*
X134620000Y-109220000D01*
X134250000Y-108320000D02*
X134250000Y-108850000D01*
X134620000Y-109220000D02*
X138430000Y-109220000D01*
X139700000Y-110490000D02*
X139700000Y-115570000D01*
X138430000Y-109220000D02*
X139700000Y-110490000D01*
D14*
%TO.N,EXTRESN_2*%
X140825001Y-119524999D02*
X129684999Y-119524999D01*
X129684999Y-119524999D02*
X128270000Y-118110000D01*
X129540000Y-91440000D02*
X129540000Y-91440000D01*
D13*
X128270000Y-118110000D02*
X129540000Y-119380000D01*
X142240000Y-118110000D02*
X140825001Y-119524999D01*
X142240000Y-115570000D02*
X142240000Y-118110000D01*
X127000000Y-93980000D02*
X127000000Y-96730000D01*
X129540000Y-91440000D02*
X127000000Y-93980000D01*
X128270000Y-118110000D02*
X127000000Y-116840000D01*
X127000000Y-96730000D02*
X127000000Y-116840000D01*
%TD*%
D15*
%TO.N,GND*%
X167184137Y-60681220D02*
X166771620Y-60681220D01*
X166323637Y-60770329D01*
X165901646Y-60945123D01*
X165521864Y-61198886D01*
X165198886Y-61521864D01*
X164945123Y-61901646D01*
X164770329Y-62323637D01*
X164681220Y-62771620D01*
X164681220Y-63228380D01*
X164770329Y-63676363D01*
X164945123Y-64098354D01*
X165198886Y-64478136D01*
X165521864Y-64801114D01*
X165901646Y-65054877D01*
X166323637Y-65229671D01*
X166771620Y-65318780D01*
X167228380Y-65318780D01*
X167676363Y-65229671D01*
X168098354Y-65054877D01*
X168478136Y-64801114D01*
X168801114Y-64478136D01*
X169054877Y-64098354D01*
X169229671Y-63676363D01*
X169318780Y-63228380D01*
X169318780Y-62812445D01*
X169340000Y-63014344D01*
X169340001Y-136967711D01*
X169318780Y-137184137D01*
X169318780Y-136771620D01*
X169229671Y-136323637D01*
X169054877Y-135901646D01*
X168801114Y-135521864D01*
X168478136Y-135198886D01*
X168098354Y-134945123D01*
X167676363Y-134770329D01*
X167228380Y-134681220D01*
X166771620Y-134681220D01*
X166323637Y-134770329D01*
X165901646Y-134945123D01*
X165521864Y-135198886D01*
X165198886Y-135521864D01*
X164945123Y-135901646D01*
X164770329Y-136323637D01*
X164681220Y-136771620D01*
X164681220Y-137228380D01*
X164770329Y-137676363D01*
X164945123Y-138098354D01*
X165198886Y-138478136D01*
X165521864Y-138801114D01*
X165901646Y-139054877D01*
X166323637Y-139229671D01*
X166771620Y-139318780D01*
X167187560Y-139318780D01*
X166985664Y-139340000D01*
X113032279Y-139340000D01*
X112815863Y-139318780D01*
X113228380Y-139318780D01*
X113676363Y-139229671D01*
X114098354Y-139054877D01*
X114478136Y-138801114D01*
X114801114Y-138478136D01*
X115054877Y-138098354D01*
X115229671Y-137676363D01*
X115318780Y-137228380D01*
X115318780Y-136771620D01*
X115229671Y-136323637D01*
X115054877Y-135901646D01*
X114801114Y-135521864D01*
X114478136Y-135198886D01*
X114098354Y-134945123D01*
X113676363Y-134770329D01*
X113228380Y-134681220D01*
X112771620Y-134681220D01*
X112323637Y-134770329D01*
X111901646Y-134945123D01*
X111521864Y-135198886D01*
X111198886Y-135521864D01*
X110945123Y-135901646D01*
X110770329Y-136323637D01*
X110681220Y-136771620D01*
X110681220Y-137187560D01*
X110660000Y-136985664D01*
X110660000Y-125588665D01*
X130645000Y-125588665D01*
X130645000Y-125871335D01*
X130700147Y-126148574D01*
X130808320Y-126409727D01*
X130965363Y-126644759D01*
X131165241Y-126844637D01*
X131397759Y-127000000D01*
X131165241Y-127155363D01*
X130965363Y-127355241D01*
X130808320Y-127590273D01*
X130700147Y-127851426D01*
X130645000Y-128128665D01*
X130645000Y-128411335D01*
X130700147Y-128688574D01*
X130808320Y-128949727D01*
X130965363Y-129184759D01*
X131165241Y-129384637D01*
X131397759Y-129540000D01*
X131165241Y-129695363D01*
X130965363Y-129895241D01*
X130808320Y-130130273D01*
X130700147Y-130391426D01*
X130645000Y-130668665D01*
X130645000Y-130951335D01*
X130700147Y-131228574D01*
X130808320Y-131489727D01*
X130965363Y-131724759D01*
X131165241Y-131924637D01*
X131400273Y-132081680D01*
X131661426Y-132189853D01*
X131938665Y-132245000D01*
X132221335Y-132245000D01*
X132498574Y-132189853D01*
X132759727Y-132081680D01*
X132994759Y-131924637D01*
X133194637Y-131724759D01*
X133350000Y-131492241D01*
X133505363Y-131724759D01*
X133705241Y-131924637D01*
X133940273Y-132081680D01*
X134201426Y-132189853D01*
X134478665Y-132245000D01*
X134761335Y-132245000D01*
X135038574Y-132189853D01*
X135299727Y-132081680D01*
X135534759Y-131924637D01*
X135734637Y-131724759D01*
X135890000Y-131492241D01*
X136045363Y-131724759D01*
X136245241Y-131924637D01*
X136480273Y-132081680D01*
X136741426Y-132189853D01*
X137018665Y-132245000D01*
X137301335Y-132245000D01*
X137578574Y-132189853D01*
X137839727Y-132081680D01*
X138074759Y-131924637D01*
X138274637Y-131724759D01*
X138430000Y-131492241D01*
X138585363Y-131724759D01*
X138785241Y-131924637D01*
X139020273Y-132081680D01*
X139281426Y-132189853D01*
X139558665Y-132245000D01*
X139841335Y-132245000D01*
X140118574Y-132189853D01*
X140379727Y-132081680D01*
X140614759Y-131924637D01*
X140814637Y-131724759D01*
X140970000Y-131492241D01*
X141125363Y-131724759D01*
X141325241Y-131924637D01*
X141560273Y-132081680D01*
X141821426Y-132189853D01*
X142098665Y-132245000D01*
X142381335Y-132245000D01*
X142658574Y-132189853D01*
X142919727Y-132081680D01*
X143154759Y-131924637D01*
X143354637Y-131724759D01*
X143510000Y-131492241D01*
X143665363Y-131724759D01*
X143865241Y-131924637D01*
X144100273Y-132081680D01*
X144361426Y-132189853D01*
X144638665Y-132245000D01*
X144921335Y-132245000D01*
X145198574Y-132189853D01*
X145459727Y-132081680D01*
X145694759Y-131924637D01*
X145894637Y-131724759D01*
X146050000Y-131492241D01*
X146205363Y-131724759D01*
X146405241Y-131924637D01*
X146640273Y-132081680D01*
X146901426Y-132189853D01*
X147178665Y-132245000D01*
X147461335Y-132245000D01*
X147738574Y-132189853D01*
X147999727Y-132081680D01*
X148234759Y-131924637D01*
X148434637Y-131724759D01*
X148590000Y-131492241D01*
X148745363Y-131724759D01*
X148945241Y-131924637D01*
X149180273Y-132081680D01*
X149441426Y-132189853D01*
X149718665Y-132245000D01*
X150001335Y-132245000D01*
X150278574Y-132189853D01*
X150539727Y-132081680D01*
X150774759Y-131924637D01*
X150974637Y-131724759D01*
X151130000Y-131492241D01*
X151285363Y-131724759D01*
X151485241Y-131924637D01*
X151720273Y-132081680D01*
X151981426Y-132189853D01*
X152258665Y-132245000D01*
X152541335Y-132245000D01*
X152818574Y-132189853D01*
X153079727Y-132081680D01*
X153314759Y-131924637D01*
X153514637Y-131724759D01*
X153670000Y-131492241D01*
X153825363Y-131724759D01*
X154025241Y-131924637D01*
X154260273Y-132081680D01*
X154521426Y-132189853D01*
X154798665Y-132245000D01*
X155081335Y-132245000D01*
X155358574Y-132189853D01*
X155619727Y-132081680D01*
X155854759Y-131924637D01*
X156054637Y-131724759D01*
X156210000Y-131492241D01*
X156365363Y-131724759D01*
X156565241Y-131924637D01*
X156800273Y-132081680D01*
X157061426Y-132189853D01*
X157338665Y-132245000D01*
X157621335Y-132245000D01*
X157898574Y-132189853D01*
X158159727Y-132081680D01*
X158394759Y-131924637D01*
X158594637Y-131724759D01*
X158750000Y-131492241D01*
X158905363Y-131724759D01*
X159105241Y-131924637D01*
X159340273Y-132081680D01*
X159601426Y-132189853D01*
X159878665Y-132245000D01*
X160161335Y-132245000D01*
X160438574Y-132189853D01*
X160699727Y-132081680D01*
X160934759Y-131924637D01*
X161056694Y-131802702D01*
X161746903Y-131802702D01*
X161818486Y-132046671D01*
X162073996Y-132167571D01*
X162348184Y-132236300D01*
X162630512Y-132250217D01*
X162910130Y-132208787D01*
X163176292Y-132113603D01*
X163301514Y-132046671D01*
X163373097Y-131802702D01*
X162560000Y-130989605D01*
X161746903Y-131802702D01*
X161056694Y-131802702D01*
X161134637Y-131724759D01*
X161290915Y-131490872D01*
X161323329Y-131551514D01*
X161567298Y-131623097D01*
X162380395Y-130810000D01*
X161567298Y-129996903D01*
X161323329Y-130068486D01*
X161292806Y-130132992D01*
X161291680Y-130130273D01*
X161134637Y-129895241D01*
X161056694Y-129817298D01*
X161746903Y-129817298D01*
X162560000Y-130630395D01*
X163373097Y-129817298D01*
X163301514Y-129573329D01*
X163046004Y-129452429D01*
X162771816Y-129383700D01*
X162489488Y-129369783D01*
X162209870Y-129411213D01*
X161943708Y-129506397D01*
X161818486Y-129573329D01*
X161746903Y-129817298D01*
X161056694Y-129817298D01*
X160934759Y-129695363D01*
X160699727Y-129538320D01*
X160438574Y-129430147D01*
X160161335Y-129375000D01*
X159878665Y-129375000D01*
X159601426Y-129430147D01*
X159340273Y-129538320D01*
X159105241Y-129695363D01*
X158905363Y-129895241D01*
X158750000Y-130127759D01*
X158594637Y-129895241D01*
X158394759Y-129695363D01*
X158159727Y-129538320D01*
X157898574Y-129430147D01*
X157621335Y-129375000D01*
X157338665Y-129375000D01*
X157061426Y-129430147D01*
X156800273Y-129538320D01*
X156565241Y-129695363D01*
X156365363Y-129895241D01*
X156210000Y-130127759D01*
X156054637Y-129895241D01*
X155854759Y-129695363D01*
X155619727Y-129538320D01*
X155358574Y-129430147D01*
X155081335Y-129375000D01*
X154798665Y-129375000D01*
X154521426Y-129430147D01*
X154260273Y-129538320D01*
X154025241Y-129695363D01*
X153825363Y-129895241D01*
X153670000Y-130127759D01*
X153514637Y-129895241D01*
X153314759Y-129695363D01*
X153079727Y-129538320D01*
X152818574Y-129430147D01*
X152541335Y-129375000D01*
X152258665Y-129375000D01*
X151981426Y-129430147D01*
X151720273Y-129538320D01*
X151485241Y-129695363D01*
X151285363Y-129895241D01*
X151130000Y-130127759D01*
X150974637Y-129895241D01*
X150774759Y-129695363D01*
X150539727Y-129538320D01*
X150278574Y-129430147D01*
X150001335Y-129375000D01*
X149718665Y-129375000D01*
X149441426Y-129430147D01*
X149180273Y-129538320D01*
X148945241Y-129695363D01*
X148745363Y-129895241D01*
X148590000Y-130127759D01*
X148434637Y-129895241D01*
X148234759Y-129695363D01*
X147999727Y-129538320D01*
X147738574Y-129430147D01*
X147461335Y-129375000D01*
X147178665Y-129375000D01*
X146901426Y-129430147D01*
X146640273Y-129538320D01*
X146405241Y-129695363D01*
X146205363Y-129895241D01*
X146050000Y-130127759D01*
X145894637Y-129895241D01*
X145694759Y-129695363D01*
X145459727Y-129538320D01*
X145198574Y-129430147D01*
X144921335Y-129375000D01*
X144638665Y-129375000D01*
X144361426Y-129430147D01*
X144100273Y-129538320D01*
X143865241Y-129695363D01*
X143665363Y-129895241D01*
X143510000Y-130127759D01*
X143354637Y-129895241D01*
X143154759Y-129695363D01*
X142919727Y-129538320D01*
X142658574Y-129430147D01*
X142381335Y-129375000D01*
X142098665Y-129375000D01*
X141821426Y-129430147D01*
X141560273Y-129538320D01*
X141325241Y-129695363D01*
X141125363Y-129895241D01*
X140970000Y-130127759D01*
X140814637Y-129895241D01*
X140614759Y-129695363D01*
X140379727Y-129538320D01*
X140118574Y-129430147D01*
X139841335Y-129375000D01*
X139558665Y-129375000D01*
X139281426Y-129430147D01*
X139020273Y-129538320D01*
X138785241Y-129695363D01*
X138585363Y-129895241D01*
X138430000Y-130127759D01*
X138274637Y-129895241D01*
X138074759Y-129695363D01*
X137839727Y-129538320D01*
X137578574Y-129430147D01*
X137301335Y-129375000D01*
X137018665Y-129375000D01*
X136741426Y-129430147D01*
X136480273Y-129538320D01*
X136245241Y-129695363D01*
X136045363Y-129895241D01*
X135890000Y-130127759D01*
X135734637Y-129895241D01*
X135534759Y-129695363D01*
X135299727Y-129538320D01*
X135038574Y-129430147D01*
X134761335Y-129375000D01*
X134478665Y-129375000D01*
X134201426Y-129430147D01*
X133940273Y-129538320D01*
X133705241Y-129695363D01*
X133505363Y-129895241D01*
X133350000Y-130127759D01*
X133194637Y-129895241D01*
X132994759Y-129695363D01*
X132762241Y-129540000D01*
X132994759Y-129384637D01*
X133194637Y-129184759D01*
X133351680Y-128949727D01*
X133459853Y-128688574D01*
X133515000Y-128411335D01*
X133515000Y-128128665D01*
X133459853Y-127851426D01*
X133351680Y-127590273D01*
X133194637Y-127355241D01*
X132994759Y-127155363D01*
X132762241Y-127000000D01*
X132994759Y-126844637D01*
X133194637Y-126644759D01*
X133351680Y-126409727D01*
X133459853Y-126148574D01*
X133515000Y-125871335D01*
X133515000Y-125588665D01*
X133459853Y-125311426D01*
X133351680Y-125050273D01*
X133194637Y-124815241D01*
X132994759Y-124615363D01*
X132760872Y-124459085D01*
X132821514Y-124426671D01*
X132893097Y-124182702D01*
X132080000Y-123369605D01*
X131266903Y-124182702D01*
X131338486Y-124426671D01*
X131402992Y-124457194D01*
X131400273Y-124458320D01*
X131165241Y-124615363D01*
X130965363Y-124815241D01*
X130808320Y-125050273D01*
X130700147Y-125311426D01*
X130645000Y-125588665D01*
X110660000Y-125588665D01*
X110660000Y-123260512D01*
X130639783Y-123260512D01*
X130681213Y-123540130D01*
X130776397Y-123806292D01*
X130843329Y-123931514D01*
X131087298Y-124003097D01*
X131900395Y-123190000D01*
X132259605Y-123190000D01*
X133072702Y-124003097D01*
X133316671Y-123931514D01*
X133437571Y-123676004D01*
X133506300Y-123401816D01*
X133520217Y-123119488D01*
X133478787Y-122839870D01*
X133383603Y-122573708D01*
X133316671Y-122448486D01*
X133072702Y-122376903D01*
X132259605Y-123190000D01*
X131900395Y-123190000D01*
X131087298Y-122376903D01*
X130843329Y-122448486D01*
X130722429Y-122703996D01*
X130653700Y-122978184D01*
X130639783Y-123260512D01*
X110660000Y-123260512D01*
X110660000Y-99771620D01*
X110681220Y-99771620D01*
X110681220Y-100228380D01*
X110770329Y-100676363D01*
X110945123Y-101098354D01*
X111198886Y-101478136D01*
X111521864Y-101801114D01*
X111901646Y-102054877D01*
X112323637Y-102229671D01*
X112771620Y-102318780D01*
X113228380Y-102318780D01*
X113676363Y-102229671D01*
X114098354Y-102054877D01*
X114478136Y-101801114D01*
X114801114Y-101478136D01*
X115054877Y-101098354D01*
X115229671Y-100676363D01*
X115318780Y-100228380D01*
X115318780Y-99771620D01*
X115229671Y-99323637D01*
X115054877Y-98901646D01*
X114801114Y-98521864D01*
X114478136Y-98198886D01*
X114098354Y-97945123D01*
X113676363Y-97770329D01*
X113228380Y-97681220D01*
X112771620Y-97681220D01*
X112323637Y-97770329D01*
X111901646Y-97945123D01*
X111521864Y-98198886D01*
X111198886Y-98521864D01*
X110945123Y-98901646D01*
X110770329Y-99323637D01*
X110681220Y-99771620D01*
X110660000Y-99771620D01*
X110660000Y-93980000D01*
X126110719Y-93980000D01*
X126115000Y-94023469D01*
X126115001Y-96686514D01*
X126115000Y-96686524D01*
X126115001Y-116796521D01*
X126110719Y-116840000D01*
X126127805Y-117013490D01*
X126178412Y-117180313D01*
X126260590Y-117334059D01*
X126343468Y-117435046D01*
X126343471Y-117435049D01*
X126371184Y-117468817D01*
X126404951Y-117496529D01*
X127674953Y-118766532D01*
X127674958Y-118766536D01*
X128944953Y-120036532D01*
X129045940Y-120119410D01*
X129199686Y-120201588D01*
X129366509Y-120252194D01*
X129511051Y-120266430D01*
X129536013Y-120274002D01*
X129647666Y-120284999D01*
X129647674Y-120284999D01*
X129684999Y-120288675D01*
X129722324Y-120284999D01*
X130689491Y-120284999D01*
X130645000Y-120508665D01*
X130645000Y-120791335D01*
X130700147Y-121068574D01*
X130808320Y-121329727D01*
X130965363Y-121564759D01*
X131165241Y-121764637D01*
X131399128Y-121920915D01*
X131338486Y-121953329D01*
X131266903Y-122197298D01*
X132080000Y-123010395D01*
X132893097Y-122197298D01*
X132821514Y-121953329D01*
X132757008Y-121922806D01*
X132759727Y-121921680D01*
X132994759Y-121764637D01*
X133194637Y-121564759D01*
X133351680Y-121329727D01*
X133459853Y-121068574D01*
X133515000Y-120791335D01*
X133515000Y-120508665D01*
X133470509Y-120284999D01*
X140369464Y-120284999D01*
X140484688Y-120346587D01*
X140651511Y-120397194D01*
X140825001Y-120414280D01*
X140998491Y-120397194D01*
X141165314Y-120346587D01*
X141319060Y-120264409D01*
X141420047Y-120181531D01*
X142835049Y-118766530D01*
X142868817Y-118738817D01*
X142896533Y-118705046D01*
X142979411Y-118604059D01*
X143061588Y-118450314D01*
X143061589Y-118450313D01*
X143112195Y-118283490D01*
X143125000Y-118153477D01*
X143125000Y-118153469D01*
X143129281Y-118110000D01*
X143125000Y-118066531D01*
X143125000Y-116704521D01*
X143154759Y-116684637D01*
X143354637Y-116484759D01*
X143510000Y-116252241D01*
X143665363Y-116484759D01*
X143865241Y-116684637D01*
X144100273Y-116841680D01*
X144361426Y-116949853D01*
X144638665Y-117005000D01*
X144921335Y-117005000D01*
X145198574Y-116949853D01*
X145459727Y-116841680D01*
X145694759Y-116684637D01*
X145894637Y-116484759D01*
X146050000Y-116252241D01*
X146205363Y-116484759D01*
X146405241Y-116684637D01*
X146640273Y-116841680D01*
X146901426Y-116949853D01*
X147178665Y-117005000D01*
X147461335Y-117005000D01*
X147738574Y-116949853D01*
X147999727Y-116841680D01*
X148234759Y-116684637D01*
X148434637Y-116484759D01*
X148590000Y-116252241D01*
X148745363Y-116484759D01*
X148945241Y-116684637D01*
X149180273Y-116841680D01*
X149441426Y-116949853D01*
X149718665Y-117005000D01*
X150001335Y-117005000D01*
X150278574Y-116949853D01*
X150539727Y-116841680D01*
X150774759Y-116684637D01*
X150974637Y-116484759D01*
X151130000Y-116252241D01*
X151285363Y-116484759D01*
X151485241Y-116684637D01*
X151720273Y-116841680D01*
X151981426Y-116949853D01*
X152258665Y-117005000D01*
X152541335Y-117005000D01*
X152818574Y-116949853D01*
X153079727Y-116841680D01*
X153314759Y-116684637D01*
X153514637Y-116484759D01*
X153670000Y-116252241D01*
X153825363Y-116484759D01*
X154025241Y-116684637D01*
X154260273Y-116841680D01*
X154521426Y-116949853D01*
X154798665Y-117005000D01*
X155081335Y-117005000D01*
X155358574Y-116949853D01*
X155619727Y-116841680D01*
X155854759Y-116684637D01*
X156054637Y-116484759D01*
X156210000Y-116252241D01*
X156365363Y-116484759D01*
X156565241Y-116684637D01*
X156800273Y-116841680D01*
X157061426Y-116949853D01*
X157338665Y-117005000D01*
X157621335Y-117005000D01*
X157898574Y-116949853D01*
X158159727Y-116841680D01*
X158394759Y-116684637D01*
X158594637Y-116484759D01*
X158750000Y-116252241D01*
X158905363Y-116484759D01*
X159105241Y-116684637D01*
X159340273Y-116841680D01*
X159601426Y-116949853D01*
X159878665Y-117005000D01*
X160161335Y-117005000D01*
X160438574Y-116949853D01*
X160699727Y-116841680D01*
X160934759Y-116684637D01*
X161134637Y-116484759D01*
X161290000Y-116252241D01*
X161445363Y-116484759D01*
X161645241Y-116684637D01*
X161880273Y-116841680D01*
X162141426Y-116949853D01*
X162418665Y-117005000D01*
X162701335Y-117005000D01*
X162978574Y-116949853D01*
X163239727Y-116841680D01*
X163474759Y-116684637D01*
X163596694Y-116562702D01*
X164286903Y-116562702D01*
X164358486Y-116806671D01*
X164613996Y-116927571D01*
X164888184Y-116996300D01*
X165170512Y-117010217D01*
X165450130Y-116968787D01*
X165716292Y-116873603D01*
X165841514Y-116806671D01*
X165913097Y-116562702D01*
X165100000Y-115749605D01*
X164286903Y-116562702D01*
X163596694Y-116562702D01*
X163674637Y-116484759D01*
X163830915Y-116250872D01*
X163863329Y-116311514D01*
X164107298Y-116383097D01*
X164920395Y-115570000D01*
X164107298Y-114756903D01*
X163863329Y-114828486D01*
X163832806Y-114892992D01*
X163831680Y-114890273D01*
X163674637Y-114655241D01*
X163596694Y-114577298D01*
X164286903Y-114577298D01*
X165100000Y-115390395D01*
X165913097Y-114577298D01*
X165841514Y-114333329D01*
X165586004Y-114212429D01*
X165311816Y-114143700D01*
X165029488Y-114129783D01*
X164749870Y-114171213D01*
X164483708Y-114266397D01*
X164358486Y-114333329D01*
X164286903Y-114577298D01*
X163596694Y-114577298D01*
X163474759Y-114455363D01*
X163239727Y-114298320D01*
X162978574Y-114190147D01*
X162701335Y-114135000D01*
X162418665Y-114135000D01*
X162141426Y-114190147D01*
X161880273Y-114298320D01*
X161645241Y-114455363D01*
X161445363Y-114655241D01*
X161290000Y-114887759D01*
X161134637Y-114655241D01*
X160934759Y-114455363D01*
X160699727Y-114298320D01*
X160438574Y-114190147D01*
X160161335Y-114135000D01*
X159878665Y-114135000D01*
X159601426Y-114190147D01*
X159340273Y-114298320D01*
X159105241Y-114455363D01*
X158905363Y-114655241D01*
X158750000Y-114887759D01*
X158594637Y-114655241D01*
X158394759Y-114455363D01*
X158159727Y-114298320D01*
X157898574Y-114190147D01*
X157621335Y-114135000D01*
X157338665Y-114135000D01*
X157061426Y-114190147D01*
X156800273Y-114298320D01*
X156565241Y-114455363D01*
X156365363Y-114655241D01*
X156210000Y-114887759D01*
X156054637Y-114655241D01*
X155854759Y-114455363D01*
X155619727Y-114298320D01*
X155358574Y-114190147D01*
X155081335Y-114135000D01*
X154798665Y-114135000D01*
X154521426Y-114190147D01*
X154260273Y-114298320D01*
X154025241Y-114455363D01*
X153825363Y-114655241D01*
X153670000Y-114887759D01*
X153514637Y-114655241D01*
X153314759Y-114455363D01*
X153079727Y-114298320D01*
X152818574Y-114190147D01*
X152541335Y-114135000D01*
X152258665Y-114135000D01*
X151981426Y-114190147D01*
X151720273Y-114298320D01*
X151485241Y-114455363D01*
X151285363Y-114655241D01*
X151130000Y-114887759D01*
X150974637Y-114655241D01*
X150774759Y-114455363D01*
X150539727Y-114298320D01*
X150278574Y-114190147D01*
X150001335Y-114135000D01*
X149718665Y-114135000D01*
X149441426Y-114190147D01*
X149180273Y-114298320D01*
X148945241Y-114455363D01*
X148745363Y-114655241D01*
X148590000Y-114887759D01*
X148434637Y-114655241D01*
X148234759Y-114455363D01*
X147999727Y-114298320D01*
X147738574Y-114190147D01*
X147461335Y-114135000D01*
X147178665Y-114135000D01*
X146901426Y-114190147D01*
X146640273Y-114298320D01*
X146405241Y-114455363D01*
X146205363Y-114655241D01*
X146050000Y-114887759D01*
X145894637Y-114655241D01*
X145694759Y-114455363D01*
X145459727Y-114298320D01*
X145198574Y-114190147D01*
X144921335Y-114135000D01*
X144638665Y-114135000D01*
X144361426Y-114190147D01*
X144100273Y-114298320D01*
X144058437Y-114326274D01*
X144059937Y-114324774D01*
X144173205Y-114155256D01*
X144251226Y-113966898D01*
X144262535Y-113910043D01*
X145445051Y-112727528D01*
X145478818Y-112699816D01*
X145589412Y-112565058D01*
X145671590Y-112411312D01*
X145722196Y-112244489D01*
X145735001Y-112114476D01*
X145735001Y-112114468D01*
X145739282Y-112070999D01*
X145735001Y-112027530D01*
X145735001Y-105410000D01*
X161419509Y-105410000D01*
X161441423Y-105632498D01*
X161506324Y-105846446D01*
X161506325Y-105846447D01*
X161611717Y-106043623D01*
X161753552Y-106216449D01*
X161796860Y-106251991D01*
X165606856Y-110061989D01*
X165606867Y-110061998D01*
X166505001Y-110960133D01*
X166505001Y-115261808D01*
X166498787Y-115219870D01*
X166403603Y-114953708D01*
X166336671Y-114828486D01*
X166092702Y-114756903D01*
X165279605Y-115570000D01*
X166092702Y-116383097D01*
X166336671Y-116311514D01*
X166457571Y-116056004D01*
X166505001Y-115866788D01*
X166505000Y-127799868D01*
X164922718Y-129382150D01*
X164681426Y-129430147D01*
X164420273Y-129538320D01*
X164185241Y-129695363D01*
X163985363Y-129895241D01*
X163829085Y-130129128D01*
X163796671Y-130068486D01*
X163552702Y-129996903D01*
X162739605Y-130810000D01*
X163552702Y-131623097D01*
X163796671Y-131551514D01*
X163827194Y-131487008D01*
X163828320Y-131489727D01*
X163985363Y-131724759D01*
X164185241Y-131924637D01*
X164420273Y-132081680D01*
X164681426Y-132189853D01*
X164958665Y-132245000D01*
X165241335Y-132245000D01*
X165518574Y-132189853D01*
X165779727Y-132081680D01*
X166014759Y-131924637D01*
X166214637Y-131724759D01*
X166371680Y-131489727D01*
X166479853Y-131228574D01*
X166527850Y-130987282D01*
X168403141Y-129111991D01*
X168446449Y-129076449D01*
X168588284Y-128903623D01*
X168693676Y-128706447D01*
X168758577Y-128492499D01*
X168775000Y-128325752D01*
X168775000Y-128325743D01*
X168780490Y-128270001D01*
X168775000Y-128214259D01*
X168775000Y-110545743D01*
X168780490Y-110489999D01*
X168775000Y-110434255D01*
X168775000Y-110434248D01*
X168758577Y-110267501D01*
X168693676Y-110053553D01*
X168588284Y-109856377D01*
X168446449Y-109683551D01*
X168403140Y-109648008D01*
X167211998Y-108456867D01*
X167211989Y-108456856D01*
X163695000Y-104939869D01*
X163695000Y-99771620D01*
X164681220Y-99771620D01*
X164681220Y-100228380D01*
X164770329Y-100676363D01*
X164945123Y-101098354D01*
X165198886Y-101478136D01*
X165521864Y-101801114D01*
X165901646Y-102054877D01*
X166323637Y-102229671D01*
X166771620Y-102318780D01*
X167228380Y-102318780D01*
X167676363Y-102229671D01*
X168098354Y-102054877D01*
X168478136Y-101801114D01*
X168801114Y-101478136D01*
X169054877Y-101098354D01*
X169229671Y-100676363D01*
X169318780Y-100228380D01*
X169318780Y-99771620D01*
X169229671Y-99323637D01*
X169054877Y-98901646D01*
X168801114Y-98521864D01*
X168478136Y-98198886D01*
X168098354Y-97945123D01*
X167676363Y-97770329D01*
X167228380Y-97681220D01*
X166771620Y-97681220D01*
X166323637Y-97770329D01*
X165901646Y-97945123D01*
X165521864Y-98198886D01*
X165198886Y-98521864D01*
X164945123Y-98901646D01*
X164770329Y-99323637D01*
X164681220Y-99771620D01*
X163695000Y-99771620D01*
X163695000Y-88844248D01*
X163678577Y-88677501D01*
X163613676Y-88463553D01*
X163508284Y-88266377D01*
X163366449Y-88093551D01*
X163193623Y-87951716D01*
X162996446Y-87846324D01*
X162782498Y-87781423D01*
X162560000Y-87759509D01*
X162337501Y-87781423D01*
X162123553Y-87846324D01*
X161926377Y-87951716D01*
X161753551Y-88093551D01*
X161611716Y-88266377D01*
X161506324Y-88463554D01*
X161441423Y-88677502D01*
X161425000Y-88844249D01*
X161425001Y-105354238D01*
X161419509Y-105410000D01*
X145735001Y-105410000D01*
X145735001Y-102207249D01*
X145820774Y-102149937D01*
X145964937Y-102005774D01*
X146078205Y-101836256D01*
X146156226Y-101647898D01*
X146196000Y-101447939D01*
X146196000Y-101244061D01*
X146156226Y-101044102D01*
X146078205Y-100855744D01*
X145964937Y-100686226D01*
X145820774Y-100542063D01*
X145651256Y-100428795D01*
X145462898Y-100350774D01*
X145262939Y-100311000D01*
X145059061Y-100311000D01*
X144859102Y-100350774D01*
X144670744Y-100428795D01*
X144501226Y-100542063D01*
X144395000Y-100648289D01*
X144395000Y-99103469D01*
X144399281Y-99060000D01*
X144395000Y-99016531D01*
X144395000Y-99016523D01*
X144382195Y-98886510D01*
X144331589Y-98719687D01*
X144307704Y-98675000D01*
X145511546Y-98675000D01*
X145559744Y-98707205D01*
X145748102Y-98785226D01*
X145948061Y-98825000D01*
X146151939Y-98825000D01*
X146351898Y-98785226D01*
X146540256Y-98707205D01*
X146709774Y-98593937D01*
X146853937Y-98449774D01*
X146967205Y-98280256D01*
X147045226Y-98091898D01*
X147085000Y-97891939D01*
X147085000Y-97688061D01*
X147045226Y-97488102D01*
X146967205Y-97299744D01*
X146853937Y-97130226D01*
X146709774Y-96986063D01*
X146540256Y-96872795D01*
X146351898Y-96794774D01*
X146151939Y-96755000D01*
X145948061Y-96755000D01*
X145748102Y-96794774D01*
X145559744Y-96872795D01*
X145511546Y-96905000D01*
X135158454Y-96905000D01*
X135110256Y-96872795D01*
X134921898Y-96794774D01*
X134721939Y-96755000D01*
X134518061Y-96755000D01*
X134318102Y-96794774D01*
X134129744Y-96872795D01*
X133960226Y-96986063D01*
X133816063Y-97130226D01*
X133702795Y-97299744D01*
X133624774Y-97488102D01*
X133585000Y-97688061D01*
X133585000Y-97891939D01*
X133624774Y-98091898D01*
X133702795Y-98280256D01*
X133816063Y-98449774D01*
X133960226Y-98593937D01*
X134129744Y-98707205D01*
X134318102Y-98785226D01*
X134518061Y-98825000D01*
X134721939Y-98825000D01*
X134921898Y-98785226D01*
X135110256Y-98707205D01*
X135158454Y-98675000D01*
X140103421Y-98675000D01*
X139454957Y-99323465D01*
X139398102Y-99334774D01*
X139209744Y-99412795D01*
X139040226Y-99526063D01*
X138896063Y-99670226D01*
X138782795Y-99839744D01*
X138704774Y-100028102D01*
X138665000Y-100228061D01*
X138665000Y-100431939D01*
X138704774Y-100631898D01*
X138739196Y-100715000D01*
X135933469Y-100715000D01*
X135890000Y-100710719D01*
X135846531Y-100715000D01*
X135846523Y-100715000D01*
X135716510Y-100727805D01*
X135549686Y-100778411D01*
X135395941Y-100860589D01*
X135294953Y-100943468D01*
X135294951Y-100943470D01*
X135261183Y-100971183D01*
X135233470Y-101004951D01*
X135004956Y-101233465D01*
X134948102Y-101244774D01*
X134759744Y-101322795D01*
X134590226Y-101436063D01*
X134446063Y-101580226D01*
X134332795Y-101749744D01*
X134254774Y-101938102D01*
X134243465Y-101994956D01*
X128944956Y-107293466D01*
X128911183Y-107321183D01*
X128800589Y-107455942D01*
X128718411Y-107609688D01*
X128667805Y-107776511D01*
X128655000Y-107906524D01*
X128655000Y-107906531D01*
X128650719Y-107950000D01*
X128655000Y-107993469D01*
X128655001Y-113881971D01*
X128622795Y-113930171D01*
X128544774Y-114118529D01*
X128505000Y-114318488D01*
X128505000Y-114522366D01*
X128544774Y-114722325D01*
X128622795Y-114910683D01*
X128736063Y-115080201D01*
X128880226Y-115224364D01*
X129049744Y-115337632D01*
X129238102Y-115415653D01*
X129438061Y-115455427D01*
X129641939Y-115455427D01*
X129841898Y-115415653D01*
X130030256Y-115337632D01*
X130199774Y-115224364D01*
X130343937Y-115080201D01*
X130457205Y-114910683D01*
X130535226Y-114722325D01*
X130575000Y-114522366D01*
X130575000Y-114318488D01*
X130535226Y-114118529D01*
X130457205Y-113930171D01*
X130425000Y-113881973D01*
X130425000Y-108316578D01*
X135495044Y-103246535D01*
X135551898Y-103235226D01*
X135740256Y-103157205D01*
X135909774Y-103043937D01*
X136053937Y-102899774D01*
X136125000Y-102793420D01*
X136125000Y-102971939D01*
X136164774Y-103171898D01*
X136242795Y-103360256D01*
X136356063Y-103529774D01*
X136500226Y-103673937D01*
X136669744Y-103787205D01*
X136858102Y-103865226D01*
X137058061Y-103905000D01*
X137261939Y-103905000D01*
X137461898Y-103865226D01*
X137650256Y-103787205D01*
X137698454Y-103755000D01*
X142196531Y-103755000D01*
X142240000Y-103759281D01*
X142283469Y-103755000D01*
X142283477Y-103755000D01*
X142413490Y-103742195D01*
X142580313Y-103691589D01*
X142734059Y-103609411D01*
X142868817Y-103498817D01*
X142896534Y-103465044D01*
X143965002Y-102396577D01*
X143965001Y-111704420D01*
X143010957Y-112658465D01*
X142954102Y-112669774D01*
X142765744Y-112747795D01*
X142596226Y-112861063D01*
X142452063Y-113005226D01*
X142338795Y-113174744D01*
X142260774Y-113363102D01*
X142221000Y-113563061D01*
X142221000Y-113766939D01*
X142260774Y-113966898D01*
X142330405Y-114135000D01*
X142098665Y-114135000D01*
X141821426Y-114190147D01*
X141560273Y-114298320D01*
X141325241Y-114455363D01*
X141125363Y-114655241D01*
X140970000Y-114887759D01*
X140814637Y-114655241D01*
X140614759Y-114455363D01*
X140585000Y-114435479D01*
X140585000Y-110533465D01*
X140589281Y-110489999D01*
X140585000Y-110446533D01*
X140585000Y-110446523D01*
X140572195Y-110316510D01*
X140521589Y-110149687D01*
X140439411Y-109995941D01*
X140328817Y-109861183D01*
X140295050Y-109833471D01*
X139086532Y-108624954D01*
X139058817Y-108591183D01*
X138924059Y-108480589D01*
X138770313Y-108398411D01*
X138603490Y-108347805D01*
X138473477Y-108335000D01*
X138473469Y-108335000D01*
X138430000Y-108330719D01*
X138386531Y-108335000D01*
X135285000Y-108335000D01*
X135285000Y-108218061D01*
X135245226Y-108018102D01*
X135167205Y-107829744D01*
X135053937Y-107660226D01*
X134909774Y-107516063D01*
X134740256Y-107402795D01*
X134551898Y-107324774D01*
X134351939Y-107285000D01*
X134148061Y-107285000D01*
X133948102Y-107324774D01*
X133759744Y-107402795D01*
X133590226Y-107516063D01*
X133446063Y-107660226D01*
X133332795Y-107829744D01*
X133254774Y-108018102D01*
X133215000Y-108218061D01*
X133215000Y-108421939D01*
X133254774Y-108621898D01*
X133332795Y-108810256D01*
X133360955Y-108852401D01*
X133365000Y-108893469D01*
X133365000Y-108893477D01*
X133377805Y-109023490D01*
X133428411Y-109190313D01*
X133498767Y-109321939D01*
X133510590Y-109344059D01*
X133593468Y-109445046D01*
X133593471Y-109445049D01*
X133621184Y-109478817D01*
X133654952Y-109506530D01*
X133963466Y-109815044D01*
X133991183Y-109848817D01*
X134125941Y-109959411D01*
X134279687Y-110041589D01*
X134446510Y-110092195D01*
X134576523Y-110105000D01*
X134576533Y-110105000D01*
X134619999Y-110109281D01*
X134663466Y-110105000D01*
X138063422Y-110105000D01*
X138815000Y-110856579D01*
X138815001Y-114435478D01*
X138785241Y-114455363D01*
X138585363Y-114655241D01*
X138430000Y-114887759D01*
X138274637Y-114655241D01*
X138074759Y-114455363D01*
X137839727Y-114298320D01*
X137578574Y-114190147D01*
X137301335Y-114135000D01*
X137018665Y-114135000D01*
X136741426Y-114190147D01*
X136480273Y-114298320D01*
X136245241Y-114455363D01*
X136045363Y-114655241D01*
X135890000Y-114887759D01*
X135734637Y-114655241D01*
X135534759Y-114455363D01*
X135299727Y-114298320D01*
X135038574Y-114190147D01*
X134761335Y-114135000D01*
X134478665Y-114135000D01*
X134443561Y-114141983D01*
X132965000Y-112663422D01*
X132965000Y-109758454D01*
X132997205Y-109710256D01*
X133075226Y-109521898D01*
X133115000Y-109321939D01*
X133115000Y-109118061D01*
X133075226Y-108918102D01*
X132997205Y-108729744D01*
X132883937Y-108560226D01*
X132739774Y-108416063D01*
X132570256Y-108302795D01*
X132381898Y-108224774D01*
X132181939Y-108185000D01*
X131978061Y-108185000D01*
X131778102Y-108224774D01*
X131589744Y-108302795D01*
X131420226Y-108416063D01*
X131276063Y-108560226D01*
X131162795Y-108729744D01*
X131084774Y-108918102D01*
X131045000Y-109118061D01*
X131045000Y-109321939D01*
X131084774Y-109521898D01*
X131162795Y-109710256D01*
X131195000Y-109758455D01*
X131195001Y-112986521D01*
X131190719Y-113030000D01*
X131207805Y-113203490D01*
X131258412Y-113370313D01*
X131340590Y-113524059D01*
X131423468Y-113625046D01*
X131423471Y-113625049D01*
X131451184Y-113658817D01*
X131484951Y-113686529D01*
X131934292Y-114135870D01*
X131661426Y-114190147D01*
X131400273Y-114298320D01*
X131165241Y-114455363D01*
X130965363Y-114655241D01*
X130808320Y-114890273D01*
X130700147Y-115151426D01*
X130645000Y-115428665D01*
X130645000Y-115711335D01*
X130700147Y-115988574D01*
X130808320Y-116249727D01*
X130965363Y-116484759D01*
X131165241Y-116684637D01*
X131397759Y-116840000D01*
X131165241Y-116995363D01*
X130965363Y-117195241D01*
X130808320Y-117430273D01*
X130700147Y-117691426D01*
X130645000Y-117968665D01*
X130645000Y-118251335D01*
X130700147Y-118528574D01*
X130798077Y-118764999D01*
X130176578Y-118764999D01*
X128926536Y-117514958D01*
X128926532Y-117514953D01*
X127885000Y-116473422D01*
X127885000Y-94346578D01*
X129785044Y-92446535D01*
X129841898Y-92435226D01*
X130030256Y-92357205D01*
X130199774Y-92243937D01*
X130343937Y-92099774D01*
X130457205Y-91930256D01*
X130535226Y-91741898D01*
X130575000Y-91541939D01*
X130575000Y-91338061D01*
X130535226Y-91138102D01*
X130457205Y-90949744D01*
X130343937Y-90780226D01*
X130199774Y-90636063D01*
X130030256Y-90522795D01*
X129841898Y-90444774D01*
X129641939Y-90405000D01*
X129438061Y-90405000D01*
X129238102Y-90444774D01*
X129049744Y-90522795D01*
X128880226Y-90636063D01*
X128736063Y-90780226D01*
X128622795Y-90949744D01*
X128544774Y-91138102D01*
X128533465Y-91194956D01*
X126404956Y-93323466D01*
X126371183Y-93351183D01*
X126260589Y-93485942D01*
X126178411Y-93639688D01*
X126127805Y-93806511D01*
X126115000Y-93936524D01*
X126115000Y-93936531D01*
X126110719Y-93980000D01*
X110660000Y-93980000D01*
X110660000Y-63032279D01*
X110681220Y-62815863D01*
X110681220Y-63228380D01*
X110770329Y-63676363D01*
X110945123Y-64098354D01*
X111198886Y-64478136D01*
X111521864Y-64801114D01*
X111901646Y-65054877D01*
X112323637Y-65229671D01*
X112771620Y-65318780D01*
X113228380Y-65318780D01*
X113676363Y-65229671D01*
X114098354Y-65054877D01*
X114478136Y-64801114D01*
X114801114Y-64478136D01*
X115054877Y-64098354D01*
X115229671Y-63676363D01*
X115318780Y-63228380D01*
X115318780Y-62771620D01*
X115229671Y-62323637D01*
X115054877Y-61901646D01*
X114801114Y-61521864D01*
X114478136Y-61198886D01*
X114098354Y-60945123D01*
X113676363Y-60770329D01*
X113228380Y-60681220D01*
X112812445Y-60681220D01*
X113014344Y-60660000D01*
X166967721Y-60660000D01*
X167184137Y-60681220D01*
%TA.AperFunction,Conductor*%
D16*
G36*
X167184137Y-60681220D02*
G01*
X166771620Y-60681220D01*
X166323637Y-60770329D01*
X165901646Y-60945123D01*
X165521864Y-61198886D01*
X165198886Y-61521864D01*
X164945123Y-61901646D01*
X164770329Y-62323637D01*
X164681220Y-62771620D01*
X164681220Y-63228380D01*
X164770329Y-63676363D01*
X164945123Y-64098354D01*
X165198886Y-64478136D01*
X165521864Y-64801114D01*
X165901646Y-65054877D01*
X166323637Y-65229671D01*
X166771620Y-65318780D01*
X167228380Y-65318780D01*
X167676363Y-65229671D01*
X168098354Y-65054877D01*
X168478136Y-64801114D01*
X168801114Y-64478136D01*
X169054877Y-64098354D01*
X169229671Y-63676363D01*
X169318780Y-63228380D01*
X169318780Y-62812445D01*
X169340000Y-63014344D01*
X169340001Y-136967711D01*
X169318780Y-137184137D01*
X169318780Y-136771620D01*
X169229671Y-136323637D01*
X169054877Y-135901646D01*
X168801114Y-135521864D01*
X168478136Y-135198886D01*
X168098354Y-134945123D01*
X167676363Y-134770329D01*
X167228380Y-134681220D01*
X166771620Y-134681220D01*
X166323637Y-134770329D01*
X165901646Y-134945123D01*
X165521864Y-135198886D01*
X165198886Y-135521864D01*
X164945123Y-135901646D01*
X164770329Y-136323637D01*
X164681220Y-136771620D01*
X164681220Y-137228380D01*
X164770329Y-137676363D01*
X164945123Y-138098354D01*
X165198886Y-138478136D01*
X165521864Y-138801114D01*
X165901646Y-139054877D01*
X166323637Y-139229671D01*
X166771620Y-139318780D01*
X167187560Y-139318780D01*
X166985664Y-139340000D01*
X113032279Y-139340000D01*
X112815863Y-139318780D01*
X113228380Y-139318780D01*
X113676363Y-139229671D01*
X114098354Y-139054877D01*
X114478136Y-138801114D01*
X114801114Y-138478136D01*
X115054877Y-138098354D01*
X115229671Y-137676363D01*
X115318780Y-137228380D01*
X115318780Y-136771620D01*
X115229671Y-136323637D01*
X115054877Y-135901646D01*
X114801114Y-135521864D01*
X114478136Y-135198886D01*
X114098354Y-134945123D01*
X113676363Y-134770329D01*
X113228380Y-134681220D01*
X112771620Y-134681220D01*
X112323637Y-134770329D01*
X111901646Y-134945123D01*
X111521864Y-135198886D01*
X111198886Y-135521864D01*
X110945123Y-135901646D01*
X110770329Y-136323637D01*
X110681220Y-136771620D01*
X110681220Y-137187560D01*
X110660000Y-136985664D01*
X110660000Y-125588665D01*
X130645000Y-125588665D01*
X130645000Y-125871335D01*
X130700147Y-126148574D01*
X130808320Y-126409727D01*
X130965363Y-126644759D01*
X131165241Y-126844637D01*
X131397759Y-127000000D01*
X131165241Y-127155363D01*
X130965363Y-127355241D01*
X130808320Y-127590273D01*
X130700147Y-127851426D01*
X130645000Y-128128665D01*
X130645000Y-128411335D01*
X130700147Y-128688574D01*
X130808320Y-128949727D01*
X130965363Y-129184759D01*
X131165241Y-129384637D01*
X131397759Y-129540000D01*
X131165241Y-129695363D01*
X130965363Y-129895241D01*
X130808320Y-130130273D01*
X130700147Y-130391426D01*
X130645000Y-130668665D01*
X130645000Y-130951335D01*
X130700147Y-131228574D01*
X130808320Y-131489727D01*
X130965363Y-131724759D01*
X131165241Y-131924637D01*
X131400273Y-132081680D01*
X131661426Y-132189853D01*
X131938665Y-132245000D01*
X132221335Y-132245000D01*
X132498574Y-132189853D01*
X132759727Y-132081680D01*
X132994759Y-131924637D01*
X133194637Y-131724759D01*
X133350000Y-131492241D01*
X133505363Y-131724759D01*
X133705241Y-131924637D01*
X133940273Y-132081680D01*
X134201426Y-132189853D01*
X134478665Y-132245000D01*
X134761335Y-132245000D01*
X135038574Y-132189853D01*
X135299727Y-132081680D01*
X135534759Y-131924637D01*
X135734637Y-131724759D01*
X135890000Y-131492241D01*
X136045363Y-131724759D01*
X136245241Y-131924637D01*
X136480273Y-132081680D01*
X136741426Y-132189853D01*
X137018665Y-132245000D01*
X137301335Y-132245000D01*
X137578574Y-132189853D01*
X137839727Y-132081680D01*
X138074759Y-131924637D01*
X138274637Y-131724759D01*
X138430000Y-131492241D01*
X138585363Y-131724759D01*
X138785241Y-131924637D01*
X139020273Y-132081680D01*
X139281426Y-132189853D01*
X139558665Y-132245000D01*
X139841335Y-132245000D01*
X140118574Y-132189853D01*
X140379727Y-132081680D01*
X140614759Y-131924637D01*
X140814637Y-131724759D01*
X140970000Y-131492241D01*
X141125363Y-131724759D01*
X141325241Y-131924637D01*
X141560273Y-132081680D01*
X141821426Y-132189853D01*
X142098665Y-132245000D01*
X142381335Y-132245000D01*
X142658574Y-132189853D01*
X142919727Y-132081680D01*
X143154759Y-131924637D01*
X143354637Y-131724759D01*
X143510000Y-131492241D01*
X143665363Y-131724759D01*
X143865241Y-131924637D01*
X144100273Y-132081680D01*
X144361426Y-132189853D01*
X144638665Y-132245000D01*
X144921335Y-132245000D01*
X145198574Y-132189853D01*
X145459727Y-132081680D01*
X145694759Y-131924637D01*
X145894637Y-131724759D01*
X146050000Y-131492241D01*
X146205363Y-131724759D01*
X146405241Y-131924637D01*
X146640273Y-132081680D01*
X146901426Y-132189853D01*
X147178665Y-132245000D01*
X147461335Y-132245000D01*
X147738574Y-132189853D01*
X147999727Y-132081680D01*
X148234759Y-131924637D01*
X148434637Y-131724759D01*
X148590000Y-131492241D01*
X148745363Y-131724759D01*
X148945241Y-131924637D01*
X149180273Y-132081680D01*
X149441426Y-132189853D01*
X149718665Y-132245000D01*
X150001335Y-132245000D01*
X150278574Y-132189853D01*
X150539727Y-132081680D01*
X150774759Y-131924637D01*
X150974637Y-131724759D01*
X151130000Y-131492241D01*
X151285363Y-131724759D01*
X151485241Y-131924637D01*
X151720273Y-132081680D01*
X151981426Y-132189853D01*
X152258665Y-132245000D01*
X152541335Y-132245000D01*
X152818574Y-132189853D01*
X153079727Y-132081680D01*
X153314759Y-131924637D01*
X153514637Y-131724759D01*
X153670000Y-131492241D01*
X153825363Y-131724759D01*
X154025241Y-131924637D01*
X154260273Y-132081680D01*
X154521426Y-132189853D01*
X154798665Y-132245000D01*
X155081335Y-132245000D01*
X155358574Y-132189853D01*
X155619727Y-132081680D01*
X155854759Y-131924637D01*
X156054637Y-131724759D01*
X156210000Y-131492241D01*
X156365363Y-131724759D01*
X156565241Y-131924637D01*
X156800273Y-132081680D01*
X157061426Y-132189853D01*
X157338665Y-132245000D01*
X157621335Y-132245000D01*
X157898574Y-132189853D01*
X158159727Y-132081680D01*
X158394759Y-131924637D01*
X158594637Y-131724759D01*
X158750000Y-131492241D01*
X158905363Y-131724759D01*
X159105241Y-131924637D01*
X159340273Y-132081680D01*
X159601426Y-132189853D01*
X159878665Y-132245000D01*
X160161335Y-132245000D01*
X160438574Y-132189853D01*
X160699727Y-132081680D01*
X160934759Y-131924637D01*
X161056694Y-131802702D01*
X161746903Y-131802702D01*
X161818486Y-132046671D01*
X162073996Y-132167571D01*
X162348184Y-132236300D01*
X162630512Y-132250217D01*
X162910130Y-132208787D01*
X163176292Y-132113603D01*
X163301514Y-132046671D01*
X163373097Y-131802702D01*
X162560000Y-130989605D01*
X161746903Y-131802702D01*
X161056694Y-131802702D01*
X161134637Y-131724759D01*
X161290915Y-131490872D01*
X161323329Y-131551514D01*
X161567298Y-131623097D01*
X162380395Y-130810000D01*
X161567298Y-129996903D01*
X161323329Y-130068486D01*
X161292806Y-130132992D01*
X161291680Y-130130273D01*
X161134637Y-129895241D01*
X161056694Y-129817298D01*
X161746903Y-129817298D01*
X162560000Y-130630395D01*
X163373097Y-129817298D01*
X163301514Y-129573329D01*
X163046004Y-129452429D01*
X162771816Y-129383700D01*
X162489488Y-129369783D01*
X162209870Y-129411213D01*
X161943708Y-129506397D01*
X161818486Y-129573329D01*
X161746903Y-129817298D01*
X161056694Y-129817298D01*
X160934759Y-129695363D01*
X160699727Y-129538320D01*
X160438574Y-129430147D01*
X160161335Y-129375000D01*
X159878665Y-129375000D01*
X159601426Y-129430147D01*
X159340273Y-129538320D01*
X159105241Y-129695363D01*
X158905363Y-129895241D01*
X158750000Y-130127759D01*
X158594637Y-129895241D01*
X158394759Y-129695363D01*
X158159727Y-129538320D01*
X157898574Y-129430147D01*
X157621335Y-129375000D01*
X157338665Y-129375000D01*
X157061426Y-129430147D01*
X156800273Y-129538320D01*
X156565241Y-129695363D01*
X156365363Y-129895241D01*
X156210000Y-130127759D01*
X156054637Y-129895241D01*
X155854759Y-129695363D01*
X155619727Y-129538320D01*
X155358574Y-129430147D01*
X155081335Y-129375000D01*
X154798665Y-129375000D01*
X154521426Y-129430147D01*
X154260273Y-129538320D01*
X154025241Y-129695363D01*
X153825363Y-129895241D01*
X153670000Y-130127759D01*
X153514637Y-129895241D01*
X153314759Y-129695363D01*
X153079727Y-129538320D01*
X152818574Y-129430147D01*
X152541335Y-129375000D01*
X152258665Y-129375000D01*
X151981426Y-129430147D01*
X151720273Y-129538320D01*
X151485241Y-129695363D01*
X151285363Y-129895241D01*
X151130000Y-130127759D01*
X150974637Y-129895241D01*
X150774759Y-129695363D01*
X150539727Y-129538320D01*
X150278574Y-129430147D01*
X150001335Y-129375000D01*
X149718665Y-129375000D01*
X149441426Y-129430147D01*
X149180273Y-129538320D01*
X148945241Y-129695363D01*
X148745363Y-129895241D01*
X148590000Y-130127759D01*
X148434637Y-129895241D01*
X148234759Y-129695363D01*
X147999727Y-129538320D01*
X147738574Y-129430147D01*
X147461335Y-129375000D01*
X147178665Y-129375000D01*
X146901426Y-129430147D01*
X146640273Y-129538320D01*
X146405241Y-129695363D01*
X146205363Y-129895241D01*
X146050000Y-130127759D01*
X145894637Y-129895241D01*
X145694759Y-129695363D01*
X145459727Y-129538320D01*
X145198574Y-129430147D01*
X144921335Y-129375000D01*
X144638665Y-129375000D01*
X144361426Y-129430147D01*
X144100273Y-129538320D01*
X143865241Y-129695363D01*
X143665363Y-129895241D01*
X143510000Y-130127759D01*
X143354637Y-129895241D01*
X143154759Y-129695363D01*
X142919727Y-129538320D01*
X142658574Y-129430147D01*
X142381335Y-129375000D01*
X142098665Y-129375000D01*
X141821426Y-129430147D01*
X141560273Y-129538320D01*
X141325241Y-129695363D01*
X141125363Y-129895241D01*
X140970000Y-130127759D01*
X140814637Y-129895241D01*
X140614759Y-129695363D01*
X140379727Y-129538320D01*
X140118574Y-129430147D01*
X139841335Y-129375000D01*
X139558665Y-129375000D01*
X139281426Y-129430147D01*
X139020273Y-129538320D01*
X138785241Y-129695363D01*
X138585363Y-129895241D01*
X138430000Y-130127759D01*
X138274637Y-129895241D01*
X138074759Y-129695363D01*
X137839727Y-129538320D01*
X137578574Y-129430147D01*
X137301335Y-129375000D01*
X137018665Y-129375000D01*
X136741426Y-129430147D01*
X136480273Y-129538320D01*
X136245241Y-129695363D01*
X136045363Y-129895241D01*
X135890000Y-130127759D01*
X135734637Y-129895241D01*
X135534759Y-129695363D01*
X135299727Y-129538320D01*
X135038574Y-129430147D01*
X134761335Y-129375000D01*
X134478665Y-129375000D01*
X134201426Y-129430147D01*
X133940273Y-129538320D01*
X133705241Y-129695363D01*
X133505363Y-129895241D01*
X133350000Y-130127759D01*
X133194637Y-129895241D01*
X132994759Y-129695363D01*
X132762241Y-129540000D01*
X132994759Y-129384637D01*
X133194637Y-129184759D01*
X133351680Y-128949727D01*
X133459853Y-128688574D01*
X133515000Y-128411335D01*
X133515000Y-128128665D01*
X133459853Y-127851426D01*
X133351680Y-127590273D01*
X133194637Y-127355241D01*
X132994759Y-127155363D01*
X132762241Y-127000000D01*
X132994759Y-126844637D01*
X133194637Y-126644759D01*
X133351680Y-126409727D01*
X133459853Y-126148574D01*
X133515000Y-125871335D01*
X133515000Y-125588665D01*
X133459853Y-125311426D01*
X133351680Y-125050273D01*
X133194637Y-124815241D01*
X132994759Y-124615363D01*
X132760872Y-124459085D01*
X132821514Y-124426671D01*
X132893097Y-124182702D01*
X132080000Y-123369605D01*
X131266903Y-124182702D01*
X131338486Y-124426671D01*
X131402992Y-124457194D01*
X131400273Y-124458320D01*
X131165241Y-124615363D01*
X130965363Y-124815241D01*
X130808320Y-125050273D01*
X130700147Y-125311426D01*
X130645000Y-125588665D01*
X110660000Y-125588665D01*
X110660000Y-123260512D01*
X130639783Y-123260512D01*
X130681213Y-123540130D01*
X130776397Y-123806292D01*
X130843329Y-123931514D01*
X131087298Y-124003097D01*
X131900395Y-123190000D01*
X132259605Y-123190000D01*
X133072702Y-124003097D01*
X133316671Y-123931514D01*
X133437571Y-123676004D01*
X133506300Y-123401816D01*
X133520217Y-123119488D01*
X133478787Y-122839870D01*
X133383603Y-122573708D01*
X133316671Y-122448486D01*
X133072702Y-122376903D01*
X132259605Y-123190000D01*
X131900395Y-123190000D01*
X131087298Y-122376903D01*
X130843329Y-122448486D01*
X130722429Y-122703996D01*
X130653700Y-122978184D01*
X130639783Y-123260512D01*
X110660000Y-123260512D01*
X110660000Y-99771620D01*
X110681220Y-99771620D01*
X110681220Y-100228380D01*
X110770329Y-100676363D01*
X110945123Y-101098354D01*
X111198886Y-101478136D01*
X111521864Y-101801114D01*
X111901646Y-102054877D01*
X112323637Y-102229671D01*
X112771620Y-102318780D01*
X113228380Y-102318780D01*
X113676363Y-102229671D01*
X114098354Y-102054877D01*
X114478136Y-101801114D01*
X114801114Y-101478136D01*
X115054877Y-101098354D01*
X115229671Y-100676363D01*
X115318780Y-100228380D01*
X115318780Y-99771620D01*
X115229671Y-99323637D01*
X115054877Y-98901646D01*
X114801114Y-98521864D01*
X114478136Y-98198886D01*
X114098354Y-97945123D01*
X113676363Y-97770329D01*
X113228380Y-97681220D01*
X112771620Y-97681220D01*
X112323637Y-97770329D01*
X111901646Y-97945123D01*
X111521864Y-98198886D01*
X111198886Y-98521864D01*
X110945123Y-98901646D01*
X110770329Y-99323637D01*
X110681220Y-99771620D01*
X110660000Y-99771620D01*
X110660000Y-93980000D01*
X126110719Y-93980000D01*
X126115000Y-94023469D01*
X126115001Y-96686514D01*
X126115000Y-96686524D01*
X126115001Y-116796521D01*
X126110719Y-116840000D01*
X126127805Y-117013490D01*
X126178412Y-117180313D01*
X126260590Y-117334059D01*
X126343468Y-117435046D01*
X126343471Y-117435049D01*
X126371184Y-117468817D01*
X126404951Y-117496529D01*
X127674953Y-118766532D01*
X127674958Y-118766536D01*
X128944953Y-120036532D01*
X129045940Y-120119410D01*
X129199686Y-120201588D01*
X129366509Y-120252194D01*
X129511051Y-120266430D01*
X129536013Y-120274002D01*
X129647666Y-120284999D01*
X129647674Y-120284999D01*
X129684999Y-120288675D01*
X129722324Y-120284999D01*
X130689491Y-120284999D01*
X130645000Y-120508665D01*
X130645000Y-120791335D01*
X130700147Y-121068574D01*
X130808320Y-121329727D01*
X130965363Y-121564759D01*
X131165241Y-121764637D01*
X131399128Y-121920915D01*
X131338486Y-121953329D01*
X131266903Y-122197298D01*
X132080000Y-123010395D01*
X132893097Y-122197298D01*
X132821514Y-121953329D01*
X132757008Y-121922806D01*
X132759727Y-121921680D01*
X132994759Y-121764637D01*
X133194637Y-121564759D01*
X133351680Y-121329727D01*
X133459853Y-121068574D01*
X133515000Y-120791335D01*
X133515000Y-120508665D01*
X133470509Y-120284999D01*
X140369464Y-120284999D01*
X140484688Y-120346587D01*
X140651511Y-120397194D01*
X140825001Y-120414280D01*
X140998491Y-120397194D01*
X141165314Y-120346587D01*
X141319060Y-120264409D01*
X141420047Y-120181531D01*
X142835049Y-118766530D01*
X142868817Y-118738817D01*
X142896533Y-118705046D01*
X142979411Y-118604059D01*
X143061588Y-118450314D01*
X143061589Y-118450313D01*
X143112195Y-118283490D01*
X143125000Y-118153477D01*
X143125000Y-118153469D01*
X143129281Y-118110000D01*
X143125000Y-118066531D01*
X143125000Y-116704521D01*
X143154759Y-116684637D01*
X143354637Y-116484759D01*
X143510000Y-116252241D01*
X143665363Y-116484759D01*
X143865241Y-116684637D01*
X144100273Y-116841680D01*
X144361426Y-116949853D01*
X144638665Y-117005000D01*
X144921335Y-117005000D01*
X145198574Y-116949853D01*
X145459727Y-116841680D01*
X145694759Y-116684637D01*
X145894637Y-116484759D01*
X146050000Y-116252241D01*
X146205363Y-116484759D01*
X146405241Y-116684637D01*
X146640273Y-116841680D01*
X146901426Y-116949853D01*
X147178665Y-117005000D01*
X147461335Y-117005000D01*
X147738574Y-116949853D01*
X147999727Y-116841680D01*
X148234759Y-116684637D01*
X148434637Y-116484759D01*
X148590000Y-116252241D01*
X148745363Y-116484759D01*
X148945241Y-116684637D01*
X149180273Y-116841680D01*
X149441426Y-116949853D01*
X149718665Y-117005000D01*
X150001335Y-117005000D01*
X150278574Y-116949853D01*
X150539727Y-116841680D01*
X150774759Y-116684637D01*
X150974637Y-116484759D01*
X151130000Y-116252241D01*
X151285363Y-116484759D01*
X151485241Y-116684637D01*
X151720273Y-116841680D01*
X151981426Y-116949853D01*
X152258665Y-117005000D01*
X152541335Y-117005000D01*
X152818574Y-116949853D01*
X153079727Y-116841680D01*
X153314759Y-116684637D01*
X153514637Y-116484759D01*
X153670000Y-116252241D01*
X153825363Y-116484759D01*
X154025241Y-116684637D01*
X154260273Y-116841680D01*
X154521426Y-116949853D01*
X154798665Y-117005000D01*
X155081335Y-117005000D01*
X155358574Y-116949853D01*
X155619727Y-116841680D01*
X155854759Y-116684637D01*
X156054637Y-116484759D01*
X156210000Y-116252241D01*
X156365363Y-116484759D01*
X156565241Y-116684637D01*
X156800273Y-116841680D01*
X157061426Y-116949853D01*
X157338665Y-117005000D01*
X157621335Y-117005000D01*
X157898574Y-116949853D01*
X158159727Y-116841680D01*
X158394759Y-116684637D01*
X158594637Y-116484759D01*
X158750000Y-116252241D01*
X158905363Y-116484759D01*
X159105241Y-116684637D01*
X159340273Y-116841680D01*
X159601426Y-116949853D01*
X159878665Y-117005000D01*
X160161335Y-117005000D01*
X160438574Y-116949853D01*
X160699727Y-116841680D01*
X160934759Y-116684637D01*
X161134637Y-116484759D01*
X161290000Y-116252241D01*
X161445363Y-116484759D01*
X161645241Y-116684637D01*
X161880273Y-116841680D01*
X162141426Y-116949853D01*
X162418665Y-117005000D01*
X162701335Y-117005000D01*
X162978574Y-116949853D01*
X163239727Y-116841680D01*
X163474759Y-116684637D01*
X163596694Y-116562702D01*
X164286903Y-116562702D01*
X164358486Y-116806671D01*
X164613996Y-116927571D01*
X164888184Y-116996300D01*
X165170512Y-117010217D01*
X165450130Y-116968787D01*
X165716292Y-116873603D01*
X165841514Y-116806671D01*
X165913097Y-116562702D01*
X165100000Y-115749605D01*
X164286903Y-116562702D01*
X163596694Y-116562702D01*
X163674637Y-116484759D01*
X163830915Y-116250872D01*
X163863329Y-116311514D01*
X164107298Y-116383097D01*
X164920395Y-115570000D01*
X164107298Y-114756903D01*
X163863329Y-114828486D01*
X163832806Y-114892992D01*
X163831680Y-114890273D01*
X163674637Y-114655241D01*
X163596694Y-114577298D01*
X164286903Y-114577298D01*
X165100000Y-115390395D01*
X165913097Y-114577298D01*
X165841514Y-114333329D01*
X165586004Y-114212429D01*
X165311816Y-114143700D01*
X165029488Y-114129783D01*
X164749870Y-114171213D01*
X164483708Y-114266397D01*
X164358486Y-114333329D01*
X164286903Y-114577298D01*
X163596694Y-114577298D01*
X163474759Y-114455363D01*
X163239727Y-114298320D01*
X162978574Y-114190147D01*
X162701335Y-114135000D01*
X162418665Y-114135000D01*
X162141426Y-114190147D01*
X161880273Y-114298320D01*
X161645241Y-114455363D01*
X161445363Y-114655241D01*
X161290000Y-114887759D01*
X161134637Y-114655241D01*
X160934759Y-114455363D01*
X160699727Y-114298320D01*
X160438574Y-114190147D01*
X160161335Y-114135000D01*
X159878665Y-114135000D01*
X159601426Y-114190147D01*
X159340273Y-114298320D01*
X159105241Y-114455363D01*
X158905363Y-114655241D01*
X158750000Y-114887759D01*
X158594637Y-114655241D01*
X158394759Y-114455363D01*
X158159727Y-114298320D01*
X157898574Y-114190147D01*
X157621335Y-114135000D01*
X157338665Y-114135000D01*
X157061426Y-114190147D01*
X156800273Y-114298320D01*
X156565241Y-114455363D01*
X156365363Y-114655241D01*
X156210000Y-114887759D01*
X156054637Y-114655241D01*
X155854759Y-114455363D01*
X155619727Y-114298320D01*
X155358574Y-114190147D01*
X155081335Y-114135000D01*
X154798665Y-114135000D01*
X154521426Y-114190147D01*
X154260273Y-114298320D01*
X154025241Y-114455363D01*
X153825363Y-114655241D01*
X153670000Y-114887759D01*
X153514637Y-114655241D01*
X153314759Y-114455363D01*
X153079727Y-114298320D01*
X152818574Y-114190147D01*
X152541335Y-114135000D01*
X152258665Y-114135000D01*
X151981426Y-114190147D01*
X151720273Y-114298320D01*
X151485241Y-114455363D01*
X151285363Y-114655241D01*
X151130000Y-114887759D01*
X150974637Y-114655241D01*
X150774759Y-114455363D01*
X150539727Y-114298320D01*
X150278574Y-114190147D01*
X150001335Y-114135000D01*
X149718665Y-114135000D01*
X149441426Y-114190147D01*
X149180273Y-114298320D01*
X148945241Y-114455363D01*
X148745363Y-114655241D01*
X148590000Y-114887759D01*
X148434637Y-114655241D01*
X148234759Y-114455363D01*
X147999727Y-114298320D01*
X147738574Y-114190147D01*
X147461335Y-114135000D01*
X147178665Y-114135000D01*
X146901426Y-114190147D01*
X146640273Y-114298320D01*
X146405241Y-114455363D01*
X146205363Y-114655241D01*
X146050000Y-114887759D01*
X145894637Y-114655241D01*
X145694759Y-114455363D01*
X145459727Y-114298320D01*
X145198574Y-114190147D01*
X144921335Y-114135000D01*
X144638665Y-114135000D01*
X144361426Y-114190147D01*
X144100273Y-114298320D01*
X144058437Y-114326274D01*
X144059937Y-114324774D01*
X144173205Y-114155256D01*
X144251226Y-113966898D01*
X144262535Y-113910043D01*
X145445051Y-112727528D01*
X145478818Y-112699816D01*
X145589412Y-112565058D01*
X145671590Y-112411312D01*
X145722196Y-112244489D01*
X145735001Y-112114476D01*
X145735001Y-112114468D01*
X145739282Y-112070999D01*
X145735001Y-112027530D01*
X145735001Y-105410000D01*
X161419509Y-105410000D01*
X161441423Y-105632498D01*
X161506324Y-105846446D01*
X161506325Y-105846447D01*
X161611717Y-106043623D01*
X161753552Y-106216449D01*
X161796860Y-106251991D01*
X165606856Y-110061989D01*
X165606867Y-110061998D01*
X166505001Y-110960133D01*
X166505001Y-115261808D01*
X166498787Y-115219870D01*
X166403603Y-114953708D01*
X166336671Y-114828486D01*
X166092702Y-114756903D01*
X165279605Y-115570000D01*
X166092702Y-116383097D01*
X166336671Y-116311514D01*
X166457571Y-116056004D01*
X166505001Y-115866788D01*
X166505000Y-127799868D01*
X164922718Y-129382150D01*
X164681426Y-129430147D01*
X164420273Y-129538320D01*
X164185241Y-129695363D01*
X163985363Y-129895241D01*
X163829085Y-130129128D01*
X163796671Y-130068486D01*
X163552702Y-129996903D01*
X162739605Y-130810000D01*
X163552702Y-131623097D01*
X163796671Y-131551514D01*
X163827194Y-131487008D01*
X163828320Y-131489727D01*
X163985363Y-131724759D01*
X164185241Y-131924637D01*
X164420273Y-132081680D01*
X164681426Y-132189853D01*
X164958665Y-132245000D01*
X165241335Y-132245000D01*
X165518574Y-132189853D01*
X165779727Y-132081680D01*
X166014759Y-131924637D01*
X166214637Y-131724759D01*
X166371680Y-131489727D01*
X166479853Y-131228574D01*
X166527850Y-130987282D01*
X168403141Y-129111991D01*
X168446449Y-129076449D01*
X168588284Y-128903623D01*
X168693676Y-128706447D01*
X168758577Y-128492499D01*
X168775000Y-128325752D01*
X168775000Y-128325743D01*
X168780490Y-128270001D01*
X168775000Y-128214259D01*
X168775000Y-110545743D01*
X168780490Y-110489999D01*
X168775000Y-110434255D01*
X168775000Y-110434248D01*
X168758577Y-110267501D01*
X168693676Y-110053553D01*
X168588284Y-109856377D01*
X168446449Y-109683551D01*
X168403140Y-109648008D01*
X167211998Y-108456867D01*
X167211989Y-108456856D01*
X163695000Y-104939869D01*
X163695000Y-99771620D01*
X164681220Y-99771620D01*
X164681220Y-100228380D01*
X164770329Y-100676363D01*
X164945123Y-101098354D01*
X165198886Y-101478136D01*
X165521864Y-101801114D01*
X165901646Y-102054877D01*
X166323637Y-102229671D01*
X166771620Y-102318780D01*
X167228380Y-102318780D01*
X167676363Y-102229671D01*
X168098354Y-102054877D01*
X168478136Y-101801114D01*
X168801114Y-101478136D01*
X169054877Y-101098354D01*
X169229671Y-100676363D01*
X169318780Y-100228380D01*
X169318780Y-99771620D01*
X169229671Y-99323637D01*
X169054877Y-98901646D01*
X168801114Y-98521864D01*
X168478136Y-98198886D01*
X168098354Y-97945123D01*
X167676363Y-97770329D01*
X167228380Y-97681220D01*
X166771620Y-97681220D01*
X166323637Y-97770329D01*
X165901646Y-97945123D01*
X165521864Y-98198886D01*
X165198886Y-98521864D01*
X164945123Y-98901646D01*
X164770329Y-99323637D01*
X164681220Y-99771620D01*
X163695000Y-99771620D01*
X163695000Y-88844248D01*
X163678577Y-88677501D01*
X163613676Y-88463553D01*
X163508284Y-88266377D01*
X163366449Y-88093551D01*
X163193623Y-87951716D01*
X162996446Y-87846324D01*
X162782498Y-87781423D01*
X162560000Y-87759509D01*
X162337501Y-87781423D01*
X162123553Y-87846324D01*
X161926377Y-87951716D01*
X161753551Y-88093551D01*
X161611716Y-88266377D01*
X161506324Y-88463554D01*
X161441423Y-88677502D01*
X161425000Y-88844249D01*
X161425001Y-105354238D01*
X161419509Y-105410000D01*
X145735001Y-105410000D01*
X145735001Y-102207249D01*
X145820774Y-102149937D01*
X145964937Y-102005774D01*
X146078205Y-101836256D01*
X146156226Y-101647898D01*
X146196000Y-101447939D01*
X146196000Y-101244061D01*
X146156226Y-101044102D01*
X146078205Y-100855744D01*
X145964937Y-100686226D01*
X145820774Y-100542063D01*
X145651256Y-100428795D01*
X145462898Y-100350774D01*
X145262939Y-100311000D01*
X145059061Y-100311000D01*
X144859102Y-100350774D01*
X144670744Y-100428795D01*
X144501226Y-100542063D01*
X144395000Y-100648289D01*
X144395000Y-99103469D01*
X144399281Y-99060000D01*
X144395000Y-99016531D01*
X144395000Y-99016523D01*
X144382195Y-98886510D01*
X144331589Y-98719687D01*
X144307704Y-98675000D01*
X145511546Y-98675000D01*
X145559744Y-98707205D01*
X145748102Y-98785226D01*
X145948061Y-98825000D01*
X146151939Y-98825000D01*
X146351898Y-98785226D01*
X146540256Y-98707205D01*
X146709774Y-98593937D01*
X146853937Y-98449774D01*
X146967205Y-98280256D01*
X147045226Y-98091898D01*
X147085000Y-97891939D01*
X147085000Y-97688061D01*
X147045226Y-97488102D01*
X146967205Y-97299744D01*
X146853937Y-97130226D01*
X146709774Y-96986063D01*
X146540256Y-96872795D01*
X146351898Y-96794774D01*
X146151939Y-96755000D01*
X145948061Y-96755000D01*
X145748102Y-96794774D01*
X145559744Y-96872795D01*
X145511546Y-96905000D01*
X135158454Y-96905000D01*
X135110256Y-96872795D01*
X134921898Y-96794774D01*
X134721939Y-96755000D01*
X134518061Y-96755000D01*
X134318102Y-96794774D01*
X134129744Y-96872795D01*
X133960226Y-96986063D01*
X133816063Y-97130226D01*
X133702795Y-97299744D01*
X133624774Y-97488102D01*
X133585000Y-97688061D01*
X133585000Y-97891939D01*
X133624774Y-98091898D01*
X133702795Y-98280256D01*
X133816063Y-98449774D01*
X133960226Y-98593937D01*
X134129744Y-98707205D01*
X134318102Y-98785226D01*
X134518061Y-98825000D01*
X134721939Y-98825000D01*
X134921898Y-98785226D01*
X135110256Y-98707205D01*
X135158454Y-98675000D01*
X140103421Y-98675000D01*
X139454957Y-99323465D01*
X139398102Y-99334774D01*
X139209744Y-99412795D01*
X139040226Y-99526063D01*
X138896063Y-99670226D01*
X138782795Y-99839744D01*
X138704774Y-100028102D01*
X138665000Y-100228061D01*
X138665000Y-100431939D01*
X138704774Y-100631898D01*
X138739196Y-100715000D01*
X135933469Y-100715000D01*
X135890000Y-100710719D01*
X135846531Y-100715000D01*
X135846523Y-100715000D01*
X135716510Y-100727805D01*
X135549686Y-100778411D01*
X135395941Y-100860589D01*
X135294953Y-100943468D01*
X135294951Y-100943470D01*
X135261183Y-100971183D01*
X135233470Y-101004951D01*
X135004956Y-101233465D01*
X134948102Y-101244774D01*
X134759744Y-101322795D01*
X134590226Y-101436063D01*
X134446063Y-101580226D01*
X134332795Y-101749744D01*
X134254774Y-101938102D01*
X134243465Y-101994956D01*
X128944956Y-107293466D01*
X128911183Y-107321183D01*
X128800589Y-107455942D01*
X128718411Y-107609688D01*
X128667805Y-107776511D01*
X128655000Y-107906524D01*
X128655000Y-107906531D01*
X128650719Y-107950000D01*
X128655000Y-107993469D01*
X128655001Y-113881971D01*
X128622795Y-113930171D01*
X128544774Y-114118529D01*
X128505000Y-114318488D01*
X128505000Y-114522366D01*
X128544774Y-114722325D01*
X128622795Y-114910683D01*
X128736063Y-115080201D01*
X128880226Y-115224364D01*
X129049744Y-115337632D01*
X129238102Y-115415653D01*
X129438061Y-115455427D01*
X129641939Y-115455427D01*
X129841898Y-115415653D01*
X130030256Y-115337632D01*
X130199774Y-115224364D01*
X130343937Y-115080201D01*
X130457205Y-114910683D01*
X130535226Y-114722325D01*
X130575000Y-114522366D01*
X130575000Y-114318488D01*
X130535226Y-114118529D01*
X130457205Y-113930171D01*
X130425000Y-113881973D01*
X130425000Y-108316578D01*
X135495044Y-103246535D01*
X135551898Y-103235226D01*
X135740256Y-103157205D01*
X135909774Y-103043937D01*
X136053937Y-102899774D01*
X136125000Y-102793420D01*
X136125000Y-102971939D01*
X136164774Y-103171898D01*
X136242795Y-103360256D01*
X136356063Y-103529774D01*
X136500226Y-103673937D01*
X136669744Y-103787205D01*
X136858102Y-103865226D01*
X137058061Y-103905000D01*
X137261939Y-103905000D01*
X137461898Y-103865226D01*
X137650256Y-103787205D01*
X137698454Y-103755000D01*
X142196531Y-103755000D01*
X142240000Y-103759281D01*
X142283469Y-103755000D01*
X142283477Y-103755000D01*
X142413490Y-103742195D01*
X142580313Y-103691589D01*
X142734059Y-103609411D01*
X142868817Y-103498817D01*
X142896534Y-103465044D01*
X143965002Y-102396577D01*
X143965001Y-111704420D01*
X143010957Y-112658465D01*
X142954102Y-112669774D01*
X142765744Y-112747795D01*
X142596226Y-112861063D01*
X142452063Y-113005226D01*
X142338795Y-113174744D01*
X142260774Y-113363102D01*
X142221000Y-113563061D01*
X142221000Y-113766939D01*
X142260774Y-113966898D01*
X142330405Y-114135000D01*
X142098665Y-114135000D01*
X141821426Y-114190147D01*
X141560273Y-114298320D01*
X141325241Y-114455363D01*
X141125363Y-114655241D01*
X140970000Y-114887759D01*
X140814637Y-114655241D01*
X140614759Y-114455363D01*
X140585000Y-114435479D01*
X140585000Y-110533465D01*
X140589281Y-110489999D01*
X140585000Y-110446533D01*
X140585000Y-110446523D01*
X140572195Y-110316510D01*
X140521589Y-110149687D01*
X140439411Y-109995941D01*
X140328817Y-109861183D01*
X140295050Y-109833471D01*
X139086532Y-108624954D01*
X139058817Y-108591183D01*
X138924059Y-108480589D01*
X138770313Y-108398411D01*
X138603490Y-108347805D01*
X138473477Y-108335000D01*
X138473469Y-108335000D01*
X138430000Y-108330719D01*
X138386531Y-108335000D01*
X135285000Y-108335000D01*
X135285000Y-108218061D01*
X135245226Y-108018102D01*
X135167205Y-107829744D01*
X135053937Y-107660226D01*
X134909774Y-107516063D01*
X134740256Y-107402795D01*
X134551898Y-107324774D01*
X134351939Y-107285000D01*
X134148061Y-107285000D01*
X133948102Y-107324774D01*
X133759744Y-107402795D01*
X133590226Y-107516063D01*
X133446063Y-107660226D01*
X133332795Y-107829744D01*
X133254774Y-108018102D01*
X133215000Y-108218061D01*
X133215000Y-108421939D01*
X133254774Y-108621898D01*
X133332795Y-108810256D01*
X133360955Y-108852401D01*
X133365000Y-108893469D01*
X133365000Y-108893477D01*
X133377805Y-109023490D01*
X133428411Y-109190313D01*
X133498767Y-109321939D01*
X133510590Y-109344059D01*
X133593468Y-109445046D01*
X133593471Y-109445049D01*
X133621184Y-109478817D01*
X133654952Y-109506530D01*
X133963466Y-109815044D01*
X133991183Y-109848817D01*
X134125941Y-109959411D01*
X134279687Y-110041589D01*
X134446510Y-110092195D01*
X134576523Y-110105000D01*
X134576533Y-110105000D01*
X134619999Y-110109281D01*
X134663466Y-110105000D01*
X138063422Y-110105000D01*
X138815000Y-110856579D01*
X138815001Y-114435478D01*
X138785241Y-114455363D01*
X138585363Y-114655241D01*
X138430000Y-114887759D01*
X138274637Y-114655241D01*
X138074759Y-114455363D01*
X137839727Y-114298320D01*
X137578574Y-114190147D01*
X137301335Y-114135000D01*
X137018665Y-114135000D01*
X136741426Y-114190147D01*
X136480273Y-114298320D01*
X136245241Y-114455363D01*
X136045363Y-114655241D01*
X135890000Y-114887759D01*
X135734637Y-114655241D01*
X135534759Y-114455363D01*
X135299727Y-114298320D01*
X135038574Y-114190147D01*
X134761335Y-114135000D01*
X134478665Y-114135000D01*
X134443561Y-114141983D01*
X132965000Y-112663422D01*
X132965000Y-109758454D01*
X132997205Y-109710256D01*
X133075226Y-109521898D01*
X133115000Y-109321939D01*
X133115000Y-109118061D01*
X133075226Y-108918102D01*
X132997205Y-108729744D01*
X132883937Y-108560226D01*
X132739774Y-108416063D01*
X132570256Y-108302795D01*
X132381898Y-108224774D01*
X132181939Y-108185000D01*
X131978061Y-108185000D01*
X131778102Y-108224774D01*
X131589744Y-108302795D01*
X131420226Y-108416063D01*
X131276063Y-108560226D01*
X131162795Y-108729744D01*
X131084774Y-108918102D01*
X131045000Y-109118061D01*
X131045000Y-109321939D01*
X131084774Y-109521898D01*
X131162795Y-109710256D01*
X131195000Y-109758455D01*
X131195001Y-112986521D01*
X131190719Y-113030000D01*
X131207805Y-113203490D01*
X131258412Y-113370313D01*
X131340590Y-113524059D01*
X131423468Y-113625046D01*
X131423471Y-113625049D01*
X131451184Y-113658817D01*
X131484951Y-113686529D01*
X131934292Y-114135870D01*
X131661426Y-114190147D01*
X131400273Y-114298320D01*
X131165241Y-114455363D01*
X130965363Y-114655241D01*
X130808320Y-114890273D01*
X130700147Y-115151426D01*
X130645000Y-115428665D01*
X130645000Y-115711335D01*
X130700147Y-115988574D01*
X130808320Y-116249727D01*
X130965363Y-116484759D01*
X131165241Y-116684637D01*
X131397759Y-116840000D01*
X131165241Y-116995363D01*
X130965363Y-117195241D01*
X130808320Y-117430273D01*
X130700147Y-117691426D01*
X130645000Y-117968665D01*
X130645000Y-118251335D01*
X130700147Y-118528574D01*
X130798077Y-118764999D01*
X130176578Y-118764999D01*
X128926536Y-117514958D01*
X128926532Y-117514953D01*
X127885000Y-116473422D01*
X127885000Y-94346578D01*
X129785044Y-92446535D01*
X129841898Y-92435226D01*
X130030256Y-92357205D01*
X130199774Y-92243937D01*
X130343937Y-92099774D01*
X130457205Y-91930256D01*
X130535226Y-91741898D01*
X130575000Y-91541939D01*
X130575000Y-91338061D01*
X130535226Y-91138102D01*
X130457205Y-90949744D01*
X130343937Y-90780226D01*
X130199774Y-90636063D01*
X130030256Y-90522795D01*
X129841898Y-90444774D01*
X129641939Y-90405000D01*
X129438061Y-90405000D01*
X129238102Y-90444774D01*
X129049744Y-90522795D01*
X128880226Y-90636063D01*
X128736063Y-90780226D01*
X128622795Y-90949744D01*
X128544774Y-91138102D01*
X128533465Y-91194956D01*
X126404956Y-93323466D01*
X126371183Y-93351183D01*
X126260589Y-93485942D01*
X126178411Y-93639688D01*
X126127805Y-93806511D01*
X126115000Y-93936524D01*
X126115000Y-93936531D01*
X126110719Y-93980000D01*
X110660000Y-93980000D01*
X110660000Y-63032279D01*
X110681220Y-62815863D01*
X110681220Y-63228380D01*
X110770329Y-63676363D01*
X110945123Y-64098354D01*
X111198886Y-64478136D01*
X111521864Y-64801114D01*
X111901646Y-65054877D01*
X112323637Y-65229671D01*
X112771620Y-65318780D01*
X113228380Y-65318780D01*
X113676363Y-65229671D01*
X114098354Y-65054877D01*
X114478136Y-64801114D01*
X114801114Y-64478136D01*
X115054877Y-64098354D01*
X115229671Y-63676363D01*
X115318780Y-63228380D01*
X115318780Y-62771620D01*
X115229671Y-62323637D01*
X115054877Y-61901646D01*
X114801114Y-61521864D01*
X114478136Y-61198886D01*
X114098354Y-60945123D01*
X113676363Y-60770329D01*
X113228380Y-60681220D01*
X112812445Y-60681220D01*
X113014344Y-60660000D01*
X166967721Y-60660000D01*
X167184137Y-60681220D01*
G37*
%TD.AperFunction*%
%TD*%
M02*
