%TF.GenerationSoftware,KiCad,Pcbnew,(5.1.9)-1*%
%TF.CreationDate,2021-08-06T16:10:44+09:00*%
%TF.ProjectId,IMU_USB_ver2,494d555f-5553-4425-9f76-6572322e6b69,rev?*%
%TF.SameCoordinates,Original*%
%TF.FileFunction,Legend,Top*%
%TF.FilePolarity,Positive*%
%FSLAX46Y46*%
G04 Gerber Fmt 4.6, Leading zero omitted, Abs format (unit mm)*
G04 Created by KiCad (PCBNEW (5.1.9)-1) date 2021-08-06 16:10:44*
%MOMM*%
%LPD*%
G01*
G04 APERTURE LIST*
%ADD10C,0.150000*%
%ADD11C,0.120000*%
%ADD12C,0.010000*%
%ADD13C,0.100000*%
G04 APERTURE END LIST*
D10*
X161404761Y-112047619D02*
X161452380Y-111904761D01*
X161452380Y-111666666D01*
X161404761Y-111571428D01*
X161357142Y-111523809D01*
X161261904Y-111476190D01*
X161166666Y-111476190D01*
X161071428Y-111523809D01*
X161023809Y-111571428D01*
X160976190Y-111666666D01*
X160928571Y-111857142D01*
X160880952Y-111952380D01*
X160833333Y-112000000D01*
X160738095Y-112047619D01*
X160642857Y-112047619D01*
X160547619Y-112000000D01*
X160500000Y-111952380D01*
X160452380Y-111857142D01*
X160452380Y-111619047D01*
X160500000Y-111476190D01*
X161452380Y-111047619D02*
X160452380Y-111047619D01*
X160928571Y-111047619D02*
X160928571Y-110476190D01*
X161452380Y-110476190D02*
X160452380Y-110476190D01*
X161452380Y-110000000D02*
X160452380Y-110000000D01*
X161452380Y-109523809D02*
X160452380Y-109523809D01*
X161166666Y-109190476D01*
X160452380Y-108857142D01*
X161452380Y-108857142D01*
X161452380Y-108380952D02*
X160452380Y-108380952D01*
X160452380Y-108000000D02*
X160452380Y-107333333D01*
X161452380Y-108000000D01*
X161452380Y-107333333D01*
X160452380Y-106952380D02*
X161261904Y-106952380D01*
X161357142Y-106904761D01*
X161404761Y-106857142D01*
X161452380Y-106761904D01*
X161452380Y-106571428D01*
X161404761Y-106476190D01*
X161357142Y-106428571D01*
X161261904Y-106380952D01*
X160452380Y-106380952D01*
X161071428Y-105904761D02*
X161071428Y-105142857D01*
X161452380Y-104666666D02*
X160452380Y-104666666D01*
X161452380Y-104190476D02*
X160452380Y-104190476D01*
X161166666Y-103857142D01*
X160452380Y-103523809D01*
X161452380Y-103523809D01*
X160452380Y-103047619D02*
X161261904Y-103047619D01*
X161357142Y-103000000D01*
X161404761Y-102952380D01*
X161452380Y-102857142D01*
X161452380Y-102666666D01*
X161404761Y-102571428D01*
X161357142Y-102523809D01*
X161261904Y-102476190D01*
X160452380Y-102476190D01*
X161547619Y-102238095D02*
X161547619Y-101476190D01*
X160928571Y-100904761D02*
X160976190Y-100761904D01*
X161023809Y-100714285D01*
X161119047Y-100666666D01*
X161261904Y-100666666D01*
X161357142Y-100714285D01*
X161404761Y-100761904D01*
X161452380Y-100857142D01*
X161452380Y-101238095D01*
X160452380Y-101238095D01*
X160452380Y-100904761D01*
X160500000Y-100809523D01*
X160547619Y-100761904D01*
X160642857Y-100714285D01*
X160738095Y-100714285D01*
X160833333Y-100761904D01*
X160880952Y-100809523D01*
X160928571Y-100904761D01*
X160928571Y-101238095D01*
X161452380Y-100095238D02*
X161404761Y-100190476D01*
X161357142Y-100238095D01*
X161261904Y-100285714D01*
X160976190Y-100285714D01*
X160880952Y-100238095D01*
X160833333Y-100190476D01*
X160785714Y-100095238D01*
X160785714Y-99952380D01*
X160833333Y-99857142D01*
X160880952Y-99809523D01*
X160976190Y-99761904D01*
X161261904Y-99761904D01*
X161357142Y-99809523D01*
X161404761Y-99857142D01*
X161452380Y-99952380D01*
X161452380Y-100095238D01*
X161452380Y-98904761D02*
X160928571Y-98904761D01*
X160833333Y-98952380D01*
X160785714Y-99047619D01*
X160785714Y-99238095D01*
X160833333Y-99333333D01*
X161404761Y-98904761D02*
X161452380Y-99000000D01*
X161452380Y-99238095D01*
X161404761Y-99333333D01*
X161309523Y-99380952D01*
X161214285Y-99380952D01*
X161119047Y-99333333D01*
X161071428Y-99238095D01*
X161071428Y-99000000D01*
X161023809Y-98904761D01*
X161452380Y-98428571D02*
X160785714Y-98428571D01*
X160976190Y-98428571D02*
X160880952Y-98380952D01*
X160833333Y-98333333D01*
X160785714Y-98238095D01*
X160785714Y-98142857D01*
X161452380Y-97380952D02*
X160452380Y-97380952D01*
X161404761Y-97380952D02*
X161452380Y-97476190D01*
X161452380Y-97666666D01*
X161404761Y-97761904D01*
X161357142Y-97809523D01*
X161261904Y-97857142D01*
X160976190Y-97857142D01*
X160880952Y-97809523D01*
X160833333Y-97761904D01*
X160785714Y-97666666D01*
X160785714Y-97476190D01*
X160833333Y-97380952D01*
X160785714Y-96238095D02*
X161452380Y-96000000D01*
X160785714Y-95761904D01*
X161404761Y-95000000D02*
X161452380Y-95095238D01*
X161452380Y-95285714D01*
X161404761Y-95380952D01*
X161309523Y-95428571D01*
X160928571Y-95428571D01*
X160833333Y-95380952D01*
X160785714Y-95285714D01*
X160785714Y-95095238D01*
X160833333Y-95000000D01*
X160928571Y-94952380D01*
X161023809Y-94952380D01*
X161119047Y-95428571D01*
X161452380Y-94523809D02*
X160785714Y-94523809D01*
X160976190Y-94523809D02*
X160880952Y-94476190D01*
X160833333Y-94428571D01*
X160785714Y-94333333D01*
X160785714Y-94238095D01*
X160547619Y-93952380D02*
X160500000Y-93904761D01*
X160452380Y-93809523D01*
X160452380Y-93571428D01*
X160500000Y-93476190D01*
X160547619Y-93428571D01*
X160642857Y-93380952D01*
X160738095Y-93380952D01*
X160880952Y-93428571D01*
X161452380Y-94000000D01*
X161452380Y-93380952D01*
X161357142Y-92952380D02*
X161404761Y-92904761D01*
X161452380Y-92952380D01*
X161404761Y-93000000D01*
X161357142Y-92952380D01*
X161452380Y-92952380D01*
X160452380Y-92285714D02*
X160452380Y-92190476D01*
X160500000Y-92095238D01*
X160547619Y-92047619D01*
X160642857Y-92000000D01*
X160833333Y-91952380D01*
X161071428Y-91952380D01*
X161261904Y-92000000D01*
X161357142Y-92047619D01*
X161404761Y-92095238D01*
X161452380Y-92190476D01*
X161452380Y-92285714D01*
X161404761Y-92380952D01*
X161357142Y-92428571D01*
X161261904Y-92476190D01*
X161071428Y-92523809D01*
X160833333Y-92523809D01*
X160642857Y-92476190D01*
X160547619Y-92428571D01*
X160500000Y-92380952D01*
X160452380Y-92285714D01*
D11*
%TO.C,U3*%
X155079000Y-100391000D02*
X154579000Y-100041000D01*
X152680920Y-100391000D02*
X155079000Y-100391000D01*
X152079000Y-100391000D02*
G75*
G03*
X152079000Y-100391000I-50000J0D01*
G01*
X152179001Y-100391000D02*
G75*
G03*
X152179001Y-100391000I-158114J0D01*
G01*
X152298258Y-100391000D02*
G75*
G03*
X152298258Y-100391000I-269258J0D01*
G01*
X152680920Y-100391000D02*
G75*
G03*
X152680920Y-100391000I-651920J0D01*
G01*
X148089000Y-104191000D02*
X132189000Y-104191000D01*
X148089000Y-96591000D02*
X148089000Y-104191000D01*
X131389000Y-96591000D02*
X148089000Y-96591000D01*
X131389000Y-103391000D02*
X131389000Y-96591000D01*
X132189000Y-104191000D02*
X131389000Y-103391000D01*
X155079000Y-100391000D02*
X154579000Y-100741000D01*
X152029000Y-99739080D02*
X152029000Y-97841000D01*
X152029000Y-97341000D02*
X152029000Y-97841000D01*
X152029000Y-97341000D02*
X152379000Y-97841000D01*
X152029000Y-97341000D02*
X151679000Y-97841000D01*
X151529000Y-97141000D02*
X152529000Y-96141000D01*
X151529000Y-96141000D02*
X152529000Y-97141000D01*
X155279000Y-100891000D02*
X155779000Y-100391000D01*
X155779000Y-100391000D02*
X155279000Y-99891000D01*
X155779000Y-100391000D02*
X156279000Y-100391000D01*
%TO.C,L1*%
X136922742Y-71867500D02*
X137397258Y-71867500D01*
X136922742Y-72912500D02*
X137397258Y-72912500D01*
D12*
%TO.C,G\u002A\u002A\u002A*%
G36*
X124384265Y-103446559D02*
G01*
X124414202Y-103432710D01*
X124461638Y-103361435D01*
X124397753Y-103220261D01*
X124338488Y-102998387D01*
X124397925Y-102781345D01*
X124549302Y-102629344D01*
X124676018Y-102594250D01*
X125005294Y-102600754D01*
X125231746Y-102671418D01*
X125373798Y-102779831D01*
X125483200Y-102920956D01*
X125484861Y-103074290D01*
X125444653Y-103196483D01*
X125348709Y-103450666D01*
X125680021Y-103450666D01*
X125889362Y-103469834D01*
X126003970Y-103517596D01*
X126011334Y-103535333D01*
X125930838Y-103574665D01*
X125705617Y-103603102D01*
X125360064Y-103618203D01*
X125164667Y-103620000D01*
X124972834Y-103616108D01*
X124972834Y-103450666D01*
X125187661Y-103386164D01*
X125310740Y-103228891D01*
X125331690Y-103033198D01*
X125240130Y-102853436D01*
X125103567Y-102766198D01*
X124833556Y-102724258D01*
X124618041Y-102800408D01*
X124498758Y-102974418D01*
X124487334Y-103064872D01*
X124562631Y-103277067D01*
X124761888Y-103415016D01*
X124972834Y-103450666D01*
X124972834Y-103616108D01*
X124809274Y-103612788D01*
X124527338Y-103593342D01*
X124354691Y-103564946D01*
X124318000Y-103542389D01*
X124384265Y-103446559D01*
G37*
X124384265Y-103446559D02*
X124414202Y-103432710D01*
X124461638Y-103361435D01*
X124397753Y-103220261D01*
X124338488Y-102998387D01*
X124397925Y-102781345D01*
X124549302Y-102629344D01*
X124676018Y-102594250D01*
X125005294Y-102600754D01*
X125231746Y-102671418D01*
X125373798Y-102779831D01*
X125483200Y-102920956D01*
X125484861Y-103074290D01*
X125444653Y-103196483D01*
X125348709Y-103450666D01*
X125680021Y-103450666D01*
X125889362Y-103469834D01*
X126003970Y-103517596D01*
X126011334Y-103535333D01*
X125930838Y-103574665D01*
X125705617Y-103603102D01*
X125360064Y-103618203D01*
X125164667Y-103620000D01*
X124972834Y-103616108D01*
X124972834Y-103450666D01*
X125187661Y-103386164D01*
X125310740Y-103228891D01*
X125331690Y-103033198D01*
X125240130Y-102853436D01*
X125103567Y-102766198D01*
X124833556Y-102724258D01*
X124618041Y-102800408D01*
X124498758Y-102974418D01*
X124487334Y-103064872D01*
X124562631Y-103277067D01*
X124761888Y-103415016D01*
X124972834Y-103450666D01*
X124972834Y-103616108D01*
X124809274Y-103612788D01*
X124527338Y-103593342D01*
X124354691Y-103564946D01*
X124318000Y-103542389D01*
X124384265Y-103446559D01*
G36*
X124330019Y-74052913D02*
G01*
X124419600Y-73918933D01*
X124478505Y-73835038D01*
X124419600Y-73817333D01*
X124324311Y-73761970D01*
X124318000Y-73732666D01*
X124396668Y-73689801D01*
X124609081Y-73659992D01*
X124919852Y-73648044D01*
X124941582Y-73648000D01*
X125300146Y-73658223D01*
X125540998Y-73695907D01*
X125714908Y-73771574D01*
X125788249Y-73823478D01*
X125967177Y-74063234D01*
X126004885Y-74365274D01*
X125955260Y-74558166D01*
X125884876Y-74665147D01*
X125834779Y-74625805D01*
X125819246Y-74463044D01*
X125827601Y-74353359D01*
X125826458Y-74104735D01*
X125738725Y-73953354D01*
X125709751Y-73930025D01*
X125521205Y-73826486D01*
X125404948Y-73826395D01*
X125390928Y-73924552D01*
X125415688Y-73981100D01*
X125494284Y-74256551D01*
X125422250Y-74475681D01*
X125214421Y-74618141D01*
X124987822Y-74653167D01*
X124987822Y-74547096D01*
X125199525Y-74476910D01*
X125311902Y-74307863D01*
X125318388Y-74178009D01*
X125233083Y-73971044D01*
X125054366Y-73864476D01*
X124783869Y-73833645D01*
X124593307Y-73946039D01*
X124502880Y-74185665D01*
X124518216Y-74364832D01*
X124648578Y-74473154D01*
X124712147Y-74499665D01*
X124987822Y-74547096D01*
X124987822Y-74653167D01*
X124917741Y-74664000D01*
X124636160Y-74607574D01*
X124428092Y-74462606D01*
X124317918Y-74265564D01*
X124330019Y-74052913D01*
G37*
X124330019Y-74052913D02*
X124419600Y-73918933D01*
X124478505Y-73835038D01*
X124419600Y-73817333D01*
X124324311Y-73761970D01*
X124318000Y-73732666D01*
X124396668Y-73689801D01*
X124609081Y-73659992D01*
X124919852Y-73648044D01*
X124941582Y-73648000D01*
X125300146Y-73658223D01*
X125540998Y-73695907D01*
X125714908Y-73771574D01*
X125788249Y-73823478D01*
X125967177Y-74063234D01*
X126004885Y-74365274D01*
X125955260Y-74558166D01*
X125884876Y-74665147D01*
X125834779Y-74625805D01*
X125819246Y-74463044D01*
X125827601Y-74353359D01*
X125826458Y-74104735D01*
X125738725Y-73953354D01*
X125709751Y-73930025D01*
X125521205Y-73826486D01*
X125404948Y-73826395D01*
X125390928Y-73924552D01*
X125415688Y-73981100D01*
X125494284Y-74256551D01*
X125422250Y-74475681D01*
X125214421Y-74618141D01*
X124987822Y-74653167D01*
X124987822Y-74547096D01*
X125199525Y-74476910D01*
X125311902Y-74307863D01*
X125318388Y-74178009D01*
X125233083Y-73971044D01*
X125054366Y-73864476D01*
X124783869Y-73833645D01*
X124593307Y-73946039D01*
X124502880Y-74185665D01*
X124518216Y-74364832D01*
X124648578Y-74473154D01*
X124712147Y-74499665D01*
X124987822Y-74547096D01*
X124987822Y-74653167D01*
X124917741Y-74664000D01*
X124636160Y-74607574D01*
X124428092Y-74462606D01*
X124317918Y-74265564D01*
X124330019Y-74052913D01*
G36*
X124330019Y-65840247D02*
G01*
X124419600Y-65706266D01*
X124478505Y-65622372D01*
X124419600Y-65604666D01*
X124324311Y-65549303D01*
X124318000Y-65520000D01*
X124396668Y-65477134D01*
X124609081Y-65447325D01*
X124919852Y-65435377D01*
X124941582Y-65435333D01*
X125300146Y-65445556D01*
X125540998Y-65483240D01*
X125714908Y-65558908D01*
X125788249Y-65610812D01*
X125967177Y-65850568D01*
X126004885Y-66152607D01*
X125955260Y-66345500D01*
X125884876Y-66452480D01*
X125834779Y-66413138D01*
X125819246Y-66250377D01*
X125827601Y-66140692D01*
X125826458Y-65892068D01*
X125738725Y-65740687D01*
X125709751Y-65717359D01*
X125521205Y-65613819D01*
X125404948Y-65613728D01*
X125390928Y-65711885D01*
X125415688Y-65768434D01*
X125494284Y-66043884D01*
X125422250Y-66263014D01*
X125214421Y-66405475D01*
X124987822Y-66440500D01*
X124987822Y-66334430D01*
X125199525Y-66264243D01*
X125311902Y-66095197D01*
X125318388Y-65965342D01*
X125233083Y-65758378D01*
X125054366Y-65651809D01*
X124783869Y-65620978D01*
X124593307Y-65733373D01*
X124502880Y-65972998D01*
X124518216Y-66152165D01*
X124648578Y-66260487D01*
X124712147Y-66286998D01*
X124987822Y-66334430D01*
X124987822Y-66440500D01*
X124917741Y-66451333D01*
X124636160Y-66394907D01*
X124428092Y-66249939D01*
X124317918Y-66052897D01*
X124330019Y-65840247D01*
G37*
X124330019Y-65840247D02*
X124419600Y-65706266D01*
X124478505Y-65622372D01*
X124419600Y-65604666D01*
X124324311Y-65549303D01*
X124318000Y-65520000D01*
X124396668Y-65477134D01*
X124609081Y-65447325D01*
X124919852Y-65435377D01*
X124941582Y-65435333D01*
X125300146Y-65445556D01*
X125540998Y-65483240D01*
X125714908Y-65558908D01*
X125788249Y-65610812D01*
X125967177Y-65850568D01*
X126004885Y-66152607D01*
X125955260Y-66345500D01*
X125884876Y-66452480D01*
X125834779Y-66413138D01*
X125819246Y-66250377D01*
X125827601Y-66140692D01*
X125826458Y-65892068D01*
X125738725Y-65740687D01*
X125709751Y-65717359D01*
X125521205Y-65613819D01*
X125404948Y-65613728D01*
X125390928Y-65711885D01*
X125415688Y-65768434D01*
X125494284Y-66043884D01*
X125422250Y-66263014D01*
X125214421Y-66405475D01*
X124987822Y-66440500D01*
X124987822Y-66334430D01*
X125199525Y-66264243D01*
X125311902Y-66095197D01*
X125318388Y-65965342D01*
X125233083Y-65758378D01*
X125054366Y-65651809D01*
X124783869Y-65620978D01*
X124593307Y-65733373D01*
X124502880Y-65972998D01*
X124518216Y-66152165D01*
X124648578Y-66260487D01*
X124712147Y-66286998D01*
X124987822Y-66334430D01*
X124987822Y-66440500D01*
X124917741Y-66451333D01*
X124636160Y-66394907D01*
X124428092Y-66249939D01*
X124317918Y-66052897D01*
X124330019Y-65840247D01*
G36*
X122294036Y-111267027D02*
G01*
X122636193Y-110674007D01*
X122950532Y-110129440D01*
X123227284Y-109650230D01*
X123456681Y-109253283D01*
X123628953Y-108955506D01*
X123734331Y-108773803D01*
X123763946Y-108723315D01*
X123843376Y-108747141D01*
X124033131Y-108844868D01*
X124302061Y-108997354D01*
X124619013Y-109185452D01*
X124952835Y-109390020D01*
X125272374Y-109591911D01*
X125546480Y-109771982D01*
X125743999Y-109911088D01*
X125833780Y-109990085D01*
X125836086Y-109996751D01*
X125792868Y-110091090D01*
X125672860Y-110313093D01*
X125486170Y-110645092D01*
X125242905Y-111069415D01*
X124953174Y-111568394D01*
X124627086Y-112124357D01*
X124375586Y-112549812D01*
X122921000Y-115002623D01*
X122032000Y-115400773D01*
X121675984Y-115558862D01*
X121378470Y-115688421D01*
X121172281Y-115775326D01*
X121091490Y-115805461D01*
X121063710Y-115729197D01*
X121025891Y-115516606D01*
X120982954Y-115200030D01*
X120939819Y-114811813D01*
X120938820Y-114801860D01*
X120837660Y-113791721D01*
X122294036Y-111267027D01*
G37*
X122294036Y-111267027D02*
X122636193Y-110674007D01*
X122950532Y-110129440D01*
X123227284Y-109650230D01*
X123456681Y-109253283D01*
X123628953Y-108955506D01*
X123734331Y-108773803D01*
X123763946Y-108723315D01*
X123843376Y-108747141D01*
X124033131Y-108844868D01*
X124302061Y-108997354D01*
X124619013Y-109185452D01*
X124952835Y-109390020D01*
X125272374Y-109591911D01*
X125546480Y-109771982D01*
X125743999Y-109911088D01*
X125833780Y-109990085D01*
X125836086Y-109996751D01*
X125792868Y-110091090D01*
X125672860Y-110313093D01*
X125486170Y-110645092D01*
X125242905Y-111069415D01*
X124953174Y-111568394D01*
X124627086Y-112124357D01*
X124375586Y-112549812D01*
X122921000Y-115002623D01*
X122032000Y-115400773D01*
X121675984Y-115558862D01*
X121378470Y-115688421D01*
X121172281Y-115775326D01*
X121091490Y-115805461D01*
X121063710Y-115729197D01*
X121025891Y-115516606D01*
X120982954Y-115200030D01*
X120939819Y-114811813D01*
X120938820Y-114801860D01*
X120837660Y-113791721D01*
X122294036Y-111267027D01*
G36*
X123960340Y-105569092D02*
G01*
X124142759Y-105284740D01*
X124420024Y-105123348D01*
X124770234Y-105101572D01*
X124962997Y-105147299D01*
X125251271Y-105326019D01*
X125436362Y-105624861D01*
X125503302Y-106019408D01*
X125503334Y-106028795D01*
X125503334Y-106329333D01*
X124064000Y-106329333D01*
X124064000Y-106160000D01*
X125334000Y-106160000D01*
X125334000Y-105915380D01*
X125279716Y-105664383D01*
X125175575Y-105475113D01*
X124945733Y-105303627D01*
X124678694Y-105264751D01*
X124416919Y-105341667D01*
X124202869Y-105517558D01*
X124079004Y-105775605D01*
X124064000Y-105915380D01*
X124064000Y-106160000D01*
X124064000Y-106329333D01*
X123894667Y-106329333D01*
X123894667Y-105959751D01*
X123960340Y-105569092D01*
G37*
X123960340Y-105569092D02*
X124142759Y-105284740D01*
X124420024Y-105123348D01*
X124770234Y-105101572D01*
X124962997Y-105147299D01*
X125251271Y-105326019D01*
X125436362Y-105624861D01*
X125503302Y-106019408D01*
X125503334Y-106028795D01*
X125503334Y-106329333D01*
X124064000Y-106329333D01*
X124064000Y-106160000D01*
X125334000Y-106160000D01*
X125334000Y-105915380D01*
X125279716Y-105664383D01*
X125175575Y-105475113D01*
X124945733Y-105303627D01*
X124678694Y-105264751D01*
X124416919Y-105341667D01*
X124202869Y-105517558D01*
X124079004Y-105775605D01*
X124064000Y-105915380D01*
X124064000Y-106160000D01*
X124064000Y-106329333D01*
X123894667Y-106329333D01*
X123894667Y-105959751D01*
X123960340Y-105569092D01*
G36*
X124359115Y-104176401D02*
G01*
X124506172Y-104005801D01*
X124743460Y-103875612D01*
X124896194Y-103886808D01*
X124976045Y-104046417D01*
X124995334Y-104300312D01*
X125000458Y-104548507D01*
X125027027Y-104660729D01*
X125091839Y-104670276D01*
X125164667Y-104636000D01*
X125291816Y-104502369D01*
X125334907Y-104259862D01*
X125335297Y-104230854D01*
X125346735Y-104039809D01*
X125383365Y-104001706D01*
X125418667Y-104043333D01*
X125497552Y-104295082D01*
X125451983Y-104552279D01*
X125370286Y-104672286D01*
X125164333Y-104776990D01*
X124888157Y-104802907D01*
X124677834Y-104762889D01*
X124677834Y-104619882D01*
X124777931Y-104606115D01*
X124820105Y-104487132D01*
X124826000Y-104339666D01*
X124810143Y-104134138D01*
X124749146Y-104058001D01*
X124677834Y-104059451D01*
X124559866Y-104154167D01*
X124529667Y-104339666D01*
X124572052Y-104548213D01*
X124677834Y-104619882D01*
X124677834Y-104762889D01*
X124620115Y-104751906D01*
X124458122Y-104650500D01*
X124332233Y-104412305D01*
X124359115Y-104176401D01*
G37*
X124359115Y-104176401D02*
X124506172Y-104005801D01*
X124743460Y-103875612D01*
X124896194Y-103886808D01*
X124976045Y-104046417D01*
X124995334Y-104300312D01*
X125000458Y-104548507D01*
X125027027Y-104660729D01*
X125091839Y-104670276D01*
X125164667Y-104636000D01*
X125291816Y-104502369D01*
X125334907Y-104259862D01*
X125335297Y-104230854D01*
X125346735Y-104039809D01*
X125383365Y-104001706D01*
X125418667Y-104043333D01*
X125497552Y-104295082D01*
X125451983Y-104552279D01*
X125370286Y-104672286D01*
X125164333Y-104776990D01*
X124888157Y-104802907D01*
X124677834Y-104762889D01*
X124677834Y-104619882D01*
X124777931Y-104606115D01*
X124820105Y-104487132D01*
X124826000Y-104339666D01*
X124810143Y-104134138D01*
X124749146Y-104058001D01*
X124677834Y-104059451D01*
X124559866Y-104154167D01*
X124529667Y-104339666D01*
X124572052Y-104548213D01*
X124677834Y-104619882D01*
X124677834Y-104762889D01*
X124620115Y-104751906D01*
X124458122Y-104650500D01*
X124332233Y-104412305D01*
X124359115Y-104176401D01*
G36*
X124378405Y-101603847D02*
G01*
X124481767Y-101506312D01*
X124651674Y-101455201D01*
X124891753Y-101426947D01*
X125147816Y-101421709D01*
X125365676Y-101439644D01*
X125491145Y-101480910D01*
X125503334Y-101503333D01*
X125436898Y-101582741D01*
X125401734Y-101588000D01*
X125342829Y-101612990D01*
X125401734Y-101689600D01*
X125495198Y-101882129D01*
X125473152Y-102098345D01*
X125344900Y-102259157D01*
X125334000Y-102265333D01*
X125212100Y-102288855D01*
X125212100Y-102155196D01*
X125245625Y-102140625D01*
X125325512Y-102006329D01*
X125309918Y-101818832D01*
X125232400Y-101689600D01*
X125068230Y-101592771D01*
X124948628Y-101641683D01*
X124910667Y-101789300D01*
X124959395Y-101984269D01*
X125075107Y-102122214D01*
X125212100Y-102155196D01*
X125212100Y-102288855D01*
X125112297Y-102308114D01*
X124928083Y-102199268D01*
X124805779Y-101955997D01*
X124788663Y-101881191D01*
X124715492Y-101669526D01*
X124624225Y-101617754D01*
X124542526Y-101722733D01*
X124503016Y-101913627D01*
X124457454Y-102094724D01*
X124391849Y-102125769D01*
X124335885Y-102018577D01*
X124318000Y-101839982D01*
X124378405Y-101603847D01*
G37*
X124378405Y-101603847D02*
X124481767Y-101506312D01*
X124651674Y-101455201D01*
X124891753Y-101426947D01*
X125147816Y-101421709D01*
X125365676Y-101439644D01*
X125491145Y-101480910D01*
X125503334Y-101503333D01*
X125436898Y-101582741D01*
X125401734Y-101588000D01*
X125342829Y-101612990D01*
X125401734Y-101689600D01*
X125495198Y-101882129D01*
X125473152Y-102098345D01*
X125344900Y-102259157D01*
X125334000Y-102265333D01*
X125212100Y-102288855D01*
X125212100Y-102155196D01*
X125245625Y-102140625D01*
X125325512Y-102006329D01*
X125309918Y-101818832D01*
X125232400Y-101689600D01*
X125068230Y-101592771D01*
X124948628Y-101641683D01*
X124910667Y-101789300D01*
X124959395Y-101984269D01*
X125075107Y-102122214D01*
X125212100Y-102155196D01*
X125212100Y-102288855D01*
X125112297Y-102308114D01*
X124928083Y-102199268D01*
X124805779Y-101955997D01*
X124788663Y-101881191D01*
X124715492Y-101669526D01*
X124624225Y-101617754D01*
X124542526Y-101722733D01*
X124503016Y-101913627D01*
X124457454Y-102094724D01*
X124391849Y-102125769D01*
X124335885Y-102018577D01*
X124318000Y-101839982D01*
X124378405Y-101603847D01*
G36*
X124127500Y-100089696D02*
G01*
X124276362Y-100014657D01*
X124318000Y-99931111D01*
X124365641Y-99822271D01*
X124402667Y-99810000D01*
X124477781Y-99878576D01*
X124487334Y-99937000D01*
X124532653Y-100016865D01*
X124689561Y-100055873D01*
X124910667Y-100064000D01*
X125176885Y-100050404D01*
X125306911Y-100003332D01*
X125334000Y-99937000D01*
X125379718Y-99824328D01*
X125418667Y-99810000D01*
X125494804Y-99869939D01*
X125483116Y-100004424D01*
X125401734Y-100131733D01*
X125261220Y-100192125D01*
X125021946Y-100228517D01*
X124893734Y-100233333D01*
X124649546Y-100239612D01*
X124530117Y-100276789D01*
X124490906Y-100372375D01*
X124487334Y-100484354D01*
X124542117Y-100711082D01*
X124716780Y-100848732D01*
X125026786Y-100907119D01*
X125159101Y-100910666D01*
X125373222Y-100929161D01*
X125493679Y-100975445D01*
X125503334Y-100995333D01*
X125425024Y-101038765D01*
X125215138Y-101068776D01*
X124911242Y-101080000D01*
X124910667Y-101080000D01*
X124606643Y-101068813D01*
X124396566Y-101038829D01*
X124318000Y-100995415D01*
X124318000Y-100995333D01*
X124384436Y-100915926D01*
X124419600Y-100910666D01*
X124478505Y-100885676D01*
X124419600Y-100809066D01*
X124342335Y-100651731D01*
X124318000Y-100480275D01*
X124263790Y-100278457D01*
X124127500Y-100190126D01*
X123937000Y-100127170D01*
X124127500Y-100089696D01*
G37*
X124127500Y-100089696D02*
X124276362Y-100014657D01*
X124318000Y-99931111D01*
X124365641Y-99822271D01*
X124402667Y-99810000D01*
X124477781Y-99878576D01*
X124487334Y-99937000D01*
X124532653Y-100016865D01*
X124689561Y-100055873D01*
X124910667Y-100064000D01*
X125176885Y-100050404D01*
X125306911Y-100003332D01*
X125334000Y-99937000D01*
X125379718Y-99824328D01*
X125418667Y-99810000D01*
X125494804Y-99869939D01*
X125483116Y-100004424D01*
X125401734Y-100131733D01*
X125261220Y-100192125D01*
X125021946Y-100228517D01*
X124893734Y-100233333D01*
X124649546Y-100239612D01*
X124530117Y-100276789D01*
X124490906Y-100372375D01*
X124487334Y-100484354D01*
X124542117Y-100711082D01*
X124716780Y-100848732D01*
X125026786Y-100907119D01*
X125159101Y-100910666D01*
X125373222Y-100929161D01*
X125493679Y-100975445D01*
X125503334Y-100995333D01*
X125425024Y-101038765D01*
X125215138Y-101068776D01*
X124911242Y-101080000D01*
X124910667Y-101080000D01*
X124606643Y-101068813D01*
X124396566Y-101038829D01*
X124318000Y-100995415D01*
X124318000Y-100995333D01*
X124384436Y-100915926D01*
X124419600Y-100910666D01*
X124478505Y-100885676D01*
X124419600Y-100809066D01*
X124342335Y-100651731D01*
X124318000Y-100480275D01*
X124263790Y-100278457D01*
X124127500Y-100190126D01*
X123937000Y-100127170D01*
X124127500Y-100089696D01*
G36*
X124398988Y-98099285D02*
G01*
X124641718Y-98003889D01*
X124982970Y-97964460D01*
X125273704Y-97963093D01*
X125457039Y-97988631D01*
X125503334Y-98023735D01*
X125426552Y-98073137D01*
X125227718Y-98114174D01*
X125016500Y-98133608D01*
X124741995Y-98153518D01*
X124596334Y-98189620D01*
X124539067Y-98261611D01*
X124529667Y-98370666D01*
X124542531Y-98490688D01*
X124608091Y-98557438D01*
X124766800Y-98590614D01*
X125016500Y-98607725D01*
X125325887Y-98641233D01*
X125476313Y-98691363D01*
X125466305Y-98743294D01*
X125294391Y-98782204D01*
X125035010Y-98794000D01*
X124740913Y-98807793D01*
X124577659Y-98855679D01*
X124513535Y-98932508D01*
X124502951Y-99136489D01*
X124647478Y-99279663D01*
X124942966Y-99358754D01*
X125067554Y-99369924D01*
X125355811Y-99401781D01*
X125485314Y-99446776D01*
X125464977Y-99494339D01*
X125303710Y-99533899D01*
X125010426Y-99554888D01*
X124910667Y-99556000D01*
X124606643Y-99544813D01*
X124396566Y-99514829D01*
X124318000Y-99471415D01*
X124318000Y-99471333D01*
X124381102Y-99389113D01*
X124400852Y-99386666D01*
X124436380Y-99322468D01*
X124392141Y-99185710D01*
X124345607Y-98954392D01*
X124395892Y-98806660D01*
X124446042Y-98610835D01*
X124384053Y-98456991D01*
X124313746Y-98249788D01*
X124398988Y-98099285D01*
G37*
X124398988Y-98099285D02*
X124641718Y-98003889D01*
X124982970Y-97964460D01*
X125273704Y-97963093D01*
X125457039Y-97988631D01*
X125503334Y-98023735D01*
X125426552Y-98073137D01*
X125227718Y-98114174D01*
X125016500Y-98133608D01*
X124741995Y-98153518D01*
X124596334Y-98189620D01*
X124539067Y-98261611D01*
X124529667Y-98370666D01*
X124542531Y-98490688D01*
X124608091Y-98557438D01*
X124766800Y-98590614D01*
X125016500Y-98607725D01*
X125325887Y-98641233D01*
X125476313Y-98691363D01*
X125466305Y-98743294D01*
X125294391Y-98782204D01*
X125035010Y-98794000D01*
X124740913Y-98807793D01*
X124577659Y-98855679D01*
X124513535Y-98932508D01*
X124502951Y-99136489D01*
X124647478Y-99279663D01*
X124942966Y-99358754D01*
X125067554Y-99369924D01*
X125355811Y-99401781D01*
X125485314Y-99446776D01*
X125464977Y-99494339D01*
X125303710Y-99533899D01*
X125010426Y-99554888D01*
X124910667Y-99556000D01*
X124606643Y-99544813D01*
X124396566Y-99514829D01*
X124318000Y-99471415D01*
X124318000Y-99471333D01*
X124381102Y-99389113D01*
X124400852Y-99386666D01*
X124436380Y-99322468D01*
X124392141Y-99185710D01*
X124345607Y-98954392D01*
X124395892Y-98806660D01*
X124446042Y-98610835D01*
X124384053Y-98456991D01*
X124313746Y-98249788D01*
X124398988Y-98099285D01*
G36*
X124359115Y-96979734D02*
G01*
X124506172Y-96809134D01*
X124743460Y-96678945D01*
X124896194Y-96690142D01*
X124976045Y-96849750D01*
X124995334Y-97103645D01*
X125000458Y-97351840D01*
X125027027Y-97464062D01*
X125091839Y-97473610D01*
X125164667Y-97439333D01*
X125291816Y-97305702D01*
X125334907Y-97063195D01*
X125335297Y-97034188D01*
X125346735Y-96843143D01*
X125383365Y-96805039D01*
X125418667Y-96846666D01*
X125497552Y-97098416D01*
X125451983Y-97355612D01*
X125370286Y-97475619D01*
X125164333Y-97580324D01*
X124888157Y-97606240D01*
X124677834Y-97566222D01*
X124677834Y-97423215D01*
X124777931Y-97409449D01*
X124820105Y-97290465D01*
X124826000Y-97143000D01*
X124810143Y-96937471D01*
X124749146Y-96861335D01*
X124677834Y-96862785D01*
X124559866Y-96957500D01*
X124529667Y-97143000D01*
X124572052Y-97351547D01*
X124677834Y-97423215D01*
X124677834Y-97566222D01*
X124620115Y-97555239D01*
X124458122Y-97453833D01*
X124332233Y-97215638D01*
X124359115Y-96979734D01*
G37*
X124359115Y-96979734D02*
X124506172Y-96809134D01*
X124743460Y-96678945D01*
X124896194Y-96690142D01*
X124976045Y-96849750D01*
X124995334Y-97103645D01*
X125000458Y-97351840D01*
X125027027Y-97464062D01*
X125091839Y-97473610D01*
X125164667Y-97439333D01*
X125291816Y-97305702D01*
X125334907Y-97063195D01*
X125335297Y-97034188D01*
X125346735Y-96843143D01*
X125383365Y-96805039D01*
X125418667Y-96846666D01*
X125497552Y-97098416D01*
X125451983Y-97355612D01*
X125370286Y-97475619D01*
X125164333Y-97580324D01*
X124888157Y-97606240D01*
X124677834Y-97566222D01*
X124677834Y-97423215D01*
X124777931Y-97409449D01*
X124820105Y-97290465D01*
X124826000Y-97143000D01*
X124810143Y-96937471D01*
X124749146Y-96861335D01*
X124677834Y-96862785D01*
X124559866Y-96957500D01*
X124529667Y-97143000D01*
X124572052Y-97351547D01*
X124677834Y-97423215D01*
X124677834Y-97566222D01*
X124620115Y-97555239D01*
X124458122Y-97453833D01*
X124332233Y-97215638D01*
X124359115Y-96979734D01*
G36*
X124377031Y-96256407D02*
G01*
X124395312Y-96254000D01*
X124423133Y-96186260D01*
X124384259Y-96020182D01*
X124379312Y-96006787D01*
X124331014Y-95768349D01*
X124407089Y-95609853D01*
X124619895Y-95521146D01*
X124981789Y-95492071D01*
X125005700Y-95492000D01*
X125322213Y-95509228D01*
X125475665Y-95551257D01*
X125465152Y-95603602D01*
X125289770Y-95651778D01*
X125017323Y-95678275D01*
X124732961Y-95702821D01*
X124577320Y-95748482D01*
X124509905Y-95830066D01*
X124500116Y-95867404D01*
X124538683Y-96053911D01*
X124719872Y-96185750D01*
X125022174Y-96249896D01*
X125138516Y-96254000D01*
X125360058Y-96271515D01*
X125489522Y-96315629D01*
X125503334Y-96338666D01*
X125425024Y-96382098D01*
X125215138Y-96412110D01*
X124911242Y-96423333D01*
X124910667Y-96423333D01*
X124606643Y-96412146D01*
X124396566Y-96382162D01*
X124318000Y-96338749D01*
X124318000Y-96338666D01*
X124377031Y-96256407D01*
G37*
X124377031Y-96256407D02*
X124395312Y-96254000D01*
X124423133Y-96186260D01*
X124384259Y-96020182D01*
X124379312Y-96006787D01*
X124331014Y-95768349D01*
X124407089Y-95609853D01*
X124619895Y-95521146D01*
X124981789Y-95492071D01*
X125005700Y-95492000D01*
X125322213Y-95509228D01*
X125475665Y-95551257D01*
X125465152Y-95603602D01*
X125289770Y-95651778D01*
X125017323Y-95678275D01*
X124732961Y-95702821D01*
X124577320Y-95748482D01*
X124509905Y-95830066D01*
X124500116Y-95867404D01*
X124538683Y-96053911D01*
X124719872Y-96185750D01*
X125022174Y-96249896D01*
X125138516Y-96254000D01*
X125360058Y-96271515D01*
X125489522Y-96315629D01*
X125503334Y-96338666D01*
X125425024Y-96382098D01*
X125215138Y-96412110D01*
X124911242Y-96423333D01*
X124910667Y-96423333D01*
X124606643Y-96412146D01*
X124396566Y-96382162D01*
X124318000Y-96338749D01*
X124318000Y-96338666D01*
X124377031Y-96256407D01*
G36*
X124032803Y-94938927D02*
G01*
X124127500Y-94920882D01*
X124276413Y-94849035D01*
X124318000Y-94766445D01*
X124365641Y-94657605D01*
X124402667Y-94645333D01*
X124477781Y-94713910D01*
X124487334Y-94772333D01*
X124532653Y-94852199D01*
X124689561Y-94891206D01*
X124910667Y-94899333D01*
X125176885Y-94885737D01*
X125306911Y-94838665D01*
X125334000Y-94772333D01*
X125379718Y-94659661D01*
X125418667Y-94645333D01*
X125494804Y-94705273D01*
X125483116Y-94839757D01*
X125401734Y-94967066D01*
X125260759Y-95027928D01*
X125022007Y-95064209D01*
X124900789Y-95068666D01*
X124632874Y-95090505D01*
X124477623Y-95149381D01*
X124458501Y-95174500D01*
X124393180Y-95231326D01*
X124345613Y-95189491D01*
X124213789Y-95082898D01*
X124106334Y-95026428D01*
X123991178Y-94969372D01*
X124032803Y-94938927D01*
G37*
X124032803Y-94938927D02*
X124127500Y-94920882D01*
X124276413Y-94849035D01*
X124318000Y-94766445D01*
X124365641Y-94657605D01*
X124402667Y-94645333D01*
X124477781Y-94713910D01*
X124487334Y-94772333D01*
X124532653Y-94852199D01*
X124689561Y-94891206D01*
X124910667Y-94899333D01*
X125176885Y-94885737D01*
X125306911Y-94838665D01*
X125334000Y-94772333D01*
X125379718Y-94659661D01*
X125418667Y-94645333D01*
X125494804Y-94705273D01*
X125483116Y-94839757D01*
X125401734Y-94967066D01*
X125260759Y-95027928D01*
X125022007Y-95064209D01*
X124900789Y-95068666D01*
X124632874Y-95090505D01*
X124477623Y-95149381D01*
X124458501Y-95174500D01*
X124393180Y-95231326D01*
X124345613Y-95189491D01*
X124213789Y-95082898D01*
X124106334Y-95026428D01*
X123991178Y-94969372D01*
X124032803Y-94938927D01*
G36*
X124334843Y-93151033D02*
G01*
X124472626Y-92944304D01*
X124716913Y-92811909D01*
X124933699Y-92782666D01*
X125208330Y-92847443D01*
X125403757Y-93013242D01*
X125499713Y-93237265D01*
X125475929Y-93476716D01*
X125348500Y-93658544D01*
X125123200Y-93769813D01*
X124979263Y-93781928D01*
X124979263Y-93673076D01*
X125198646Y-93590300D01*
X125320609Y-93400497D01*
X125334000Y-93290666D01*
X125294615Y-93080073D01*
X125150607Y-92963438D01*
X125122334Y-92952000D01*
X124842071Y-92908257D01*
X124622687Y-92991033D01*
X124500725Y-93180836D01*
X124487334Y-93290666D01*
X124526718Y-93501260D01*
X124670727Y-93617895D01*
X124699000Y-93629333D01*
X124979263Y-93673076D01*
X124979263Y-93781928D01*
X124841892Y-93793492D01*
X124581035Y-93730844D01*
X124458122Y-93643833D01*
X124323398Y-93396181D01*
X124334843Y-93151033D01*
G37*
X124334843Y-93151033D02*
X124472626Y-92944304D01*
X124716913Y-92811909D01*
X124933699Y-92782666D01*
X125208330Y-92847443D01*
X125403757Y-93013242D01*
X125499713Y-93237265D01*
X125475929Y-93476716D01*
X125348500Y-93658544D01*
X125123200Y-93769813D01*
X124979263Y-93781928D01*
X124979263Y-93673076D01*
X125198646Y-93590300D01*
X125320609Y-93400497D01*
X125334000Y-93290666D01*
X125294615Y-93080073D01*
X125150607Y-92963438D01*
X125122334Y-92952000D01*
X124842071Y-92908257D01*
X124622687Y-92991033D01*
X124500725Y-93180836D01*
X124487334Y-93290666D01*
X124526718Y-93501260D01*
X124670727Y-93617895D01*
X124699000Y-93629333D01*
X124979263Y-93673076D01*
X124979263Y-93781928D01*
X124841892Y-93793492D01*
X124581035Y-93730844D01*
X124458122Y-93643833D01*
X124323398Y-93396181D01*
X124334843Y-93151033D01*
G36*
X123846902Y-91875599D02*
G01*
X123926557Y-91873008D01*
X124002392Y-92015143D01*
X124003866Y-92020666D01*
X124088559Y-92147843D01*
X124210506Y-92187426D01*
X124303294Y-92130464D01*
X124318000Y-92063000D01*
X124363718Y-91950328D01*
X124402667Y-91936000D01*
X124477781Y-92004576D01*
X124487334Y-92063000D01*
X124526347Y-92136743D01*
X124664648Y-92176335D01*
X124934125Y-92189749D01*
X124995334Y-92190000D01*
X125265923Y-92202853D01*
X125449374Y-92236430D01*
X125503334Y-92274666D01*
X125426330Y-92319912D01*
X125225690Y-92350534D01*
X125002389Y-92359333D01*
X124675306Y-92377682D01*
X124490771Y-92430575D01*
X124458501Y-92465166D01*
X124389573Y-92520664D01*
X124345613Y-92484610D01*
X124221442Y-92389600D01*
X124042834Y-92295925D01*
X123858470Y-92157288D01*
X123810000Y-92022482D01*
X123846902Y-91875599D01*
G37*
X123846902Y-91875599D02*
X123926557Y-91873008D01*
X124002392Y-92015143D01*
X124003866Y-92020666D01*
X124088559Y-92147843D01*
X124210506Y-92187426D01*
X124303294Y-92130464D01*
X124318000Y-92063000D01*
X124363718Y-91950328D01*
X124402667Y-91936000D01*
X124477781Y-92004576D01*
X124487334Y-92063000D01*
X124526347Y-92136743D01*
X124664648Y-92176335D01*
X124934125Y-92189749D01*
X124995334Y-92190000D01*
X125265923Y-92202853D01*
X125449374Y-92236430D01*
X125503334Y-92274666D01*
X125426330Y-92319912D01*
X125225690Y-92350534D01*
X125002389Y-92359333D01*
X124675306Y-92377682D01*
X124490771Y-92430575D01*
X124458501Y-92465166D01*
X124389573Y-92520664D01*
X124345613Y-92484610D01*
X124221442Y-92389600D01*
X124042834Y-92295925D01*
X123858470Y-92157288D01*
X123810000Y-92022482D01*
X123846902Y-91875599D01*
G36*
X124021296Y-89523675D02*
G01*
X124304985Y-89489687D01*
X124699000Y-89480666D01*
X125078393Y-89489111D01*
X125350899Y-89512621D01*
X125490516Y-89548458D01*
X125503334Y-89565333D01*
X125424595Y-89607915D01*
X125211905Y-89639952D01*
X124900555Y-89656495D01*
X124847167Y-89657339D01*
X124191000Y-89664678D01*
X124868334Y-89988164D01*
X125545667Y-90311649D01*
X124910667Y-90610305D01*
X124275667Y-90908962D01*
X124889500Y-90914481D01*
X125198106Y-90928061D01*
X125415148Y-90958970D01*
X125502992Y-91001676D01*
X125503334Y-91004666D01*
X125423108Y-91044603D01*
X125199766Y-91073287D01*
X124859311Y-91087984D01*
X124699000Y-91089333D01*
X124268664Y-91078671D01*
X124004796Y-91044275D01*
X123905731Y-90982528D01*
X123969805Y-90889816D01*
X124195350Y-90762521D01*
X124489290Y-90634028D01*
X124778988Y-90509677D01*
X125001476Y-90403783D01*
X125115064Y-90336407D01*
X125120507Y-90330288D01*
X125066373Y-90271345D01*
X124889767Y-90167113D01*
X124624734Y-90036930D01*
X124526160Y-89992665D01*
X124156775Y-89817246D01*
X123948578Y-89683346D01*
X123902956Y-89586858D01*
X124021296Y-89523675D01*
G37*
X124021296Y-89523675D02*
X124304985Y-89489687D01*
X124699000Y-89480666D01*
X125078393Y-89489111D01*
X125350899Y-89512621D01*
X125490516Y-89548458D01*
X125503334Y-89565333D01*
X125424595Y-89607915D01*
X125211905Y-89639952D01*
X124900555Y-89656495D01*
X124847167Y-89657339D01*
X124191000Y-89664678D01*
X124868334Y-89988164D01*
X125545667Y-90311649D01*
X124910667Y-90610305D01*
X124275667Y-90908962D01*
X124889500Y-90914481D01*
X125198106Y-90928061D01*
X125415148Y-90958970D01*
X125502992Y-91001676D01*
X125503334Y-91004666D01*
X125423108Y-91044603D01*
X125199766Y-91073287D01*
X124859311Y-91087984D01*
X124699000Y-91089333D01*
X124268664Y-91078671D01*
X124004796Y-91044275D01*
X123905731Y-90982528D01*
X123969805Y-90889816D01*
X124195350Y-90762521D01*
X124489290Y-90634028D01*
X124778988Y-90509677D01*
X125001476Y-90403783D01*
X125115064Y-90336407D01*
X125120507Y-90330288D01*
X125066373Y-90271345D01*
X124889767Y-90167113D01*
X124624734Y-90036930D01*
X124526160Y-89992665D01*
X124156775Y-89817246D01*
X123948578Y-89683346D01*
X123902956Y-89586858D01*
X124021296Y-89523675D01*
G36*
X124359115Y-88513067D02*
G01*
X124506172Y-88342467D01*
X124743460Y-88212279D01*
X124896194Y-88223475D01*
X124976045Y-88383084D01*
X124995334Y-88636979D01*
X125000458Y-88885173D01*
X125027027Y-88997396D01*
X125091839Y-89006943D01*
X125164667Y-88972666D01*
X125291816Y-88839036D01*
X125334907Y-88596528D01*
X125335297Y-88567521D01*
X125346735Y-88376476D01*
X125383365Y-88338373D01*
X125418667Y-88380000D01*
X125497552Y-88631749D01*
X125451983Y-88888946D01*
X125370286Y-89008952D01*
X125164333Y-89113657D01*
X124888157Y-89139573D01*
X124677834Y-89099556D01*
X124677834Y-88956548D01*
X124777931Y-88942782D01*
X124820105Y-88823799D01*
X124826000Y-88676333D01*
X124810143Y-88470805D01*
X124749146Y-88394668D01*
X124677834Y-88396118D01*
X124559866Y-88490833D01*
X124529667Y-88676333D01*
X124572052Y-88884880D01*
X124677834Y-88956548D01*
X124677834Y-89099556D01*
X124620115Y-89088573D01*
X124458122Y-88987166D01*
X124332233Y-88748972D01*
X124359115Y-88513067D01*
G37*
X124359115Y-88513067D02*
X124506172Y-88342467D01*
X124743460Y-88212279D01*
X124896194Y-88223475D01*
X124976045Y-88383084D01*
X124995334Y-88636979D01*
X125000458Y-88885173D01*
X125027027Y-88997396D01*
X125091839Y-89006943D01*
X125164667Y-88972666D01*
X125291816Y-88839036D01*
X125334907Y-88596528D01*
X125335297Y-88567521D01*
X125346735Y-88376476D01*
X125383365Y-88338373D01*
X125418667Y-88380000D01*
X125497552Y-88631749D01*
X125451983Y-88888946D01*
X125370286Y-89008952D01*
X125164333Y-89113657D01*
X124888157Y-89139573D01*
X124677834Y-89099556D01*
X124677834Y-88956548D01*
X124777931Y-88942782D01*
X124820105Y-88823799D01*
X124826000Y-88676333D01*
X124810143Y-88470805D01*
X124749146Y-88394668D01*
X124677834Y-88396118D01*
X124559866Y-88490833D01*
X124529667Y-88676333D01*
X124572052Y-88884880D01*
X124677834Y-88956548D01*
X124677834Y-89099556D01*
X124620115Y-89088573D01*
X124458122Y-88987166D01*
X124332233Y-88748972D01*
X124359115Y-88513067D01*
G36*
X124343397Y-87234148D02*
G01*
X124402667Y-87194666D01*
X124466527Y-87267063D01*
X124487334Y-87404381D01*
X124560259Y-87631542D01*
X124744631Y-87780961D01*
X124988842Y-87820587D01*
X125110905Y-87791678D01*
X125277672Y-87684861D01*
X125332638Y-87500184D01*
X125334000Y-87445765D01*
X125356767Y-87275312D01*
X125415287Y-87235081D01*
X125418667Y-87237000D01*
X125495875Y-87371077D01*
X125485116Y-87571417D01*
X125395189Y-87765321D01*
X125348500Y-87816544D01*
X125117397Y-87934169D01*
X124839839Y-87955226D01*
X124585368Y-87883434D01*
X124449801Y-87768494D01*
X124357707Y-87577252D01*
X124320633Y-87379576D01*
X124343397Y-87234148D01*
G37*
X124343397Y-87234148D02*
X124402667Y-87194666D01*
X124466527Y-87267063D01*
X124487334Y-87404381D01*
X124560259Y-87631542D01*
X124744631Y-87780961D01*
X124988842Y-87820587D01*
X125110905Y-87791678D01*
X125277672Y-87684861D01*
X125332638Y-87500184D01*
X125334000Y-87445765D01*
X125356767Y-87275312D01*
X125415287Y-87235081D01*
X125418667Y-87237000D01*
X125495875Y-87371077D01*
X125485116Y-87571417D01*
X125395189Y-87765321D01*
X125348500Y-87816544D01*
X125117397Y-87934169D01*
X124839839Y-87955226D01*
X124585368Y-87883434D01*
X124449801Y-87768494D01*
X124357707Y-87577252D01*
X124320633Y-87379576D01*
X124343397Y-87234148D01*
G36*
X123885003Y-86802503D02*
G01*
X124071904Y-86773215D01*
X124141312Y-86771333D01*
X124352609Y-86765123D01*
X124430059Y-86721920D01*
X124409149Y-86604864D01*
X124379312Y-86524121D01*
X124331014Y-86285682D01*
X124407089Y-86127187D01*
X124619895Y-86038479D01*
X124981789Y-86009404D01*
X125005700Y-86009333D01*
X125322213Y-86026562D01*
X125475665Y-86068590D01*
X125465152Y-86120935D01*
X125289770Y-86169111D01*
X125017323Y-86195608D01*
X124732961Y-86220154D01*
X124577320Y-86265815D01*
X124509905Y-86347399D01*
X124500116Y-86384737D01*
X124538683Y-86571244D01*
X124719872Y-86703084D01*
X125022174Y-86767229D01*
X125138516Y-86771333D01*
X125360058Y-86788848D01*
X125489522Y-86832962D01*
X125503334Y-86856000D01*
X125422838Y-86895332D01*
X125197617Y-86923768D01*
X124852064Y-86938869D01*
X124656667Y-86940666D01*
X124263347Y-86932617D01*
X123978983Y-86910095D01*
X123827972Y-86875540D01*
X123810000Y-86856000D01*
X123885003Y-86802503D01*
G37*
X123885003Y-86802503D02*
X124071904Y-86773215D01*
X124141312Y-86771333D01*
X124352609Y-86765123D01*
X124430059Y-86721920D01*
X124409149Y-86604864D01*
X124379312Y-86524121D01*
X124331014Y-86285682D01*
X124407089Y-86127187D01*
X124619895Y-86038479D01*
X124981789Y-86009404D01*
X125005700Y-86009333D01*
X125322213Y-86026562D01*
X125475665Y-86068590D01*
X125465152Y-86120935D01*
X125289770Y-86169111D01*
X125017323Y-86195608D01*
X124732961Y-86220154D01*
X124577320Y-86265815D01*
X124509905Y-86347399D01*
X124500116Y-86384737D01*
X124538683Y-86571244D01*
X124719872Y-86703084D01*
X125022174Y-86767229D01*
X125138516Y-86771333D01*
X125360058Y-86788848D01*
X125489522Y-86832962D01*
X125503334Y-86856000D01*
X125422838Y-86895332D01*
X125197617Y-86923768D01*
X124852064Y-86938869D01*
X124656667Y-86940666D01*
X124263347Y-86932617D01*
X123978983Y-86910095D01*
X123827972Y-86875540D01*
X123810000Y-86856000D01*
X123885003Y-86802503D01*
G36*
X124378405Y-85009180D02*
G01*
X124481767Y-84911645D01*
X124651674Y-84860534D01*
X124891753Y-84832280D01*
X125147816Y-84827042D01*
X125365676Y-84844977D01*
X125491145Y-84886243D01*
X125503334Y-84908666D01*
X125436898Y-84988074D01*
X125401734Y-84993333D01*
X125342829Y-85018324D01*
X125401734Y-85094933D01*
X125495198Y-85287462D01*
X125473152Y-85503679D01*
X125344900Y-85664490D01*
X125334000Y-85670666D01*
X125212100Y-85694188D01*
X125212100Y-85560529D01*
X125245625Y-85545959D01*
X125325512Y-85411663D01*
X125309918Y-85224165D01*
X125232400Y-85094933D01*
X125068230Y-84998104D01*
X124948628Y-85047017D01*
X124910667Y-85194633D01*
X124959395Y-85389603D01*
X125075107Y-85527548D01*
X125212100Y-85560529D01*
X125212100Y-85694188D01*
X125112297Y-85713447D01*
X124928083Y-85604601D01*
X124805779Y-85361331D01*
X124788663Y-85286524D01*
X124715492Y-85074859D01*
X124624225Y-85023087D01*
X124542526Y-85128066D01*
X124503016Y-85318961D01*
X124457454Y-85500058D01*
X124391849Y-85531102D01*
X124335885Y-85423911D01*
X124318000Y-85245315D01*
X124378405Y-85009180D01*
G37*
X124378405Y-85009180D02*
X124481767Y-84911645D01*
X124651674Y-84860534D01*
X124891753Y-84832280D01*
X125147816Y-84827042D01*
X125365676Y-84844977D01*
X125491145Y-84886243D01*
X125503334Y-84908666D01*
X125436898Y-84988074D01*
X125401734Y-84993333D01*
X125342829Y-85018324D01*
X125401734Y-85094933D01*
X125495198Y-85287462D01*
X125473152Y-85503679D01*
X125344900Y-85664490D01*
X125334000Y-85670666D01*
X125212100Y-85694188D01*
X125212100Y-85560529D01*
X125245625Y-85545959D01*
X125325512Y-85411663D01*
X125309918Y-85224165D01*
X125232400Y-85094933D01*
X125068230Y-84998104D01*
X124948628Y-85047017D01*
X124910667Y-85194633D01*
X124959395Y-85389603D01*
X125075107Y-85527548D01*
X125212100Y-85560529D01*
X125212100Y-85694188D01*
X125112297Y-85713447D01*
X124928083Y-85604601D01*
X124805779Y-85361331D01*
X124788663Y-85286524D01*
X124715492Y-85074859D01*
X124624225Y-85023087D01*
X124542526Y-85128066D01*
X124503016Y-85318961D01*
X124457454Y-85500058D01*
X124391849Y-85531102D01*
X124335885Y-85423911D01*
X124318000Y-85245315D01*
X124378405Y-85009180D01*
G36*
X124032803Y-84270927D02*
G01*
X124127500Y-84252882D01*
X124276413Y-84181035D01*
X124318000Y-84098445D01*
X124365641Y-83989605D01*
X124402667Y-83977333D01*
X124477781Y-84045910D01*
X124487334Y-84104333D01*
X124532653Y-84184199D01*
X124689561Y-84223206D01*
X124910667Y-84231333D01*
X125176885Y-84217737D01*
X125306911Y-84170665D01*
X125334000Y-84104333D01*
X125379718Y-83991661D01*
X125418667Y-83977333D01*
X125494804Y-84037273D01*
X125483116Y-84171757D01*
X125401734Y-84299066D01*
X125260759Y-84359928D01*
X125022007Y-84396209D01*
X124900789Y-84400666D01*
X124632874Y-84422505D01*
X124477623Y-84481381D01*
X124458501Y-84506500D01*
X124393180Y-84563326D01*
X124345613Y-84521491D01*
X124213789Y-84414898D01*
X124106334Y-84358428D01*
X123991178Y-84301372D01*
X124032803Y-84270927D01*
G37*
X124032803Y-84270927D02*
X124127500Y-84252882D01*
X124276413Y-84181035D01*
X124318000Y-84098445D01*
X124365641Y-83989605D01*
X124402667Y-83977333D01*
X124477781Y-84045910D01*
X124487334Y-84104333D01*
X124532653Y-84184199D01*
X124689561Y-84223206D01*
X124910667Y-84231333D01*
X125176885Y-84217737D01*
X125306911Y-84170665D01*
X125334000Y-84104333D01*
X125379718Y-83991661D01*
X125418667Y-83977333D01*
X125494804Y-84037273D01*
X125483116Y-84171757D01*
X125401734Y-84299066D01*
X125260759Y-84359928D01*
X125022007Y-84396209D01*
X124900789Y-84400666D01*
X124632874Y-84422505D01*
X124477623Y-84481381D01*
X124458501Y-84506500D01*
X124393180Y-84563326D01*
X124345613Y-84521491D01*
X124213789Y-84414898D01*
X124106334Y-84358428D01*
X123991178Y-84301372D01*
X124032803Y-84270927D01*
G36*
X124384436Y-83559259D02*
G01*
X124419600Y-83554000D01*
X124478505Y-83529009D01*
X124419600Y-83452400D01*
X124332749Y-83308764D01*
X124330536Y-83179145D01*
X124402667Y-83130666D01*
X124478271Y-83199030D01*
X124487334Y-83254688D01*
X124565524Y-83405076D01*
X124781040Y-83508840D01*
X125105303Y-83553244D01*
X125159101Y-83554000D01*
X125373222Y-83572494D01*
X125493679Y-83618779D01*
X125503334Y-83638666D01*
X125425024Y-83682098D01*
X125215138Y-83712110D01*
X124911242Y-83723333D01*
X124910667Y-83723333D01*
X124606643Y-83712146D01*
X124396566Y-83682162D01*
X124318000Y-83638749D01*
X124318000Y-83638666D01*
X124384436Y-83559259D01*
G37*
X124384436Y-83559259D02*
X124419600Y-83554000D01*
X124478505Y-83529009D01*
X124419600Y-83452400D01*
X124332749Y-83308764D01*
X124330536Y-83179145D01*
X124402667Y-83130666D01*
X124478271Y-83199030D01*
X124487334Y-83254688D01*
X124565524Y-83405076D01*
X124781040Y-83508840D01*
X125105303Y-83553244D01*
X125159101Y-83554000D01*
X125373222Y-83572494D01*
X125493679Y-83618779D01*
X125503334Y-83638666D01*
X125425024Y-83682098D01*
X125215138Y-83712110D01*
X124911242Y-83723333D01*
X124910667Y-83723333D01*
X124606643Y-83712146D01*
X124396566Y-83682162D01*
X124318000Y-83638749D01*
X124318000Y-83638666D01*
X124384436Y-83559259D01*
G36*
X124334843Y-82313699D02*
G01*
X124472626Y-82106971D01*
X124716913Y-81974576D01*
X124933699Y-81945333D01*
X125208330Y-82010110D01*
X125403757Y-82175909D01*
X125499713Y-82399932D01*
X125475929Y-82639382D01*
X125348500Y-82821211D01*
X125123200Y-82932480D01*
X124996535Y-82943141D01*
X124996535Y-82827595D01*
X125122334Y-82792000D01*
X125282704Y-82682985D01*
X125333436Y-82488036D01*
X125334000Y-82453333D01*
X125294615Y-82242739D01*
X125150607Y-82126105D01*
X125122334Y-82114666D01*
X124842071Y-82070924D01*
X124622687Y-82153699D01*
X124500725Y-82343503D01*
X124487334Y-82453333D01*
X124556092Y-82683220D01*
X124738006Y-82814471D01*
X124996535Y-82827595D01*
X124996535Y-82943141D01*
X124841892Y-82956159D01*
X124581035Y-82893511D01*
X124458122Y-82806500D01*
X124323398Y-82558847D01*
X124334843Y-82313699D01*
G37*
X124334843Y-82313699D02*
X124472626Y-82106971D01*
X124716913Y-81974576D01*
X124933699Y-81945333D01*
X125208330Y-82010110D01*
X125403757Y-82175909D01*
X125499713Y-82399932D01*
X125475929Y-82639382D01*
X125348500Y-82821211D01*
X125123200Y-82932480D01*
X124996535Y-82943141D01*
X124996535Y-82827595D01*
X125122334Y-82792000D01*
X125282704Y-82682985D01*
X125333436Y-82488036D01*
X125334000Y-82453333D01*
X125294615Y-82242739D01*
X125150607Y-82126105D01*
X125122334Y-82114666D01*
X124842071Y-82070924D01*
X124622687Y-82153699D01*
X124500725Y-82343503D01*
X124487334Y-82453333D01*
X124556092Y-82683220D01*
X124738006Y-82814471D01*
X124996535Y-82827595D01*
X124996535Y-82943141D01*
X124841892Y-82956159D01*
X124581035Y-82893511D01*
X124458122Y-82806500D01*
X124323398Y-82558847D01*
X124334843Y-82313699D01*
G36*
X124377031Y-81439740D02*
G01*
X124395312Y-81437333D01*
X124423133Y-81369593D01*
X124384259Y-81203516D01*
X124379312Y-81190121D01*
X124331014Y-80951682D01*
X124407089Y-80793187D01*
X124619895Y-80704479D01*
X124981789Y-80675404D01*
X125005700Y-80675333D01*
X125322213Y-80692562D01*
X125475665Y-80734590D01*
X125465152Y-80786935D01*
X125289770Y-80835111D01*
X125017323Y-80861608D01*
X124732961Y-80886154D01*
X124577320Y-80931815D01*
X124509905Y-81013399D01*
X124500116Y-81050737D01*
X124538683Y-81237244D01*
X124719872Y-81369084D01*
X125022174Y-81433229D01*
X125138516Y-81437333D01*
X125360058Y-81454848D01*
X125489522Y-81498962D01*
X125503334Y-81522000D01*
X125425024Y-81565432D01*
X125215138Y-81595443D01*
X124911242Y-81606666D01*
X124910667Y-81606666D01*
X124606643Y-81595479D01*
X124396566Y-81565496D01*
X124318000Y-81522082D01*
X124318000Y-81522000D01*
X124377031Y-81439740D01*
G37*
X124377031Y-81439740D02*
X124395312Y-81437333D01*
X124423133Y-81369593D01*
X124384259Y-81203516D01*
X124379312Y-81190121D01*
X124331014Y-80951682D01*
X124407089Y-80793187D01*
X124619895Y-80704479D01*
X124981789Y-80675404D01*
X125005700Y-80675333D01*
X125322213Y-80692562D01*
X125475665Y-80734590D01*
X125465152Y-80786935D01*
X125289770Y-80835111D01*
X125017323Y-80861608D01*
X124732961Y-80886154D01*
X124577320Y-80931815D01*
X124509905Y-81013399D01*
X124500116Y-81050737D01*
X124538683Y-81237244D01*
X124719872Y-81369084D01*
X125022174Y-81433229D01*
X125138516Y-81437333D01*
X125360058Y-81454848D01*
X125489522Y-81498962D01*
X125503334Y-81522000D01*
X125425024Y-81565432D01*
X125215138Y-81595443D01*
X124911242Y-81606666D01*
X124910667Y-81606666D01*
X124606643Y-81595479D01*
X124396566Y-81565496D01*
X124318000Y-81522082D01*
X124318000Y-81522000D01*
X124377031Y-81439740D01*
G36*
X124396310Y-80208568D02*
G01*
X124606196Y-80178557D01*
X124910092Y-80167333D01*
X124910667Y-80167333D01*
X125214691Y-80178520D01*
X125424768Y-80208504D01*
X125503333Y-80251918D01*
X125503334Y-80252000D01*
X125425024Y-80295432D01*
X125215138Y-80325443D01*
X124911242Y-80336666D01*
X124910667Y-80336666D01*
X124606643Y-80325479D01*
X124396566Y-80295496D01*
X124318000Y-80252082D01*
X124318000Y-80252000D01*
X124396310Y-80208568D01*
G37*
X124396310Y-80208568D02*
X124606196Y-80178557D01*
X124910092Y-80167333D01*
X124910667Y-80167333D01*
X125214691Y-80178520D01*
X125424768Y-80208504D01*
X125503333Y-80251918D01*
X125503334Y-80252000D01*
X125425024Y-80295432D01*
X125215138Y-80325443D01*
X124911242Y-80336666D01*
X124910667Y-80336666D01*
X124606643Y-80325479D01*
X124396566Y-80295496D01*
X124318000Y-80252082D01*
X124318000Y-80252000D01*
X124396310Y-80208568D01*
G36*
X124343397Y-79021481D02*
G01*
X124402667Y-78982000D01*
X124466527Y-79054396D01*
X124487334Y-79191715D01*
X124560259Y-79418875D01*
X124744631Y-79568295D01*
X124988842Y-79607920D01*
X125110905Y-79579012D01*
X125277672Y-79472195D01*
X125332638Y-79287518D01*
X125334000Y-79233099D01*
X125356767Y-79062645D01*
X125415287Y-79022415D01*
X125418667Y-79024333D01*
X125495875Y-79158411D01*
X125485116Y-79358750D01*
X125395189Y-79552655D01*
X125348500Y-79603878D01*
X125117397Y-79721502D01*
X124839839Y-79742559D01*
X124585368Y-79670767D01*
X124449801Y-79555828D01*
X124357707Y-79364585D01*
X124320633Y-79166909D01*
X124343397Y-79021481D01*
G37*
X124343397Y-79021481D02*
X124402667Y-78982000D01*
X124466527Y-79054396D01*
X124487334Y-79191715D01*
X124560259Y-79418875D01*
X124744631Y-79568295D01*
X124988842Y-79607920D01*
X125110905Y-79579012D01*
X125277672Y-79472195D01*
X125332638Y-79287518D01*
X125334000Y-79233099D01*
X125356767Y-79062645D01*
X125415287Y-79022415D01*
X125418667Y-79024333D01*
X125495875Y-79158411D01*
X125485116Y-79358750D01*
X125395189Y-79552655D01*
X125348500Y-79603878D01*
X125117397Y-79721502D01*
X124839839Y-79742559D01*
X124585368Y-79670767D01*
X124449801Y-79555828D01*
X124357707Y-79364585D01*
X124320633Y-79166909D01*
X124343397Y-79021481D01*
G36*
X124379511Y-78112418D02*
G01*
X124402667Y-78093000D01*
X124462630Y-78126084D01*
X124487293Y-78290809D01*
X124487334Y-78299670D01*
X124527007Y-78499794D01*
X124627837Y-78555160D01*
X124762537Y-78465408D01*
X124868334Y-78304666D01*
X125034135Y-78106658D01*
X125219855Y-78054730D01*
X125384658Y-78136903D01*
X125487708Y-78341198D01*
X125503334Y-78490933D01*
X125477203Y-78661816D01*
X125418667Y-78728000D01*
X125359220Y-78654427D01*
X125334007Y-78477160D01*
X125334000Y-78474000D01*
X125296637Y-78273430D01*
X125209174Y-78220000D01*
X125088517Y-78288677D01*
X124962712Y-78455836D01*
X124953000Y-78474000D01*
X124788902Y-78672519D01*
X124596718Y-78722260D01*
X124419600Y-78626400D01*
X124337958Y-78464542D01*
X124323691Y-78264750D01*
X124379511Y-78112418D01*
G37*
X124379511Y-78112418D02*
X124402667Y-78093000D01*
X124462630Y-78126084D01*
X124487293Y-78290809D01*
X124487334Y-78299670D01*
X124527007Y-78499794D01*
X124627837Y-78555160D01*
X124762537Y-78465408D01*
X124868334Y-78304666D01*
X125034135Y-78106658D01*
X125219855Y-78054730D01*
X125384658Y-78136903D01*
X125487708Y-78341198D01*
X125503334Y-78490933D01*
X125477203Y-78661816D01*
X125418667Y-78728000D01*
X125359220Y-78654427D01*
X125334007Y-78477160D01*
X125334000Y-78474000D01*
X125296637Y-78273430D01*
X125209174Y-78220000D01*
X125088517Y-78288677D01*
X124962712Y-78455836D01*
X124953000Y-78474000D01*
X124788902Y-78672519D01*
X124596718Y-78722260D01*
X124419600Y-78626400D01*
X124337958Y-78464542D01*
X124323691Y-78264750D01*
X124379511Y-78112418D01*
G36*
X123911483Y-76426447D02*
G01*
X123954031Y-76290149D01*
X123979334Y-76272666D01*
X124035296Y-76347095D01*
X124063269Y-76530110D01*
X124064000Y-76569000D01*
X124078160Y-76768095D01*
X124149980Y-76849755D01*
X124318000Y-76865333D01*
X124497908Y-76844354D01*
X124564219Y-76745393D01*
X124572000Y-76611333D01*
X124596524Y-76432991D01*
X124655613Y-76357353D01*
X124656667Y-76357333D01*
X124716114Y-76430906D01*
X124741327Y-76608173D01*
X124741334Y-76611333D01*
X124757853Y-76781986D01*
X124841643Y-76851981D01*
X125037667Y-76865333D01*
X125236279Y-76852227D01*
X125317731Y-76778280D01*
X125333963Y-76591555D01*
X125334000Y-76569000D01*
X125355266Y-76373132D01*
X125407555Y-76275226D01*
X125418667Y-76272666D01*
X125469160Y-76348341D01*
X125499449Y-76539804D01*
X125503334Y-76653666D01*
X125503334Y-77034666D01*
X123894667Y-77034666D01*
X123894667Y-76653666D01*
X123911483Y-76426447D01*
G37*
X123911483Y-76426447D02*
X123954031Y-76290149D01*
X123979334Y-76272666D01*
X124035296Y-76347095D01*
X124063269Y-76530110D01*
X124064000Y-76569000D01*
X124078160Y-76768095D01*
X124149980Y-76849755D01*
X124318000Y-76865333D01*
X124497908Y-76844354D01*
X124564219Y-76745393D01*
X124572000Y-76611333D01*
X124596524Y-76432991D01*
X124655613Y-76357353D01*
X124656667Y-76357333D01*
X124716114Y-76430906D01*
X124741327Y-76608173D01*
X124741334Y-76611333D01*
X124757853Y-76781986D01*
X124841643Y-76851981D01*
X125037667Y-76865333D01*
X125236279Y-76852227D01*
X125317731Y-76778280D01*
X125333963Y-76591555D01*
X125334000Y-76569000D01*
X125355266Y-76373132D01*
X125407555Y-76275226D01*
X125418667Y-76272666D01*
X125469160Y-76348341D01*
X125499449Y-76539804D01*
X125503334Y-76653666D01*
X125503334Y-77034666D01*
X123894667Y-77034666D01*
X123894667Y-76653666D01*
X123911483Y-76426447D01*
G36*
X124377031Y-75767073D02*
G01*
X124395312Y-75764666D01*
X124423133Y-75696927D01*
X124384259Y-75530849D01*
X124379312Y-75517454D01*
X124331014Y-75279015D01*
X124407089Y-75120520D01*
X124619895Y-75031813D01*
X124981789Y-75002737D01*
X125005700Y-75002666D01*
X125322213Y-75019895D01*
X125475665Y-75061924D01*
X125465152Y-75114269D01*
X125289770Y-75162445D01*
X125017323Y-75188941D01*
X124732961Y-75213487D01*
X124577320Y-75259148D01*
X124509905Y-75340732D01*
X124500116Y-75378070D01*
X124538683Y-75564578D01*
X124719872Y-75696417D01*
X125022174Y-75760563D01*
X125138516Y-75764666D01*
X125360058Y-75782182D01*
X125489522Y-75826296D01*
X125503334Y-75849333D01*
X125425024Y-75892765D01*
X125215138Y-75922776D01*
X124911242Y-75934000D01*
X124910667Y-75934000D01*
X124606643Y-75922813D01*
X124396566Y-75892829D01*
X124318000Y-75849415D01*
X124318000Y-75849333D01*
X124377031Y-75767073D01*
G37*
X124377031Y-75767073D02*
X124395312Y-75764666D01*
X124423133Y-75696927D01*
X124384259Y-75530849D01*
X124379312Y-75517454D01*
X124331014Y-75279015D01*
X124407089Y-75120520D01*
X124619895Y-75031813D01*
X124981789Y-75002737D01*
X125005700Y-75002666D01*
X125322213Y-75019895D01*
X125475665Y-75061924D01*
X125465152Y-75114269D01*
X125289770Y-75162445D01*
X125017323Y-75188941D01*
X124732961Y-75213487D01*
X124577320Y-75259148D01*
X124509905Y-75340732D01*
X124500116Y-75378070D01*
X124538683Y-75564578D01*
X124719872Y-75696417D01*
X125022174Y-75760563D01*
X125138516Y-75764666D01*
X125360058Y-75782182D01*
X125489522Y-75826296D01*
X125503334Y-75849333D01*
X125425024Y-75892765D01*
X125215138Y-75922776D01*
X124911242Y-75934000D01*
X124910667Y-75934000D01*
X124606643Y-75922813D01*
X124396566Y-75892829D01*
X124318000Y-75849415D01*
X124318000Y-75849333D01*
X124377031Y-75767073D01*
G36*
X124396310Y-73181235D02*
G01*
X124606196Y-73151223D01*
X124910092Y-73140000D01*
X124910667Y-73140000D01*
X125214691Y-73151187D01*
X125424768Y-73181171D01*
X125503333Y-73224584D01*
X125503334Y-73224666D01*
X125425024Y-73268098D01*
X125215138Y-73298110D01*
X124911242Y-73309333D01*
X124910667Y-73309333D01*
X124606643Y-73298146D01*
X124396566Y-73268162D01*
X124318000Y-73224749D01*
X124318000Y-73224666D01*
X124396310Y-73181235D01*
G37*
X124396310Y-73181235D02*
X124606196Y-73151223D01*
X124910092Y-73140000D01*
X124910667Y-73140000D01*
X125214691Y-73151187D01*
X125424768Y-73181171D01*
X125503333Y-73224584D01*
X125503334Y-73224666D01*
X125425024Y-73268098D01*
X125215138Y-73298110D01*
X124911242Y-73309333D01*
X124910667Y-73309333D01*
X124606643Y-73298146D01*
X124396566Y-73268162D01*
X124318000Y-73224749D01*
X124318000Y-73224666D01*
X124396310Y-73181235D01*
G36*
X124377031Y-72549740D02*
G01*
X124395312Y-72547333D01*
X124423133Y-72479593D01*
X124384259Y-72313516D01*
X124379312Y-72300121D01*
X124331014Y-72061682D01*
X124407089Y-71903187D01*
X124619895Y-71814479D01*
X124981789Y-71785404D01*
X125005700Y-71785333D01*
X125322213Y-71802562D01*
X125475665Y-71844590D01*
X125465152Y-71896935D01*
X125289770Y-71945111D01*
X125017323Y-71971608D01*
X124732961Y-71996154D01*
X124577320Y-72041815D01*
X124509905Y-72123399D01*
X124500116Y-72160737D01*
X124538683Y-72347244D01*
X124719872Y-72479084D01*
X125022174Y-72543229D01*
X125138516Y-72547333D01*
X125360058Y-72564848D01*
X125489522Y-72608962D01*
X125503334Y-72632000D01*
X125425024Y-72675432D01*
X125215138Y-72705443D01*
X124911242Y-72716666D01*
X124910667Y-72716666D01*
X124606643Y-72705479D01*
X124396566Y-72675496D01*
X124318000Y-72632082D01*
X124318000Y-72632000D01*
X124377031Y-72549740D01*
G37*
X124377031Y-72549740D02*
X124395312Y-72547333D01*
X124423133Y-72479593D01*
X124384259Y-72313516D01*
X124379312Y-72300121D01*
X124331014Y-72061682D01*
X124407089Y-71903187D01*
X124619895Y-71814479D01*
X124981789Y-71785404D01*
X125005700Y-71785333D01*
X125322213Y-71802562D01*
X125475665Y-71844590D01*
X125465152Y-71896935D01*
X125289770Y-71945111D01*
X125017323Y-71971608D01*
X124732961Y-71996154D01*
X124577320Y-72041815D01*
X124509905Y-72123399D01*
X124500116Y-72160737D01*
X124538683Y-72347244D01*
X124719872Y-72479084D01*
X125022174Y-72543229D01*
X125138516Y-72547333D01*
X125360058Y-72564848D01*
X125489522Y-72608962D01*
X125503334Y-72632000D01*
X125425024Y-72675432D01*
X125215138Y-72705443D01*
X124911242Y-72716666D01*
X124910667Y-72716666D01*
X124606643Y-72705479D01*
X124396566Y-72675496D01*
X124318000Y-72632082D01*
X124318000Y-72632000D01*
X124377031Y-72549740D01*
G36*
X124359115Y-70817734D02*
G01*
X124506172Y-70647134D01*
X124743460Y-70516945D01*
X124896194Y-70528142D01*
X124976045Y-70687750D01*
X124995334Y-70941645D01*
X125000458Y-71189840D01*
X125027027Y-71302062D01*
X125091839Y-71311610D01*
X125164667Y-71277333D01*
X125291816Y-71143702D01*
X125334907Y-70901195D01*
X125335297Y-70872188D01*
X125346735Y-70681143D01*
X125383365Y-70643039D01*
X125418667Y-70684666D01*
X125497552Y-70936416D01*
X125451983Y-71193612D01*
X125370286Y-71313619D01*
X125164333Y-71418324D01*
X124888157Y-71444240D01*
X124677834Y-71404222D01*
X124677834Y-71261215D01*
X124777931Y-71247449D01*
X124820105Y-71128465D01*
X124826000Y-70981000D01*
X124810143Y-70775471D01*
X124749146Y-70699335D01*
X124677834Y-70700785D01*
X124559866Y-70795500D01*
X124529667Y-70981000D01*
X124572052Y-71189547D01*
X124677834Y-71261215D01*
X124677834Y-71404222D01*
X124620115Y-71393239D01*
X124458122Y-71291833D01*
X124332233Y-71053638D01*
X124359115Y-70817734D01*
G37*
X124359115Y-70817734D02*
X124506172Y-70647134D01*
X124743460Y-70516945D01*
X124896194Y-70528142D01*
X124976045Y-70687750D01*
X124995334Y-70941645D01*
X125000458Y-71189840D01*
X125027027Y-71302062D01*
X125091839Y-71311610D01*
X125164667Y-71277333D01*
X125291816Y-71143702D01*
X125334907Y-70901195D01*
X125335297Y-70872188D01*
X125346735Y-70681143D01*
X125383365Y-70643039D01*
X125418667Y-70684666D01*
X125497552Y-70936416D01*
X125451983Y-71193612D01*
X125370286Y-71313619D01*
X125164333Y-71418324D01*
X124888157Y-71444240D01*
X124677834Y-71404222D01*
X124677834Y-71261215D01*
X124777931Y-71247449D01*
X124820105Y-71128465D01*
X124826000Y-70981000D01*
X124810143Y-70775471D01*
X124749146Y-70699335D01*
X124677834Y-70700785D01*
X124559866Y-70795500D01*
X124529667Y-70981000D01*
X124572052Y-71189547D01*
X124677834Y-71261215D01*
X124677834Y-71404222D01*
X124620115Y-71393239D01*
X124458122Y-71291833D01*
X124332233Y-71053638D01*
X124359115Y-70817734D01*
G36*
X124359115Y-69632401D02*
G01*
X124506172Y-69461801D01*
X124743460Y-69331612D01*
X124896194Y-69342808D01*
X124976045Y-69502417D01*
X124995334Y-69756312D01*
X125000458Y-70004507D01*
X125027027Y-70116729D01*
X125091839Y-70126276D01*
X125164667Y-70092000D01*
X125291816Y-69958369D01*
X125334907Y-69715862D01*
X125335297Y-69686854D01*
X125346735Y-69495809D01*
X125383365Y-69457706D01*
X125418667Y-69499333D01*
X125497552Y-69751082D01*
X125451983Y-70008279D01*
X125370286Y-70128286D01*
X125164333Y-70232990D01*
X124888157Y-70258907D01*
X124677834Y-70218889D01*
X124677834Y-70075882D01*
X124777931Y-70062115D01*
X124820105Y-69943132D01*
X124826000Y-69795666D01*
X124810143Y-69590138D01*
X124749146Y-69514001D01*
X124677834Y-69515451D01*
X124559866Y-69610167D01*
X124529667Y-69795666D01*
X124572052Y-70004213D01*
X124677834Y-70075882D01*
X124677834Y-70218889D01*
X124620115Y-70207906D01*
X124458122Y-70106500D01*
X124332233Y-69868305D01*
X124359115Y-69632401D01*
G37*
X124359115Y-69632401D02*
X124506172Y-69461801D01*
X124743460Y-69331612D01*
X124896194Y-69342808D01*
X124976045Y-69502417D01*
X124995334Y-69756312D01*
X125000458Y-70004507D01*
X125027027Y-70116729D01*
X125091839Y-70126276D01*
X125164667Y-70092000D01*
X125291816Y-69958369D01*
X125334907Y-69715862D01*
X125335297Y-69686854D01*
X125346735Y-69495809D01*
X125383365Y-69457706D01*
X125418667Y-69499333D01*
X125497552Y-69751082D01*
X125451983Y-70008279D01*
X125370286Y-70128286D01*
X125164333Y-70232990D01*
X124888157Y-70258907D01*
X124677834Y-70218889D01*
X124677834Y-70075882D01*
X124777931Y-70062115D01*
X124820105Y-69943132D01*
X124826000Y-69795666D01*
X124810143Y-69590138D01*
X124749146Y-69514001D01*
X124677834Y-69515451D01*
X124559866Y-69610167D01*
X124529667Y-69795666D01*
X124572052Y-70004213D01*
X124677834Y-70075882D01*
X124677834Y-70218889D01*
X124620115Y-70207906D01*
X124458122Y-70106500D01*
X124332233Y-69868305D01*
X124359115Y-69632401D01*
G36*
X124384436Y-68911926D02*
G01*
X124419600Y-68906666D01*
X124478505Y-68881676D01*
X124419600Y-68805066D01*
X124332749Y-68661431D01*
X124330536Y-68531811D01*
X124402667Y-68483333D01*
X124478271Y-68551697D01*
X124487334Y-68607354D01*
X124565524Y-68757743D01*
X124781040Y-68861507D01*
X125105303Y-68905911D01*
X125159101Y-68906666D01*
X125373222Y-68925161D01*
X125493679Y-68971445D01*
X125503334Y-68991333D01*
X125425024Y-69034765D01*
X125215138Y-69064776D01*
X124911242Y-69076000D01*
X124910667Y-69076000D01*
X124606643Y-69064813D01*
X124396566Y-69034829D01*
X124318000Y-68991415D01*
X124318000Y-68991333D01*
X124384436Y-68911926D01*
G37*
X124384436Y-68911926D02*
X124419600Y-68906666D01*
X124478505Y-68881676D01*
X124419600Y-68805066D01*
X124332749Y-68661431D01*
X124330536Y-68531811D01*
X124402667Y-68483333D01*
X124478271Y-68551697D01*
X124487334Y-68607354D01*
X124565524Y-68757743D01*
X124781040Y-68861507D01*
X125105303Y-68905911D01*
X125159101Y-68906666D01*
X125373222Y-68925161D01*
X125493679Y-68971445D01*
X125503334Y-68991333D01*
X125425024Y-69034765D01*
X125215138Y-69064776D01*
X124911242Y-69076000D01*
X124910667Y-69076000D01*
X124606643Y-69064813D01*
X124396566Y-69034829D01*
X124318000Y-68991415D01*
X124318000Y-68991333D01*
X124384436Y-68911926D01*
G36*
X124396310Y-68185901D02*
G01*
X124606196Y-68155890D01*
X124910092Y-68144667D01*
X124910667Y-68144666D01*
X125214691Y-68155854D01*
X125424768Y-68185837D01*
X125503333Y-68229251D01*
X125503334Y-68229333D01*
X125425024Y-68272765D01*
X125215138Y-68302776D01*
X124911242Y-68314000D01*
X124910667Y-68314000D01*
X124606643Y-68302813D01*
X124396566Y-68272829D01*
X124318000Y-68229415D01*
X124318000Y-68229333D01*
X124396310Y-68185901D01*
G37*
X124396310Y-68185901D02*
X124606196Y-68155890D01*
X124910092Y-68144667D01*
X124910667Y-68144666D01*
X125214691Y-68155854D01*
X125424768Y-68185837D01*
X125503333Y-68229251D01*
X125503334Y-68229333D01*
X125425024Y-68272765D01*
X125215138Y-68302776D01*
X124911242Y-68314000D01*
X124910667Y-68314000D01*
X124606643Y-68302813D01*
X124396566Y-68272829D01*
X124318000Y-68229415D01*
X124318000Y-68229333D01*
X124396310Y-68185901D01*
G36*
X124377031Y-67554407D02*
G01*
X124395312Y-67552000D01*
X124423133Y-67484260D01*
X124384259Y-67318182D01*
X124379312Y-67304787D01*
X124331014Y-67066349D01*
X124407089Y-66907853D01*
X124619895Y-66819146D01*
X124981789Y-66790071D01*
X125005700Y-66790000D01*
X125322213Y-66807228D01*
X125475665Y-66849257D01*
X125465152Y-66901602D01*
X125289770Y-66949778D01*
X125017323Y-66976275D01*
X124732961Y-67000821D01*
X124577320Y-67046482D01*
X124509905Y-67128066D01*
X124500116Y-67165404D01*
X124538683Y-67351911D01*
X124719872Y-67483750D01*
X125022174Y-67547896D01*
X125138516Y-67552000D01*
X125360058Y-67569515D01*
X125489522Y-67613629D01*
X125503334Y-67636666D01*
X125425024Y-67680098D01*
X125215138Y-67710110D01*
X124911242Y-67721333D01*
X124910667Y-67721333D01*
X124606643Y-67710146D01*
X124396566Y-67680162D01*
X124318000Y-67636749D01*
X124318000Y-67636666D01*
X124377031Y-67554407D01*
G37*
X124377031Y-67554407D02*
X124395312Y-67552000D01*
X124423133Y-67484260D01*
X124384259Y-67318182D01*
X124379312Y-67304787D01*
X124331014Y-67066349D01*
X124407089Y-66907853D01*
X124619895Y-66819146D01*
X124981789Y-66790071D01*
X125005700Y-66790000D01*
X125322213Y-66807228D01*
X125475665Y-66849257D01*
X125465152Y-66901602D01*
X125289770Y-66949778D01*
X125017323Y-66976275D01*
X124732961Y-67000821D01*
X124577320Y-67046482D01*
X124509905Y-67128066D01*
X124500116Y-67165404D01*
X124538683Y-67351911D01*
X124719872Y-67483750D01*
X125022174Y-67547896D01*
X125138516Y-67552000D01*
X125360058Y-67569515D01*
X125489522Y-67613629D01*
X125503334Y-67636666D01*
X125425024Y-67680098D01*
X125215138Y-67710110D01*
X124911242Y-67721333D01*
X124910667Y-67721333D01*
X124606643Y-67710146D01*
X124396566Y-67680162D01*
X124318000Y-67636749D01*
X124318000Y-67636666D01*
X124377031Y-67554407D01*
G36*
X122960610Y-121537839D02*
G01*
X123193165Y-121398824D01*
X123242887Y-121377518D01*
X123625691Y-121155385D01*
X124015316Y-120819526D01*
X124365250Y-120416932D01*
X124628983Y-119994594D01*
X124645290Y-119960666D01*
X124765001Y-119668368D01*
X124832767Y-119385539D01*
X124861749Y-119042799D01*
X124865949Y-118797436D01*
X124881884Y-118390275D01*
X124929896Y-118137516D01*
X125015307Y-118026358D01*
X125143438Y-118043995D01*
X125172307Y-118060389D01*
X125222709Y-118176133D01*
X125247630Y-118415537D01*
X125249085Y-118735175D01*
X125229087Y-119091618D01*
X125189652Y-119441442D01*
X125132794Y-119741219D01*
X125087498Y-119888536D01*
X124761165Y-120510017D01*
X124311356Y-121051477D01*
X123767867Y-121481859D01*
X123350185Y-121699345D01*
X123086976Y-121796839D01*
X122941708Y-121810661D01*
X122884238Y-121739265D01*
X122878984Y-121675166D01*
X122960610Y-121537839D01*
G37*
X122960610Y-121537839D02*
X123193165Y-121398824D01*
X123242887Y-121377518D01*
X123625691Y-121155385D01*
X124015316Y-120819526D01*
X124365250Y-120416932D01*
X124628983Y-119994594D01*
X124645290Y-119960666D01*
X124765001Y-119668368D01*
X124832767Y-119385539D01*
X124861749Y-119042799D01*
X124865949Y-118797436D01*
X124881884Y-118390275D01*
X124929896Y-118137516D01*
X125015307Y-118026358D01*
X125143438Y-118043995D01*
X125172307Y-118060389D01*
X125222709Y-118176133D01*
X125247630Y-118415537D01*
X125249085Y-118735175D01*
X125229087Y-119091618D01*
X125189652Y-119441442D01*
X125132794Y-119741219D01*
X125087498Y-119888536D01*
X124761165Y-120510017D01*
X124311356Y-121051477D01*
X123767867Y-121481859D01*
X123350185Y-121699345D01*
X123086976Y-121796839D01*
X122941708Y-121810661D01*
X122884238Y-121739265D01*
X122878984Y-121675166D01*
X122960610Y-121537839D01*
G36*
X122574981Y-120421949D02*
G01*
X122667724Y-120345328D01*
X122956013Y-120141060D01*
X123239946Y-119880083D01*
X123460998Y-119619043D01*
X123524815Y-119515774D01*
X123606616Y-119279241D01*
X123664004Y-118970148D01*
X123676308Y-118830409D01*
X123695924Y-118573207D01*
X123744539Y-118432400D01*
X123857326Y-118355162D01*
X124029318Y-118300206D01*
X124252409Y-118248285D01*
X124402770Y-118235627D01*
X124423834Y-118241137D01*
X124474923Y-118355048D01*
X124492742Y-118586251D01*
X124480808Y-118886751D01*
X124442639Y-119208551D01*
X124381753Y-119503656D01*
X124317527Y-119691650D01*
X124172985Y-119978176D01*
X124015524Y-120245368D01*
X123973058Y-120308146D01*
X123815176Y-120471703D01*
X123573861Y-120661122D01*
X123299104Y-120843732D01*
X123040896Y-120986866D01*
X122849229Y-121057852D01*
X122821733Y-121060539D01*
X122734478Y-120988477D01*
X122640882Y-120808391D01*
X122618890Y-120747495D01*
X122560627Y-120536420D01*
X122574981Y-120421949D01*
G37*
X122574981Y-120421949D02*
X122667724Y-120345328D01*
X122956013Y-120141060D01*
X123239946Y-119880083D01*
X123460998Y-119619043D01*
X123524815Y-119515774D01*
X123606616Y-119279241D01*
X123664004Y-118970148D01*
X123676308Y-118830409D01*
X123695924Y-118573207D01*
X123744539Y-118432400D01*
X123857326Y-118355162D01*
X124029318Y-118300206D01*
X124252409Y-118248285D01*
X124402770Y-118235627D01*
X124423834Y-118241137D01*
X124474923Y-118355048D01*
X124492742Y-118586251D01*
X124480808Y-118886751D01*
X124442639Y-119208551D01*
X124381753Y-119503656D01*
X124317527Y-119691650D01*
X124172985Y-119978176D01*
X124015524Y-120245368D01*
X123973058Y-120308146D01*
X123815176Y-120471703D01*
X123573861Y-120661122D01*
X123299104Y-120843732D01*
X123040896Y-120986866D01*
X122849229Y-121057852D01*
X122821733Y-121060539D01*
X122734478Y-120988477D01*
X122640882Y-120808391D01*
X122618890Y-120747495D01*
X122560627Y-120536420D01*
X122574981Y-120421949D01*
G36*
X123865251Y-80148536D02*
G01*
X123887435Y-80129469D01*
X123998131Y-80137918D01*
X124017198Y-80160102D01*
X124008749Y-80270797D01*
X123986565Y-80289864D01*
X123875869Y-80281415D01*
X123856803Y-80259231D01*
X123865251Y-80148536D01*
G37*
X123865251Y-80148536D02*
X123887435Y-80129469D01*
X123998131Y-80137918D01*
X124017198Y-80160102D01*
X124008749Y-80270797D01*
X123986565Y-80289864D01*
X123875869Y-80281415D01*
X123856803Y-80259231D01*
X123865251Y-80148536D01*
G36*
X123865251Y-73121202D02*
G01*
X123887435Y-73102136D01*
X123998131Y-73110584D01*
X124017198Y-73132768D01*
X124008749Y-73243464D01*
X123986565Y-73262531D01*
X123875869Y-73254082D01*
X123856803Y-73231898D01*
X123865251Y-73121202D01*
G37*
X123865251Y-73121202D02*
X123887435Y-73102136D01*
X123998131Y-73110584D01*
X124017198Y-73132768D01*
X124008749Y-73243464D01*
X123986565Y-73262531D01*
X123875869Y-73254082D01*
X123856803Y-73231898D01*
X123865251Y-73121202D01*
G36*
X123865251Y-68125869D02*
G01*
X123887435Y-68106802D01*
X123998131Y-68115251D01*
X124017198Y-68137435D01*
X124008749Y-68248131D01*
X123986565Y-68267197D01*
X123875869Y-68258749D01*
X123856803Y-68236565D01*
X123865251Y-68125869D01*
G37*
X123865251Y-68125869D02*
X123887435Y-68106802D01*
X123998131Y-68115251D01*
X124017198Y-68137435D01*
X124008749Y-68248131D01*
X123986565Y-68267197D01*
X123875869Y-68258749D01*
X123856803Y-68236565D01*
X123865251Y-68125869D01*
G36*
X122131321Y-118817611D02*
G01*
X122219946Y-118785019D01*
X122419440Y-118726763D01*
X122676100Y-118657055D01*
X122936224Y-118590109D01*
X123146110Y-118540140D01*
X123250721Y-118521333D01*
X123297875Y-118592940D01*
X123298930Y-118772659D01*
X123260972Y-119007836D01*
X123191083Y-119245819D01*
X123136799Y-119368000D01*
X123013191Y-119538676D01*
X122836834Y-119715615D01*
X122650232Y-119864407D01*
X122495885Y-119950642D01*
X122420716Y-119947749D01*
X122381583Y-119847336D01*
X122320908Y-119642334D01*
X122252057Y-119384936D01*
X122188397Y-119127338D01*
X122143292Y-118921733D01*
X122130108Y-118820316D01*
X122131321Y-118817611D01*
G37*
X122131321Y-118817611D02*
X122219946Y-118785019D01*
X122419440Y-118726763D01*
X122676100Y-118657055D01*
X122936224Y-118590109D01*
X123146110Y-118540140D01*
X123250721Y-118521333D01*
X123297875Y-118592940D01*
X123298930Y-118772659D01*
X123260972Y-119007836D01*
X123191083Y-119245819D01*
X123136799Y-119368000D01*
X123013191Y-119538676D01*
X122836834Y-119715615D01*
X122650232Y-119864407D01*
X122495885Y-119950642D01*
X122420716Y-119947749D01*
X122381583Y-119847336D01*
X122320908Y-119642334D01*
X122252057Y-119384936D01*
X122188397Y-119127338D01*
X122143292Y-118921733D01*
X122130108Y-118820316D01*
X122131321Y-118817611D01*
G36*
X121603541Y-102478003D02*
G01*
X121822089Y-102448767D01*
X122149534Y-102435196D01*
X122237619Y-102434666D01*
X122631357Y-102444111D01*
X122889238Y-102475861D01*
X123043865Y-102535038D01*
X123084286Y-102567714D01*
X123187063Y-102720982D01*
X123215013Y-102865895D01*
X123158615Y-102941170D01*
X123142542Y-102942666D01*
X123063492Y-102872205D01*
X123023468Y-102773333D01*
X122986035Y-102690899D01*
X122903213Y-102640469D01*
X122739985Y-102614362D01*
X122461335Y-102604897D01*
X122251593Y-102604000D01*
X121898347Y-102594730D01*
X121647845Y-102569204D01*
X121529496Y-102530843D01*
X121524000Y-102519333D01*
X121603541Y-102478003D01*
G37*
X121603541Y-102478003D02*
X121822089Y-102448767D01*
X122149534Y-102435196D01*
X122237619Y-102434666D01*
X122631357Y-102444111D01*
X122889238Y-102475861D01*
X123043865Y-102535038D01*
X123084286Y-102567714D01*
X123187063Y-102720982D01*
X123215013Y-102865895D01*
X123158615Y-102941170D01*
X123142542Y-102942666D01*
X123063492Y-102872205D01*
X123023468Y-102773333D01*
X122986035Y-102690899D01*
X122903213Y-102640469D01*
X122739985Y-102614362D01*
X122461335Y-102604897D01*
X122251593Y-102604000D01*
X121898347Y-102594730D01*
X121647845Y-102569204D01*
X121529496Y-102530843D01*
X121524000Y-102519333D01*
X121603541Y-102478003D01*
G36*
X121597929Y-91298460D02*
G01*
X121789540Y-91212947D01*
X121997106Y-91140457D01*
X122238971Y-91052866D01*
X122388379Y-90976290D01*
X122414452Y-90934495D01*
X122306990Y-90875822D01*
X122096978Y-90790969D01*
X121967712Y-90745097D01*
X121732399Y-90648072D01*
X121575178Y-90550952D01*
X121542717Y-90510485D01*
X121592473Y-90481796D01*
X121767349Y-90519366D01*
X122040879Y-90613996D01*
X122386593Y-90756484D01*
X122778023Y-90937630D01*
X122794000Y-90945425D01*
X123006458Y-91077358D01*
X123158581Y-91221980D01*
X123227339Y-91347063D01*
X123189702Y-91420383D01*
X123138875Y-91428000D01*
X123058765Y-91359331D01*
X123048000Y-91298272D01*
X122979773Y-91147323D01*
X122786376Y-91089803D01*
X122484730Y-91127039D01*
X122168207Y-91229315D01*
X121847729Y-91350950D01*
X121653298Y-91411517D01*
X121555442Y-91416940D01*
X121524691Y-91373142D01*
X121524000Y-91358795D01*
X121597929Y-91298460D01*
G37*
X121597929Y-91298460D02*
X121789540Y-91212947D01*
X121997106Y-91140457D01*
X122238971Y-91052866D01*
X122388379Y-90976290D01*
X122414452Y-90934495D01*
X122306990Y-90875822D01*
X122096978Y-90790969D01*
X121967712Y-90745097D01*
X121732399Y-90648072D01*
X121575178Y-90550952D01*
X121542717Y-90510485D01*
X121592473Y-90481796D01*
X121767349Y-90519366D01*
X122040879Y-90613996D01*
X122386593Y-90756484D01*
X122778023Y-90937630D01*
X122794000Y-90945425D01*
X123006458Y-91077358D01*
X123158581Y-91221980D01*
X123227339Y-91347063D01*
X123189702Y-91420383D01*
X123138875Y-91428000D01*
X123058765Y-91359331D01*
X123048000Y-91298272D01*
X122979773Y-91147323D01*
X122786376Y-91089803D01*
X122484730Y-91127039D01*
X122168207Y-91229315D01*
X121847729Y-91350950D01*
X121653298Y-91411517D01*
X121555442Y-91416940D01*
X121524691Y-91373142D01*
X121524000Y-91358795D01*
X121597929Y-91298460D01*
G36*
X118255126Y-116638047D02*
G01*
X118529792Y-116157219D01*
X118776764Y-115727214D01*
X118983672Y-115369381D01*
X119138143Y-115105068D01*
X119227806Y-114955626D01*
X119244683Y-114930428D01*
X119325932Y-114958898D01*
X119527733Y-115060397D01*
X119825500Y-115220724D01*
X120194649Y-115425681D01*
X120610592Y-115661068D01*
X121048743Y-115912686D01*
X121484518Y-116166336D01*
X121893330Y-116407818D01*
X122250592Y-116622934D01*
X122531720Y-116797483D01*
X122712127Y-116917266D01*
X122767854Y-116965198D01*
X122733170Y-117056388D01*
X122623039Y-117271018D01*
X122449426Y-117587500D01*
X122224298Y-117984247D01*
X121959618Y-118439672D01*
X121811425Y-118690666D01*
X121529767Y-119164754D01*
X121278309Y-119587140D01*
X121069455Y-119937061D01*
X120915608Y-120193751D01*
X120829175Y-120336446D01*
X120814960Y-120358733D01*
X120740771Y-120322301D01*
X120541213Y-120210843D01*
X120236412Y-120035968D01*
X119846493Y-119809282D01*
X119391581Y-119542395D01*
X119051284Y-119341444D01*
X117304146Y-118307088D01*
X118255126Y-116638047D01*
G37*
X118255126Y-116638047D02*
X118529792Y-116157219D01*
X118776764Y-115727214D01*
X118983672Y-115369381D01*
X119138143Y-115105068D01*
X119227806Y-114955626D01*
X119244683Y-114930428D01*
X119325932Y-114958898D01*
X119527733Y-115060397D01*
X119825500Y-115220724D01*
X120194649Y-115425681D01*
X120610592Y-115661068D01*
X121048743Y-115912686D01*
X121484518Y-116166336D01*
X121893330Y-116407818D01*
X122250592Y-116622934D01*
X122531720Y-116797483D01*
X122712127Y-116917266D01*
X122767854Y-116965198D01*
X122733170Y-117056388D01*
X122623039Y-117271018D01*
X122449426Y-117587500D01*
X122224298Y-117984247D01*
X121959618Y-118439672D01*
X121811425Y-118690666D01*
X121529767Y-119164754D01*
X121278309Y-119587140D01*
X121069455Y-119937061D01*
X120915608Y-120193751D01*
X120829175Y-120336446D01*
X120814960Y-120358733D01*
X120740771Y-120322301D01*
X120541213Y-120210843D01*
X120236412Y-120035968D01*
X119846493Y-119809282D01*
X119391581Y-119542395D01*
X119051284Y-119341444D01*
X117304146Y-118307088D01*
X118255126Y-116638047D01*
G36*
X121227296Y-104763675D02*
G01*
X121510985Y-104729687D01*
X121905000Y-104720666D01*
X122284393Y-104729111D01*
X122556899Y-104752621D01*
X122696516Y-104788458D01*
X122709334Y-104805333D01*
X122630595Y-104847915D01*
X122417905Y-104879952D01*
X122106555Y-104896495D01*
X122053167Y-104897339D01*
X121397000Y-104904678D01*
X122074334Y-105228164D01*
X122751667Y-105551649D01*
X122116667Y-105850305D01*
X121481667Y-106148962D01*
X122095500Y-106154481D01*
X122404106Y-106168061D01*
X122621148Y-106198970D01*
X122708992Y-106241676D01*
X122709334Y-106244666D01*
X122629108Y-106284603D01*
X122405766Y-106313287D01*
X122065311Y-106327984D01*
X121905000Y-106329333D01*
X121474664Y-106318671D01*
X121210796Y-106284275D01*
X121111731Y-106222528D01*
X121175805Y-106129816D01*
X121401350Y-106002521D01*
X121695290Y-105874028D01*
X121984988Y-105749677D01*
X122207476Y-105643783D01*
X122321064Y-105576407D01*
X122326507Y-105570288D01*
X122272373Y-105511345D01*
X122095767Y-105407113D01*
X121830734Y-105276930D01*
X121732160Y-105232665D01*
X121362775Y-105057246D01*
X121154578Y-104923346D01*
X121108956Y-104826858D01*
X121227296Y-104763675D01*
G37*
X121227296Y-104763675D02*
X121510985Y-104729687D01*
X121905000Y-104720666D01*
X122284393Y-104729111D01*
X122556899Y-104752621D01*
X122696516Y-104788458D01*
X122709334Y-104805333D01*
X122630595Y-104847915D01*
X122417905Y-104879952D01*
X122106555Y-104896495D01*
X122053167Y-104897339D01*
X121397000Y-104904678D01*
X122074334Y-105228164D01*
X122751667Y-105551649D01*
X122116667Y-105850305D01*
X121481667Y-106148962D01*
X122095500Y-106154481D01*
X122404106Y-106168061D01*
X122621148Y-106198970D01*
X122708992Y-106241676D01*
X122709334Y-106244666D01*
X122629108Y-106284603D01*
X122405766Y-106313287D01*
X122065311Y-106327984D01*
X121905000Y-106329333D01*
X121474664Y-106318671D01*
X121210796Y-106284275D01*
X121111731Y-106222528D01*
X121175805Y-106129816D01*
X121401350Y-106002521D01*
X121695290Y-105874028D01*
X121984988Y-105749677D01*
X122207476Y-105643783D01*
X122321064Y-105576407D01*
X122326507Y-105570288D01*
X122272373Y-105511345D01*
X122095767Y-105407113D01*
X121830734Y-105276930D01*
X121732160Y-105232665D01*
X121362775Y-105057246D01*
X121154578Y-104923346D01*
X121108956Y-104826858D01*
X121227296Y-104763675D01*
G36*
X121565115Y-103753067D02*
G01*
X121712172Y-103582467D01*
X121949460Y-103452279D01*
X122102194Y-103463475D01*
X122182045Y-103623084D01*
X122201334Y-103876979D01*
X122206458Y-104125173D01*
X122233027Y-104237396D01*
X122297839Y-104246943D01*
X122370667Y-104212666D01*
X122497816Y-104079036D01*
X122540907Y-103836528D01*
X122541297Y-103807521D01*
X122552735Y-103616476D01*
X122589365Y-103578373D01*
X122624667Y-103620000D01*
X122703552Y-103871749D01*
X122657983Y-104128946D01*
X122576286Y-104248952D01*
X122370333Y-104353657D01*
X122094157Y-104379573D01*
X121883834Y-104339556D01*
X121883834Y-104196548D01*
X121983931Y-104182782D01*
X122026105Y-104063799D01*
X122032000Y-103916333D01*
X122016143Y-103710805D01*
X121955146Y-103634668D01*
X121883834Y-103636118D01*
X121765866Y-103730833D01*
X121735667Y-103916333D01*
X121778052Y-104124880D01*
X121883834Y-104196548D01*
X121883834Y-104339556D01*
X121826115Y-104328573D01*
X121664122Y-104227166D01*
X121538233Y-103988972D01*
X121565115Y-103753067D01*
G37*
X121565115Y-103753067D02*
X121712172Y-103582467D01*
X121949460Y-103452279D01*
X122102194Y-103463475D01*
X122182045Y-103623084D01*
X122201334Y-103876979D01*
X122206458Y-104125173D01*
X122233027Y-104237396D01*
X122297839Y-104246943D01*
X122370667Y-104212666D01*
X122497816Y-104079036D01*
X122540907Y-103836528D01*
X122541297Y-103807521D01*
X122552735Y-103616476D01*
X122589365Y-103578373D01*
X122624667Y-103620000D01*
X122703552Y-103871749D01*
X122657983Y-104128946D01*
X122576286Y-104248952D01*
X122370333Y-104353657D01*
X122094157Y-104379573D01*
X121883834Y-104339556D01*
X121883834Y-104196548D01*
X121983931Y-104182782D01*
X122026105Y-104063799D01*
X122032000Y-103916333D01*
X122016143Y-103710805D01*
X121955146Y-103634668D01*
X121883834Y-103636118D01*
X121765866Y-103730833D01*
X121735667Y-103916333D01*
X121778052Y-104124880D01*
X121883834Y-104196548D01*
X121883834Y-104339556D01*
X121826115Y-104328573D01*
X121664122Y-104227166D01*
X121538233Y-103988972D01*
X121565115Y-103753067D01*
G36*
X121602310Y-103068568D02*
G01*
X121812196Y-103038557D01*
X122116092Y-103027333D01*
X122116667Y-103027333D01*
X122420691Y-103038520D01*
X122630768Y-103068504D01*
X122709333Y-103111918D01*
X122709334Y-103112000D01*
X122631024Y-103155432D01*
X122421138Y-103185443D01*
X122117242Y-103196666D01*
X122116667Y-103196666D01*
X121812643Y-103185479D01*
X121602566Y-103155496D01*
X121524000Y-103112082D01*
X121524000Y-103112000D01*
X121602310Y-103068568D01*
G37*
X121602310Y-103068568D02*
X121812196Y-103038557D01*
X122116092Y-103027333D01*
X122116667Y-103027333D01*
X122420691Y-103038520D01*
X122630768Y-103068504D01*
X122709333Y-103111918D01*
X122709334Y-103112000D01*
X122631024Y-103155432D01*
X122421138Y-103185443D01*
X122117242Y-103196666D01*
X122116667Y-103196666D01*
X121812643Y-103185479D01*
X121602566Y-103155496D01*
X121524000Y-103112082D01*
X121524000Y-103112000D01*
X121602310Y-103068568D01*
G36*
X121540843Y-101363699D02*
G01*
X121678626Y-101156971D01*
X121922913Y-101024576D01*
X122139699Y-100995333D01*
X122414330Y-101060110D01*
X122609757Y-101225909D01*
X122705713Y-101449932D01*
X122681929Y-101689382D01*
X122554500Y-101871211D01*
X122329200Y-101982480D01*
X122202535Y-101993141D01*
X122202535Y-101877595D01*
X122328334Y-101842000D01*
X122488704Y-101732985D01*
X122539436Y-101538036D01*
X122540000Y-101503333D01*
X122500615Y-101292739D01*
X122356607Y-101176105D01*
X122328334Y-101164666D01*
X122048071Y-101120924D01*
X121828687Y-101203699D01*
X121706725Y-101393503D01*
X121693334Y-101503333D01*
X121762092Y-101733220D01*
X121944006Y-101864471D01*
X122202535Y-101877595D01*
X122202535Y-101993141D01*
X122047892Y-102006159D01*
X121787035Y-101943511D01*
X121664122Y-101856500D01*
X121529398Y-101608847D01*
X121540843Y-101363699D01*
G37*
X121540843Y-101363699D02*
X121678626Y-101156971D01*
X121922913Y-101024576D01*
X122139699Y-100995333D01*
X122414330Y-101060110D01*
X122609757Y-101225909D01*
X122705713Y-101449932D01*
X122681929Y-101689382D01*
X122554500Y-101871211D01*
X122329200Y-101982480D01*
X122202535Y-101993141D01*
X122202535Y-101877595D01*
X122328334Y-101842000D01*
X122488704Y-101732985D01*
X122539436Y-101538036D01*
X122540000Y-101503333D01*
X122500615Y-101292739D01*
X122356607Y-101176105D01*
X122328334Y-101164666D01*
X122048071Y-101120924D01*
X121828687Y-101203699D01*
X121706725Y-101393503D01*
X121693334Y-101503333D01*
X121762092Y-101733220D01*
X121944006Y-101864471D01*
X122202535Y-101877595D01*
X122202535Y-101993141D01*
X122047892Y-102006159D01*
X121787035Y-101943511D01*
X121664122Y-101856500D01*
X121529398Y-101608847D01*
X121540843Y-101363699D01*
G36*
X121179459Y-99005338D02*
G01*
X121392745Y-98975603D01*
X121705889Y-98963412D01*
X121735667Y-98963333D01*
X122085541Y-98971632D01*
X122312141Y-99002920D01*
X122460993Y-99066781D01*
X122540000Y-99132666D01*
X122679674Y-99374688D01*
X122693270Y-99651003D01*
X122580749Y-99895078D01*
X122540484Y-99936562D01*
X122388615Y-100013337D01*
X122143801Y-100077276D01*
X121851252Y-100124026D01*
X121556179Y-100149238D01*
X121303792Y-100148560D01*
X121139304Y-100117640D01*
X121100667Y-100075134D01*
X121182010Y-100017224D01*
X121415895Y-99985098D01*
X121632161Y-99979333D01*
X122077442Y-99941310D01*
X122375056Y-99827951D01*
X122522875Y-99640317D01*
X122540000Y-99525799D01*
X122508334Y-99339529D01*
X122395519Y-99220560D01*
X122174827Y-99156096D01*
X121819534Y-99133345D01*
X121718734Y-99132666D01*
X121405090Y-99121898D01*
X121187222Y-99092860D01*
X121100889Y-99050450D01*
X121100667Y-99048000D01*
X121179459Y-99005338D01*
G37*
X121179459Y-99005338D02*
X121392745Y-98975603D01*
X121705889Y-98963412D01*
X121735667Y-98963333D01*
X122085541Y-98971632D01*
X122312141Y-99002920D01*
X122460993Y-99066781D01*
X122540000Y-99132666D01*
X122679674Y-99374688D01*
X122693270Y-99651003D01*
X122580749Y-99895078D01*
X122540484Y-99936562D01*
X122388615Y-100013337D01*
X122143801Y-100077276D01*
X121851252Y-100124026D01*
X121556179Y-100149238D01*
X121303792Y-100148560D01*
X121139304Y-100117640D01*
X121100667Y-100075134D01*
X121182010Y-100017224D01*
X121415895Y-99985098D01*
X121632161Y-99979333D01*
X122077442Y-99941310D01*
X122375056Y-99827951D01*
X122522875Y-99640317D01*
X122540000Y-99525799D01*
X122508334Y-99339529D01*
X122395519Y-99220560D01*
X122174827Y-99156096D01*
X121819534Y-99133345D01*
X121718734Y-99132666D01*
X121405090Y-99121898D01*
X121187222Y-99092860D01*
X121100889Y-99050450D01*
X121100667Y-99048000D01*
X121179459Y-99005338D01*
G36*
X121583031Y-98373073D02*
G01*
X121601312Y-98370666D01*
X121629133Y-98302927D01*
X121590259Y-98136849D01*
X121585312Y-98123454D01*
X121537014Y-97885015D01*
X121613089Y-97726520D01*
X121825895Y-97637813D01*
X122187789Y-97608737D01*
X122211700Y-97608666D01*
X122528213Y-97625895D01*
X122681665Y-97667924D01*
X122671152Y-97720269D01*
X122495770Y-97768445D01*
X122223323Y-97794941D01*
X121938961Y-97819487D01*
X121783320Y-97865148D01*
X121715905Y-97946732D01*
X121706116Y-97984070D01*
X121744683Y-98170578D01*
X121925872Y-98302417D01*
X122228174Y-98366563D01*
X122344516Y-98370666D01*
X122566058Y-98388182D01*
X122695522Y-98432296D01*
X122709334Y-98455333D01*
X122631024Y-98498765D01*
X122421138Y-98528776D01*
X122117242Y-98540000D01*
X122116667Y-98540000D01*
X121812643Y-98528813D01*
X121602566Y-98498829D01*
X121524000Y-98455415D01*
X121524000Y-98455333D01*
X121583031Y-98373073D01*
G37*
X121583031Y-98373073D02*
X121601312Y-98370666D01*
X121629133Y-98302927D01*
X121590259Y-98136849D01*
X121585312Y-98123454D01*
X121537014Y-97885015D01*
X121613089Y-97726520D01*
X121825895Y-97637813D01*
X122187789Y-97608737D01*
X122211700Y-97608666D01*
X122528213Y-97625895D01*
X122681665Y-97667924D01*
X122671152Y-97720269D01*
X122495770Y-97768445D01*
X122223323Y-97794941D01*
X121938961Y-97819487D01*
X121783320Y-97865148D01*
X121715905Y-97946732D01*
X121706116Y-97984070D01*
X121744683Y-98170578D01*
X121925872Y-98302417D01*
X122228174Y-98366563D01*
X122344516Y-98370666D01*
X122566058Y-98388182D01*
X122695522Y-98432296D01*
X122709334Y-98455333D01*
X122631024Y-98498765D01*
X122421138Y-98528776D01*
X122117242Y-98540000D01*
X122116667Y-98540000D01*
X121812643Y-98528813D01*
X121602566Y-98498829D01*
X121524000Y-98455415D01*
X121524000Y-98455333D01*
X121583031Y-98373073D01*
G36*
X121602310Y-97141901D02*
G01*
X121812196Y-97111890D01*
X122116092Y-97100667D01*
X122116667Y-97100666D01*
X122420691Y-97111854D01*
X122630768Y-97141837D01*
X122709333Y-97185251D01*
X122709334Y-97185333D01*
X122631024Y-97228765D01*
X122421138Y-97258776D01*
X122117242Y-97270000D01*
X122116667Y-97270000D01*
X121812643Y-97258813D01*
X121602566Y-97228829D01*
X121524000Y-97185415D01*
X121524000Y-97185333D01*
X121602310Y-97141901D01*
G37*
X121602310Y-97141901D02*
X121812196Y-97111890D01*
X122116092Y-97100667D01*
X122116667Y-97100666D01*
X122420691Y-97111854D01*
X122630768Y-97141837D01*
X122709333Y-97185251D01*
X122709334Y-97185333D01*
X122631024Y-97228765D01*
X122421138Y-97258776D01*
X122117242Y-97270000D01*
X122116667Y-97270000D01*
X121812643Y-97258813D01*
X121602566Y-97228829D01*
X121524000Y-97185415D01*
X121524000Y-97185333D01*
X121602310Y-97141901D01*
G36*
X121596099Y-95833677D02*
G01*
X121786884Y-95878427D01*
X122058090Y-95967837D01*
X122115587Y-95989107D01*
X122400456Y-96106842D01*
X122610500Y-96213776D01*
X122706195Y-96289371D01*
X122708253Y-96297090D01*
X122635271Y-96366764D01*
X122443114Y-96466548D01*
X122180167Y-96572274D01*
X121856449Y-96685468D01*
X121660047Y-96743632D01*
X121560191Y-96752419D01*
X121526109Y-96717480D01*
X121524000Y-96692795D01*
X121597946Y-96632641D01*
X121790093Y-96546232D01*
X122010834Y-96468206D01*
X122497667Y-96312822D01*
X122201334Y-96189227D01*
X121948364Y-96085440D01*
X121729739Y-95998450D01*
X121714500Y-95992578D01*
X121567738Y-95908436D01*
X121524000Y-95843035D01*
X121596099Y-95833677D01*
G37*
X121596099Y-95833677D02*
X121786884Y-95878427D01*
X122058090Y-95967837D01*
X122115587Y-95989107D01*
X122400456Y-96106842D01*
X122610500Y-96213776D01*
X122706195Y-96289371D01*
X122708253Y-96297090D01*
X122635271Y-96366764D01*
X122443114Y-96466548D01*
X122180167Y-96572274D01*
X121856449Y-96685468D01*
X121660047Y-96743632D01*
X121560191Y-96752419D01*
X121526109Y-96717480D01*
X121524000Y-96692795D01*
X121597946Y-96632641D01*
X121790093Y-96546232D01*
X122010834Y-96468206D01*
X122497667Y-96312822D01*
X122201334Y-96189227D01*
X121948364Y-96085440D01*
X121729739Y-95998450D01*
X121714500Y-95992578D01*
X121567738Y-95908436D01*
X121524000Y-95843035D01*
X121596099Y-95833677D01*
G36*
X121565115Y-94947734D02*
G01*
X121712172Y-94777134D01*
X121949460Y-94646945D01*
X122102194Y-94658142D01*
X122182045Y-94817750D01*
X122201334Y-95071645D01*
X122206458Y-95319840D01*
X122233027Y-95432062D01*
X122297839Y-95441610D01*
X122370667Y-95407333D01*
X122497816Y-95273702D01*
X122540907Y-95031195D01*
X122541297Y-95002188D01*
X122552735Y-94811143D01*
X122589365Y-94773039D01*
X122624667Y-94814666D01*
X122703552Y-95066416D01*
X122657983Y-95323612D01*
X122576286Y-95443619D01*
X122370333Y-95548324D01*
X122094157Y-95574240D01*
X121883834Y-95534222D01*
X121883834Y-95391215D01*
X121983931Y-95377449D01*
X122026105Y-95258465D01*
X122032000Y-95111000D01*
X122016143Y-94905471D01*
X121955146Y-94829335D01*
X121883834Y-94830785D01*
X121765866Y-94925500D01*
X121735667Y-95111000D01*
X121778052Y-95319547D01*
X121883834Y-95391215D01*
X121883834Y-95534222D01*
X121826115Y-95523239D01*
X121664122Y-95421833D01*
X121538233Y-95183638D01*
X121565115Y-94947734D01*
G37*
X121565115Y-94947734D02*
X121712172Y-94777134D01*
X121949460Y-94646945D01*
X122102194Y-94658142D01*
X122182045Y-94817750D01*
X122201334Y-95071645D01*
X122206458Y-95319840D01*
X122233027Y-95432062D01*
X122297839Y-95441610D01*
X122370667Y-95407333D01*
X122497816Y-95273702D01*
X122540907Y-95031195D01*
X122541297Y-95002188D01*
X122552735Y-94811143D01*
X122589365Y-94773039D01*
X122624667Y-94814666D01*
X122703552Y-95066416D01*
X122657983Y-95323612D01*
X122576286Y-95443619D01*
X122370333Y-95548324D01*
X122094157Y-95574240D01*
X121883834Y-95534222D01*
X121883834Y-95391215D01*
X121983931Y-95377449D01*
X122026105Y-95258465D01*
X122032000Y-95111000D01*
X122016143Y-94905471D01*
X121955146Y-94829335D01*
X121883834Y-94830785D01*
X121765866Y-94925500D01*
X121735667Y-95111000D01*
X121778052Y-95319547D01*
X121883834Y-95391215D01*
X121883834Y-95534222D01*
X121826115Y-95523239D01*
X121664122Y-95421833D01*
X121538233Y-95183638D01*
X121565115Y-94947734D01*
G36*
X121590436Y-94227259D02*
G01*
X121625600Y-94222000D01*
X121684505Y-94197009D01*
X121625600Y-94120400D01*
X121538749Y-93976764D01*
X121536536Y-93847145D01*
X121608667Y-93798666D01*
X121684271Y-93867030D01*
X121693334Y-93922688D01*
X121771524Y-94073076D01*
X121987040Y-94176840D01*
X122311303Y-94221244D01*
X122365101Y-94222000D01*
X122579222Y-94240494D01*
X122699679Y-94286779D01*
X122709334Y-94306666D01*
X122631024Y-94350098D01*
X122421138Y-94380110D01*
X122117242Y-94391333D01*
X122116667Y-94391333D01*
X121812643Y-94380146D01*
X121602566Y-94350162D01*
X121524000Y-94306749D01*
X121524000Y-94306666D01*
X121590436Y-94227259D01*
G37*
X121590436Y-94227259D02*
X121625600Y-94222000D01*
X121684505Y-94197009D01*
X121625600Y-94120400D01*
X121538749Y-93976764D01*
X121536536Y-93847145D01*
X121608667Y-93798666D01*
X121684271Y-93867030D01*
X121693334Y-93922688D01*
X121771524Y-94073076D01*
X121987040Y-94176840D01*
X122311303Y-94221244D01*
X122365101Y-94222000D01*
X122579222Y-94240494D01*
X122699679Y-94286779D01*
X122709334Y-94306666D01*
X122631024Y-94350098D01*
X122421138Y-94380110D01*
X122117242Y-94391333D01*
X122116667Y-94391333D01*
X121812643Y-94380146D01*
X121602566Y-94350162D01*
X121524000Y-94306749D01*
X121524000Y-94306666D01*
X121590436Y-94227259D01*
G36*
X121585511Y-93013751D02*
G01*
X121608667Y-92994333D01*
X121668630Y-93027418D01*
X121693293Y-93192143D01*
X121693334Y-93201003D01*
X121733007Y-93401127D01*
X121833837Y-93456493D01*
X121968537Y-93366741D01*
X122074334Y-93206000D01*
X122240135Y-93007991D01*
X122425855Y-92956063D01*
X122590658Y-93038236D01*
X122693708Y-93242531D01*
X122709334Y-93392266D01*
X122683203Y-93563149D01*
X122624667Y-93629333D01*
X122565220Y-93555761D01*
X122540007Y-93378493D01*
X122540000Y-93375333D01*
X122502637Y-93174763D01*
X122415174Y-93121333D01*
X122294517Y-93190010D01*
X122168712Y-93357169D01*
X122159000Y-93375333D01*
X121994902Y-93573852D01*
X121802718Y-93623593D01*
X121625600Y-93527733D01*
X121543958Y-93365876D01*
X121529691Y-93166084D01*
X121585511Y-93013751D01*
G37*
X121585511Y-93013751D02*
X121608667Y-92994333D01*
X121668630Y-93027418D01*
X121693293Y-93192143D01*
X121693334Y-93201003D01*
X121733007Y-93401127D01*
X121833837Y-93456493D01*
X121968537Y-93366741D01*
X122074334Y-93206000D01*
X122240135Y-93007991D01*
X122425855Y-92956063D01*
X122590658Y-93038236D01*
X122693708Y-93242531D01*
X122709334Y-93392266D01*
X122683203Y-93563149D01*
X122624667Y-93629333D01*
X122565220Y-93555761D01*
X122540007Y-93378493D01*
X122540000Y-93375333D01*
X122502637Y-93174763D01*
X122415174Y-93121333D01*
X122294517Y-93190010D01*
X122168712Y-93357169D01*
X122159000Y-93375333D01*
X121994902Y-93573852D01*
X121802718Y-93623593D01*
X121625600Y-93527733D01*
X121543958Y-93365876D01*
X121529691Y-93166084D01*
X121585511Y-93013751D01*
G36*
X121602310Y-92569901D02*
G01*
X121812196Y-92539890D01*
X122116092Y-92528667D01*
X122116667Y-92528666D01*
X122420691Y-92539854D01*
X122630768Y-92569837D01*
X122709333Y-92613251D01*
X122709334Y-92613333D01*
X122631024Y-92656765D01*
X122421138Y-92686776D01*
X122117242Y-92698000D01*
X122116667Y-92698000D01*
X121812643Y-92686813D01*
X121602566Y-92656829D01*
X121524000Y-92613415D01*
X121524000Y-92613333D01*
X121602310Y-92569901D01*
G37*
X121602310Y-92569901D02*
X121812196Y-92539890D01*
X122116092Y-92528667D01*
X122116667Y-92528666D01*
X122420691Y-92539854D01*
X122630768Y-92569837D01*
X122709333Y-92613251D01*
X122709334Y-92613333D01*
X122631024Y-92656765D01*
X122421138Y-92686776D01*
X122117242Y-92698000D01*
X122116667Y-92698000D01*
X121812643Y-92686813D01*
X121602566Y-92656829D01*
X121524000Y-92613415D01*
X121524000Y-92613333D01*
X121602310Y-92569901D01*
G36*
X121238803Y-91890927D02*
G01*
X121333500Y-91872882D01*
X121482413Y-91801035D01*
X121524000Y-91718445D01*
X121571641Y-91609605D01*
X121608667Y-91597333D01*
X121683781Y-91665910D01*
X121693334Y-91724333D01*
X121738653Y-91804199D01*
X121895561Y-91843206D01*
X122116667Y-91851333D01*
X122382885Y-91837737D01*
X122512911Y-91790665D01*
X122540000Y-91724333D01*
X122585718Y-91611661D01*
X122624667Y-91597333D01*
X122700804Y-91657273D01*
X122689116Y-91791757D01*
X122607734Y-91919066D01*
X122466759Y-91979928D01*
X122228007Y-92016209D01*
X122106789Y-92020666D01*
X121838874Y-92042505D01*
X121683623Y-92101381D01*
X121664501Y-92126500D01*
X121599180Y-92183326D01*
X121551613Y-92141491D01*
X121419789Y-92034898D01*
X121312334Y-91978428D01*
X121197178Y-91921372D01*
X121238803Y-91890927D01*
G37*
X121238803Y-91890927D02*
X121333500Y-91872882D01*
X121482413Y-91801035D01*
X121524000Y-91718445D01*
X121571641Y-91609605D01*
X121608667Y-91597333D01*
X121683781Y-91665910D01*
X121693334Y-91724333D01*
X121738653Y-91804199D01*
X121895561Y-91843206D01*
X122116667Y-91851333D01*
X122382885Y-91837737D01*
X122512911Y-91790665D01*
X122540000Y-91724333D01*
X122585718Y-91611661D01*
X122624667Y-91597333D01*
X122700804Y-91657273D01*
X122689116Y-91791757D01*
X122607734Y-91919066D01*
X122466759Y-91979928D01*
X122228007Y-92016209D01*
X122106789Y-92020666D01*
X121838874Y-92042505D01*
X121683623Y-92101381D01*
X121664501Y-92126500D01*
X121599180Y-92183326D01*
X121551613Y-92141491D01*
X121419789Y-92034898D01*
X121312334Y-91978428D01*
X121197178Y-91921372D01*
X121238803Y-91890927D01*
G36*
X121071251Y-103008536D02*
G01*
X121093435Y-102989469D01*
X121204131Y-102997918D01*
X121223198Y-103020102D01*
X121214749Y-103130797D01*
X121192565Y-103149864D01*
X121081869Y-103141415D01*
X121062803Y-103119231D01*
X121071251Y-103008536D01*
G37*
X121071251Y-103008536D02*
X121093435Y-102989469D01*
X121204131Y-102997918D01*
X121223198Y-103020102D01*
X121214749Y-103130797D01*
X121192565Y-103149864D01*
X121081869Y-103141415D01*
X121062803Y-103119231D01*
X121071251Y-103008536D01*
G36*
X121071251Y-102415869D02*
G01*
X121093435Y-102396802D01*
X121204131Y-102405251D01*
X121223198Y-102427435D01*
X121214749Y-102538131D01*
X121192565Y-102557197D01*
X121081869Y-102548749D01*
X121062803Y-102526565D01*
X121071251Y-102415869D01*
G37*
X121071251Y-102415869D02*
X121093435Y-102396802D01*
X121204131Y-102405251D01*
X121223198Y-102427435D01*
X121214749Y-102538131D01*
X121192565Y-102557197D01*
X121081869Y-102548749D01*
X121062803Y-102526565D01*
X121071251Y-102415869D01*
G36*
X121071251Y-97081869D02*
G01*
X121093435Y-97062802D01*
X121204131Y-97071251D01*
X121223198Y-97093435D01*
X121214749Y-97204131D01*
X121192565Y-97223197D01*
X121081869Y-97214749D01*
X121062803Y-97192565D01*
X121071251Y-97081869D01*
G37*
X121071251Y-97081869D02*
X121093435Y-97062802D01*
X121204131Y-97071251D01*
X121223198Y-97093435D01*
X121214749Y-97204131D01*
X121192565Y-97223197D01*
X121081869Y-97214749D01*
X121062803Y-97192565D01*
X121071251Y-97081869D01*
G36*
X121071251Y-92509869D02*
G01*
X121093435Y-92490802D01*
X121204131Y-92499251D01*
X121223198Y-92521435D01*
X121214749Y-92632131D01*
X121192565Y-92651197D01*
X121081869Y-92642749D01*
X121062803Y-92620565D01*
X121071251Y-92509869D01*
G37*
X121071251Y-92509869D02*
X121093435Y-92490802D01*
X121204131Y-92499251D01*
X121223198Y-92521435D01*
X121214749Y-92632131D01*
X121192565Y-92651197D01*
X121081869Y-92642749D01*
X121062803Y-92620565D01*
X121071251Y-92509869D01*
G36*
X117024016Y-97481666D02*
G01*
X117057151Y-97280076D01*
X117092513Y-97164166D01*
X117190897Y-97136048D01*
X117420469Y-97117519D01*
X117743370Y-97108327D01*
X118121741Y-97108217D01*
X118517723Y-97116934D01*
X118893458Y-97134225D01*
X119211085Y-97159835D01*
X119359873Y-97179392D01*
X119698317Y-97272549D01*
X119948839Y-97444236D01*
X120016039Y-97514347D01*
X120151068Y-97687523D01*
X120221710Y-97861545D01*
X120246630Y-98100504D01*
X120247316Y-98308502D01*
X120229704Y-98633494D01*
X120191146Y-98924290D01*
X120153997Y-99073955D01*
X120057373Y-99245419D01*
X119907321Y-99290368D01*
X119843182Y-99285622D01*
X119674173Y-99226870D01*
X119652119Y-99132666D01*
X119747358Y-98753096D01*
X119798461Y-98494753D01*
X119808658Y-98316291D01*
X119781180Y-98176362D01*
X119735392Y-98066786D01*
X119592597Y-97874676D01*
X119370449Y-97797083D01*
X119336365Y-97793289D01*
X119054907Y-97766245D01*
X119243001Y-98020656D01*
X119382469Y-98337327D01*
X119380901Y-98680585D01*
X119254593Y-99014409D01*
X119019843Y-99302775D01*
X118692948Y-99509662D01*
X118546705Y-99559759D01*
X118140439Y-99599350D01*
X118100882Y-99591180D01*
X118100882Y-98986796D01*
X118433247Y-98977037D01*
X118720872Y-98826067D01*
X118789494Y-98756685D01*
X118938450Y-98479182D01*
X118921272Y-98201866D01*
X118739826Y-97946121D01*
X118717010Y-97926166D01*
X118470856Y-97811691D01*
X118157376Y-97784391D01*
X117855191Y-97845574D01*
X117732839Y-97909801D01*
X117577179Y-98110769D01*
X117530965Y-98375733D01*
X117591882Y-98641472D01*
X117757615Y-98844769D01*
X117767316Y-98851315D01*
X118100882Y-98986796D01*
X118100882Y-99591180D01*
X117743387Y-99517336D01*
X117403742Y-99331471D01*
X117169695Y-99059511D01*
X117165100Y-99050771D01*
X117052041Y-98688049D01*
X117064793Y-98323144D01*
X117200950Y-98015459D01*
X117207372Y-98007153D01*
X117378077Y-97790137D01*
X117186205Y-97762902D01*
X117051988Y-97713350D01*
X117016251Y-97583019D01*
X117024016Y-97481666D01*
G37*
X117024016Y-97481666D02*
X117057151Y-97280076D01*
X117092513Y-97164166D01*
X117190897Y-97136048D01*
X117420469Y-97117519D01*
X117743370Y-97108327D01*
X118121741Y-97108217D01*
X118517723Y-97116934D01*
X118893458Y-97134225D01*
X119211085Y-97159835D01*
X119359873Y-97179392D01*
X119698317Y-97272549D01*
X119948839Y-97444236D01*
X120016039Y-97514347D01*
X120151068Y-97687523D01*
X120221710Y-97861545D01*
X120246630Y-98100504D01*
X120247316Y-98308502D01*
X120229704Y-98633494D01*
X120191146Y-98924290D01*
X120153997Y-99073955D01*
X120057373Y-99245419D01*
X119907321Y-99290368D01*
X119843182Y-99285622D01*
X119674173Y-99226870D01*
X119652119Y-99132666D01*
X119747358Y-98753096D01*
X119798461Y-98494753D01*
X119808658Y-98316291D01*
X119781180Y-98176362D01*
X119735392Y-98066786D01*
X119592597Y-97874676D01*
X119370449Y-97797083D01*
X119336365Y-97793289D01*
X119054907Y-97766245D01*
X119243001Y-98020656D01*
X119382469Y-98337327D01*
X119380901Y-98680585D01*
X119254593Y-99014409D01*
X119019843Y-99302775D01*
X118692948Y-99509662D01*
X118546705Y-99559759D01*
X118140439Y-99599350D01*
X118100882Y-99591180D01*
X118100882Y-98986796D01*
X118433247Y-98977037D01*
X118720872Y-98826067D01*
X118789494Y-98756685D01*
X118938450Y-98479182D01*
X118921272Y-98201866D01*
X118739826Y-97946121D01*
X118717010Y-97926166D01*
X118470856Y-97811691D01*
X118157376Y-97784391D01*
X117855191Y-97845574D01*
X117732839Y-97909801D01*
X117577179Y-98110769D01*
X117530965Y-98375733D01*
X117591882Y-98641472D01*
X117757615Y-98844769D01*
X117767316Y-98851315D01*
X118100882Y-98986796D01*
X118100882Y-99591180D01*
X117743387Y-99517336D01*
X117403742Y-99331471D01*
X117169695Y-99059511D01*
X117165100Y-99050771D01*
X117052041Y-98688049D01*
X117064793Y-98323144D01*
X117200950Y-98015459D01*
X117207372Y-98007153D01*
X117378077Y-97790137D01*
X117186205Y-97762902D01*
X117051988Y-97713350D01*
X117016251Y-97583019D01*
X117024016Y-97481666D01*
G36*
X115913447Y-105725353D02*
G01*
X116016858Y-105663469D01*
X116244545Y-105549536D01*
X116565282Y-105398537D01*
X116947842Y-105225454D01*
X117043845Y-105182971D01*
X117466011Y-104996305D01*
X117863203Y-104819500D01*
X118193749Y-104671182D01*
X118415979Y-104569977D01*
X118433667Y-104561753D01*
X118772334Y-104403673D01*
X118433667Y-104260339D01*
X118222411Y-104174113D01*
X117897128Y-104045113D01*
X117502072Y-103890746D01*
X117081493Y-103728419D01*
X117079000Y-103727464D01*
X116687236Y-103573179D01*
X116349613Y-103432593D01*
X116099739Y-103320236D01*
X115971223Y-103250642D01*
X115965839Y-103246127D01*
X115909317Y-103103897D01*
X115910055Y-102892069D01*
X115951432Y-102629804D01*
X117764049Y-102631614D01*
X119576667Y-102633425D01*
X119576667Y-103276274D01*
X117417667Y-103323666D01*
X118539500Y-103777341D01*
X118983781Y-103959608D01*
X119293513Y-104095553D01*
X119492399Y-104199103D01*
X119604140Y-104284184D01*
X119652441Y-104364726D01*
X119661334Y-104436517D01*
X119623543Y-104586662D01*
X119485017Y-104706956D01*
X119301500Y-104796362D01*
X119060948Y-104899820D01*
X118722746Y-105045628D01*
X118344648Y-105208877D01*
X118179667Y-105280186D01*
X117417667Y-105609666D01*
X118497167Y-105633363D01*
X119576667Y-105657059D01*
X119576667Y-106288174D01*
X115941515Y-106293186D01*
X115887859Y-106048891D01*
X115873646Y-105848271D01*
X115913447Y-105725353D01*
G37*
X115913447Y-105725353D02*
X116016858Y-105663469D01*
X116244545Y-105549536D01*
X116565282Y-105398537D01*
X116947842Y-105225454D01*
X117043845Y-105182971D01*
X117466011Y-104996305D01*
X117863203Y-104819500D01*
X118193749Y-104671182D01*
X118415979Y-104569977D01*
X118433667Y-104561753D01*
X118772334Y-104403673D01*
X118433667Y-104260339D01*
X118222411Y-104174113D01*
X117897128Y-104045113D01*
X117502072Y-103890746D01*
X117081493Y-103728419D01*
X117079000Y-103727464D01*
X116687236Y-103573179D01*
X116349613Y-103432593D01*
X116099739Y-103320236D01*
X115971223Y-103250642D01*
X115965839Y-103246127D01*
X115909317Y-103103897D01*
X115910055Y-102892069D01*
X115951432Y-102629804D01*
X117764049Y-102631614D01*
X119576667Y-102633425D01*
X119576667Y-103276274D01*
X117417667Y-103323666D01*
X118539500Y-103777341D01*
X118983781Y-103959608D01*
X119293513Y-104095553D01*
X119492399Y-104199103D01*
X119604140Y-104284184D01*
X119652441Y-104364726D01*
X119661334Y-104436517D01*
X119623543Y-104586662D01*
X119485017Y-104706956D01*
X119301500Y-104796362D01*
X119060948Y-104899820D01*
X118722746Y-105045628D01*
X118344648Y-105208877D01*
X118179667Y-105280186D01*
X117417667Y-105609666D01*
X118497167Y-105633363D01*
X119576667Y-105657059D01*
X119576667Y-106288174D01*
X115941515Y-106293186D01*
X115887859Y-106048891D01*
X115873646Y-105848271D01*
X115913447Y-105725353D01*
G36*
X116987088Y-100790977D02*
G01*
X117131109Y-100427186D01*
X117387225Y-100119403D01*
X117727519Y-99906525D01*
X117935502Y-99844902D01*
X118150887Y-99824919D01*
X118302327Y-99875125D01*
X118404176Y-100018841D01*
X118470793Y-100279392D01*
X118516533Y-100680101D01*
X118526382Y-100804833D01*
X118566717Y-101217036D01*
X118619833Y-101471397D01*
X118694962Y-101579368D01*
X118801338Y-101552404D01*
X118948192Y-101401957D01*
X118977855Y-101364915D01*
X119128058Y-101043877D01*
X119124389Y-100670775D01*
X118984617Y-100297038D01*
X118815901Y-99982250D01*
X119022139Y-99930487D01*
X119212653Y-99906562D01*
X119347046Y-99972165D01*
X119470450Y-100157463D01*
X119524038Y-100265929D01*
X119645893Y-100705576D01*
X119626183Y-101167896D01*
X119513035Y-101501645D01*
X119259541Y-101841102D01*
X118922570Y-102062798D01*
X118534851Y-102170999D01*
X118129113Y-102169971D01*
X117982759Y-102130301D01*
X117982759Y-101588000D01*
X118078124Y-101559321D01*
X118124109Y-101446220D01*
X118136200Y-101208097D01*
X118136177Y-101185833D01*
X118124763Y-100900156D01*
X118097427Y-100657416D01*
X118083969Y-100593166D01*
X118014930Y-100445027D01*
X117954277Y-100402666D01*
X117813986Y-100469889D01*
X117652452Y-100631927D01*
X117518278Y-100829341D01*
X117460065Y-101002686D01*
X117460000Y-101007194D01*
X117523980Y-101218538D01*
X117679782Y-101423530D01*
X117873202Y-101561948D01*
X117982759Y-101588000D01*
X117982759Y-102130301D01*
X117738085Y-102063979D01*
X117394496Y-101857291D01*
X117131074Y-101554171D01*
X116983077Y-101171884D01*
X116987088Y-100790977D01*
G37*
X116987088Y-100790977D02*
X117131109Y-100427186D01*
X117387225Y-100119403D01*
X117727519Y-99906525D01*
X117935502Y-99844902D01*
X118150887Y-99824919D01*
X118302327Y-99875125D01*
X118404176Y-100018841D01*
X118470793Y-100279392D01*
X118516533Y-100680101D01*
X118526382Y-100804833D01*
X118566717Y-101217036D01*
X118619833Y-101471397D01*
X118694962Y-101579368D01*
X118801338Y-101552404D01*
X118948192Y-101401957D01*
X118977855Y-101364915D01*
X119128058Y-101043877D01*
X119124389Y-100670775D01*
X118984617Y-100297038D01*
X118815901Y-99982250D01*
X119022139Y-99930487D01*
X119212653Y-99906562D01*
X119347046Y-99972165D01*
X119470450Y-100157463D01*
X119524038Y-100265929D01*
X119645893Y-100705576D01*
X119626183Y-101167896D01*
X119513035Y-101501645D01*
X119259541Y-101841102D01*
X118922570Y-102062798D01*
X118534851Y-102170999D01*
X118129113Y-102169971D01*
X117982759Y-102130301D01*
X117982759Y-101588000D01*
X118078124Y-101559321D01*
X118124109Y-101446220D01*
X118136200Y-101208097D01*
X118136177Y-101185833D01*
X118124763Y-100900156D01*
X118097427Y-100657416D01*
X118083969Y-100593166D01*
X118014930Y-100445027D01*
X117954277Y-100402666D01*
X117813986Y-100469889D01*
X117652452Y-100631927D01*
X117518278Y-100829341D01*
X117460065Y-101002686D01*
X117460000Y-101007194D01*
X117523980Y-101218538D01*
X117679782Y-101423530D01*
X117873202Y-101561948D01*
X117982759Y-101588000D01*
X117982759Y-102130301D01*
X117738085Y-102063979D01*
X117394496Y-101857291D01*
X117131074Y-101554171D01*
X116983077Y-101171884D01*
X116987088Y-100790977D01*
G36*
X117101297Y-90331298D02*
G01*
X117331176Y-89928038D01*
X117572042Y-89701183D01*
X117867937Y-89567753D01*
X118243950Y-89514611D01*
X118631085Y-89541807D01*
X118960345Y-89649391D01*
X119041292Y-89700118D01*
X119396085Y-90047753D01*
X119600619Y-90442952D01*
X119648902Y-90865371D01*
X119534944Y-91294667D01*
X119520053Y-91325837D01*
X119355096Y-91546510D01*
X119105623Y-91761287D01*
X119009983Y-91823058D01*
X118591963Y-91985764D01*
X118306345Y-92001047D01*
X118306345Y-91466485D01*
X118570136Y-91440277D01*
X118765080Y-91334667D01*
X118907998Y-91191907D01*
X119096960Y-90927599D01*
X119136865Y-90696857D01*
X119029483Y-90456272D01*
X118942595Y-90343877D01*
X118653242Y-90111329D01*
X118318971Y-90041293D01*
X117996003Y-90116198D01*
X117711741Y-90311096D01*
X117565206Y-90579276D01*
X117564304Y-90885302D01*
X117716941Y-91193735D01*
X117747348Y-91230854D01*
X117930787Y-91394396D01*
X118150746Y-91459678D01*
X118306345Y-91466485D01*
X118306345Y-92001047D01*
X118169763Y-92008356D01*
X117773388Y-91906212D01*
X117432845Y-91694711D01*
X117178138Y-91389233D01*
X117039273Y-91005155D01*
X117022556Y-90804428D01*
X117101297Y-90331298D01*
G37*
X117101297Y-90331298D02*
X117331176Y-89928038D01*
X117572042Y-89701183D01*
X117867937Y-89567753D01*
X118243950Y-89514611D01*
X118631085Y-89541807D01*
X118960345Y-89649391D01*
X119041292Y-89700118D01*
X119396085Y-90047753D01*
X119600619Y-90442952D01*
X119648902Y-90865371D01*
X119534944Y-91294667D01*
X119520053Y-91325837D01*
X119355096Y-91546510D01*
X119105623Y-91761287D01*
X119009983Y-91823058D01*
X118591963Y-91985764D01*
X118306345Y-92001047D01*
X118306345Y-91466485D01*
X118570136Y-91440277D01*
X118765080Y-91334667D01*
X118907998Y-91191907D01*
X119096960Y-90927599D01*
X119136865Y-90696857D01*
X119029483Y-90456272D01*
X118942595Y-90343877D01*
X118653242Y-90111329D01*
X118318971Y-90041293D01*
X117996003Y-90116198D01*
X117711741Y-90311096D01*
X117565206Y-90579276D01*
X117564304Y-90885302D01*
X117716941Y-91193735D01*
X117747348Y-91230854D01*
X117930787Y-91394396D01*
X118150746Y-91459678D01*
X118306345Y-91466485D01*
X118306345Y-92001047D01*
X118169763Y-92008356D01*
X117773388Y-91906212D01*
X117432845Y-91694711D01*
X117178138Y-91389233D01*
X117039273Y-91005155D01*
X117022556Y-90804428D01*
X117101297Y-90331298D01*
G36*
X119087872Y-87025333D02*
G01*
X119054817Y-86132348D01*
X119021761Y-85239362D01*
X119319676Y-85264514D01*
X119547337Y-85317994D01*
X119621773Y-85416666D01*
X119621299Y-85546769D01*
X119616950Y-85808769D01*
X119609449Y-86165293D01*
X119599514Y-86578969D01*
X119598928Y-86602000D01*
X119571900Y-87660333D01*
X117753950Y-87662261D01*
X115936000Y-87664190D01*
X115936000Y-87025333D01*
X119087872Y-87025333D01*
G37*
X119087872Y-87025333D02*
X119054817Y-86132348D01*
X119021761Y-85239362D01*
X119319676Y-85264514D01*
X119547337Y-85317994D01*
X119621773Y-85416666D01*
X119621299Y-85546769D01*
X119616950Y-85808769D01*
X119609449Y-86165293D01*
X119599514Y-86578969D01*
X119598928Y-86602000D01*
X119571900Y-87660333D01*
X117753950Y-87662261D01*
X115936000Y-87664190D01*
X115936000Y-87025333D01*
X119087872Y-87025333D01*
G36*
X117068068Y-83457839D02*
G01*
X117194455Y-83212842D01*
X117331547Y-83013951D01*
X117363841Y-82913040D01*
X117295835Y-82878751D01*
X117242710Y-82876666D01*
X117146739Y-82821830D01*
X117136876Y-82643833D01*
X117163667Y-82411000D01*
X118363693Y-82400608D01*
X119563718Y-82390216D01*
X119615116Y-82595002D01*
X119629532Y-82830759D01*
X119527791Y-82948506D01*
X119444670Y-82961333D01*
X119350831Y-82973665D01*
X119337274Y-83034687D01*
X119408735Y-83180441D01*
X119491684Y-83319120D01*
X119627738Y-83673357D01*
X119644499Y-84050215D01*
X119601540Y-84231333D01*
X119465211Y-84451450D01*
X119238601Y-84683731D01*
X118983400Y-84865653D01*
X118967038Y-84874378D01*
X118648489Y-84969716D01*
X118322410Y-84987455D01*
X118322410Y-84396032D01*
X118612709Y-84346214D01*
X118870708Y-84211558D01*
X119061082Y-83992812D01*
X119147967Y-83697962D01*
X119116104Y-83582005D01*
X119031690Y-83395061D01*
X119027806Y-83387514D01*
X118820890Y-83140605D01*
X118547221Y-83014171D01*
X118246187Y-82999064D01*
X117957179Y-83086138D01*
X117719586Y-83266245D01*
X117572798Y-83530236D01*
X117544667Y-83731947D01*
X117610937Y-84028969D01*
X117786200Y-84238158D01*
X118035132Y-84360263D01*
X118322410Y-84396032D01*
X118322410Y-84987455D01*
X118256455Y-84991044D01*
X117868283Y-84940961D01*
X117569944Y-84827428D01*
X117277254Y-84562863D01*
X117088953Y-84215918D01*
X117015678Y-83832329D01*
X117068068Y-83457839D01*
G37*
X117068068Y-83457839D02*
X117194455Y-83212842D01*
X117331547Y-83013951D01*
X117363841Y-82913040D01*
X117295835Y-82878751D01*
X117242710Y-82876666D01*
X117146739Y-82821830D01*
X117136876Y-82643833D01*
X117163667Y-82411000D01*
X118363693Y-82400608D01*
X119563718Y-82390216D01*
X119615116Y-82595002D01*
X119629532Y-82830759D01*
X119527791Y-82948506D01*
X119444670Y-82961333D01*
X119350831Y-82973665D01*
X119337274Y-83034687D01*
X119408735Y-83180441D01*
X119491684Y-83319120D01*
X119627738Y-83673357D01*
X119644499Y-84050215D01*
X119601540Y-84231333D01*
X119465211Y-84451450D01*
X119238601Y-84683731D01*
X118983400Y-84865653D01*
X118967038Y-84874378D01*
X118648489Y-84969716D01*
X118322410Y-84987455D01*
X118322410Y-84396032D01*
X118612709Y-84346214D01*
X118870708Y-84211558D01*
X119061082Y-83992812D01*
X119147967Y-83697962D01*
X119116104Y-83582005D01*
X119031690Y-83395061D01*
X119027806Y-83387514D01*
X118820890Y-83140605D01*
X118547221Y-83014171D01*
X118246187Y-82999064D01*
X117957179Y-83086138D01*
X117719586Y-83266245D01*
X117572798Y-83530236D01*
X117544667Y-83731947D01*
X117610937Y-84028969D01*
X117786200Y-84238158D01*
X118035132Y-84360263D01*
X118322410Y-84396032D01*
X118322410Y-84987455D01*
X118256455Y-84991044D01*
X117868283Y-84940961D01*
X117569944Y-84827428D01*
X117277254Y-84562863D01*
X117088953Y-84215918D01*
X117015678Y-83832329D01*
X117068068Y-83457839D01*
G36*
X116625901Y-81324827D02*
G01*
X117400469Y-81379807D01*
X117204457Y-81114687D01*
X117053269Y-80788371D01*
X117008243Y-80406790D01*
X117072261Y-80041029D01*
X117154156Y-79873633D01*
X117442100Y-79576032D01*
X117816410Y-79389608D01*
X118236947Y-79314534D01*
X118663570Y-79350983D01*
X119056140Y-79499127D01*
X119374517Y-79759140D01*
X119452690Y-79863732D01*
X119607059Y-80231536D01*
X119626140Y-80621447D01*
X119507725Y-80976341D01*
X119496447Y-80994880D01*
X119370009Y-81206131D01*
X119333189Y-81312336D01*
X119381329Y-81349111D01*
X119449667Y-81352666D01*
X119543598Y-81416926D01*
X119576437Y-81622011D01*
X119576667Y-81649000D01*
X119576667Y-81945333D01*
X118114134Y-81945333D01*
X118114134Y-81310421D01*
X118484649Y-81297794D01*
X118563956Y-81277017D01*
X118878428Y-81113498D01*
X119063561Y-80871888D01*
X119110798Y-80587398D01*
X119011581Y-80295236D01*
X118849091Y-80103833D01*
X118567317Y-79939774D01*
X118266928Y-79902503D01*
X117979180Y-79971944D01*
X117735332Y-80128023D01*
X117566642Y-80350664D01*
X117504367Y-80619791D01*
X117579765Y-80915328D01*
X117581211Y-80918138D01*
X117803252Y-81180314D01*
X118114134Y-81310421D01*
X118114134Y-81945333D01*
X115851334Y-81945333D01*
X115851334Y-81269846D01*
X116625901Y-81324827D01*
G37*
X116625901Y-81324827D02*
X117400469Y-81379807D01*
X117204457Y-81114687D01*
X117053269Y-80788371D01*
X117008243Y-80406790D01*
X117072261Y-80041029D01*
X117154156Y-79873633D01*
X117442100Y-79576032D01*
X117816410Y-79389608D01*
X118236947Y-79314534D01*
X118663570Y-79350983D01*
X119056140Y-79499127D01*
X119374517Y-79759140D01*
X119452690Y-79863732D01*
X119607059Y-80231536D01*
X119626140Y-80621447D01*
X119507725Y-80976341D01*
X119496447Y-80994880D01*
X119370009Y-81206131D01*
X119333189Y-81312336D01*
X119381329Y-81349111D01*
X119449667Y-81352666D01*
X119543598Y-81416926D01*
X119576437Y-81622011D01*
X119576667Y-81649000D01*
X119576667Y-81945333D01*
X118114134Y-81945333D01*
X118114134Y-81310421D01*
X118484649Y-81297794D01*
X118563956Y-81277017D01*
X118878428Y-81113498D01*
X119063561Y-80871888D01*
X119110798Y-80587398D01*
X119011581Y-80295236D01*
X118849091Y-80103833D01*
X118567317Y-79939774D01*
X118266928Y-79902503D01*
X117979180Y-79971944D01*
X117735332Y-80128023D01*
X117566642Y-80350664D01*
X117504367Y-80619791D01*
X117579765Y-80915328D01*
X117581211Y-80918138D01*
X117803252Y-81180314D01*
X118114134Y-81310421D01*
X118114134Y-81945333D01*
X115851334Y-81945333D01*
X115851334Y-81269846D01*
X116625901Y-81324827D01*
G36*
X117729127Y-96002670D02*
G01*
X118193526Y-96015272D01*
X118519532Y-96013277D01*
X118737812Y-95991661D01*
X118879037Y-95945398D01*
X118973875Y-95869465D01*
X119033715Y-95788950D01*
X119127394Y-95504618D01*
X119055114Y-95195049D01*
X118952451Y-95026333D01*
X118869881Y-94945202D01*
X118739747Y-94889917D01*
X118526812Y-94852679D01*
X118195842Y-94825687D01*
X117996274Y-94814666D01*
X117163667Y-94772333D01*
X117137136Y-94497166D01*
X117110605Y-94222000D01*
X119576667Y-94222000D01*
X119576667Y-94518333D01*
X119557725Y-94722572D01*
X119483778Y-94804980D01*
X119407334Y-94814666D01*
X119283736Y-94824062D01*
X119251276Y-94876719D01*
X119309923Y-95009343D01*
X119407017Y-95172453D01*
X119546842Y-95519553D01*
X119575645Y-95882215D01*
X119494791Y-96205866D01*
X119376857Y-96376840D01*
X119139944Y-96516640D01*
X118777422Y-96610099D01*
X118327953Y-96651961D01*
X117830203Y-96636973D01*
X117629334Y-96614308D01*
X117362912Y-96571932D01*
X117220932Y-96518515D01*
X117159671Y-96423168D01*
X117136461Y-96266114D01*
X117109254Y-95981894D01*
X117729127Y-96002670D01*
G37*
X117729127Y-96002670D02*
X118193526Y-96015272D01*
X118519532Y-96013277D01*
X118737812Y-95991661D01*
X118879037Y-95945398D01*
X118973875Y-95869465D01*
X119033715Y-95788950D01*
X119127394Y-95504618D01*
X119055114Y-95195049D01*
X118952451Y-95026333D01*
X118869881Y-94945202D01*
X118739747Y-94889917D01*
X118526812Y-94852679D01*
X118195842Y-94825687D01*
X117996274Y-94814666D01*
X117163667Y-94772333D01*
X117137136Y-94497166D01*
X117110605Y-94222000D01*
X119576667Y-94222000D01*
X119576667Y-94518333D01*
X119557725Y-94722572D01*
X119483778Y-94804980D01*
X119407334Y-94814666D01*
X119283736Y-94824062D01*
X119251276Y-94876719D01*
X119309923Y-95009343D01*
X119407017Y-95172453D01*
X119546842Y-95519553D01*
X119575645Y-95882215D01*
X119494791Y-96205866D01*
X119376857Y-96376840D01*
X119139944Y-96516640D01*
X118777422Y-96610099D01*
X118327953Y-96651961D01*
X117830203Y-96636973D01*
X117629334Y-96614308D01*
X117362912Y-96571932D01*
X117220932Y-96518515D01*
X117159671Y-96423168D01*
X117136461Y-96266114D01*
X117109254Y-95981894D01*
X117729127Y-96002670D01*
G36*
X117142985Y-93166170D02*
G01*
X117198762Y-93147758D01*
X117312378Y-93098448D01*
X117300545Y-93005753D01*
X117250000Y-92921967D01*
X117152665Y-92699173D01*
X117105691Y-92486333D01*
X117102546Y-92318857D01*
X117171123Y-92241171D01*
X117356884Y-92209459D01*
X117396500Y-92206056D01*
X117602187Y-92197565D01*
X117691738Y-92248911D01*
X117713472Y-92405835D01*
X117714000Y-92506622D01*
X117738880Y-92745192D01*
X117800264Y-92915988D01*
X117815600Y-92935066D01*
X117960665Y-92989015D01*
X118259967Y-93023363D01*
X118699378Y-93036568D01*
X118746934Y-93036666D01*
X119576667Y-93036666D01*
X119576667Y-93607627D01*
X118370167Y-93648675D01*
X117939285Y-93662717D01*
X117575078Y-93673411D01*
X117307855Y-93679959D01*
X117167920Y-93681561D01*
X117154411Y-93680695D01*
X117130457Y-93602033D01*
X117087530Y-93431791D01*
X117067898Y-93251025D01*
X117142985Y-93166170D01*
G37*
X117142985Y-93166170D02*
X117198762Y-93147758D01*
X117312378Y-93098448D01*
X117300545Y-93005753D01*
X117250000Y-92921967D01*
X117152665Y-92699173D01*
X117105691Y-92486333D01*
X117102546Y-92318857D01*
X117171123Y-92241171D01*
X117356884Y-92209459D01*
X117396500Y-92206056D01*
X117602187Y-92197565D01*
X117691738Y-92248911D01*
X117713472Y-92405835D01*
X117714000Y-92506622D01*
X117738880Y-92745192D01*
X117800264Y-92915988D01*
X117815600Y-92935066D01*
X117960665Y-92989015D01*
X118259967Y-93023363D01*
X118699378Y-93036568D01*
X118746934Y-93036666D01*
X119576667Y-93036666D01*
X119576667Y-93607627D01*
X118370167Y-93648675D01*
X117939285Y-93662717D01*
X117575078Y-93673411D01*
X117307855Y-93679959D01*
X117167920Y-93681561D01*
X117154411Y-93680695D01*
X117130457Y-93602033D01*
X117087530Y-93431791D01*
X117067898Y-93251025D01*
X117142985Y-93166170D01*
G36*
X114364949Y-124925433D02*
G01*
X114458782Y-124762961D01*
X114624338Y-124475716D01*
X114848937Y-124085723D01*
X115119900Y-123615008D01*
X115424544Y-123085595D01*
X115750190Y-122519510D01*
X115828235Y-122383816D01*
X117088449Y-120192633D01*
X118008396Y-119780709D01*
X118368697Y-119623903D01*
X118669711Y-119501439D01*
X118879956Y-119425533D01*
X118967955Y-119408399D01*
X118967959Y-119408403D01*
X118991479Y-119503433D01*
X119025866Y-119732296D01*
X119066418Y-120060206D01*
X119106660Y-120434655D01*
X119205744Y-121421289D01*
X118702802Y-122278478D01*
X118462763Y-122687141D01*
X118188955Y-123152553D01*
X117893684Y-123653871D01*
X117589256Y-124170254D01*
X117287977Y-124680863D01*
X117002154Y-125164855D01*
X116744093Y-125601390D01*
X116526100Y-125969626D01*
X116360481Y-126248723D01*
X116259542Y-126417840D01*
X116233798Y-126459839D01*
X116158772Y-126427447D01*
X115964709Y-126323312D01*
X115678142Y-126162188D01*
X115325610Y-125958831D01*
X115189045Y-125878939D01*
X114161879Y-125275867D01*
X114364949Y-124925433D01*
G37*
X114364949Y-124925433D02*
X114458782Y-124762961D01*
X114624338Y-124475716D01*
X114848937Y-124085723D01*
X115119900Y-123615008D01*
X115424544Y-123085595D01*
X115750190Y-122519510D01*
X115828235Y-122383816D01*
X117088449Y-120192633D01*
X118008396Y-119780709D01*
X118368697Y-119623903D01*
X118669711Y-119501439D01*
X118879956Y-119425533D01*
X118967955Y-119408399D01*
X118967959Y-119408403D01*
X118991479Y-119503433D01*
X119025866Y-119732296D01*
X119066418Y-120060206D01*
X119106660Y-120434655D01*
X119205744Y-121421289D01*
X118702802Y-122278478D01*
X118462763Y-122687141D01*
X118188955Y-123152553D01*
X117893684Y-123653871D01*
X117589256Y-124170254D01*
X117287977Y-124680863D01*
X117002154Y-125164855D01*
X116744093Y-125601390D01*
X116526100Y-125969626D01*
X116360481Y-126248723D01*
X116259542Y-126417840D01*
X116233798Y-126459839D01*
X116158772Y-126427447D01*
X115964709Y-126323312D01*
X115678142Y-126162188D01*
X115325610Y-125958831D01*
X115189045Y-125878939D01*
X114161879Y-125275867D01*
X114364949Y-124925433D01*
D11*
%TO.C,C1*%
X165225000Y-70130580D02*
X165225000Y-69849420D01*
X166245000Y-70130580D02*
X166245000Y-69849420D01*
%TO.C,C2*%
X146348750Y-71353750D02*
X147136250Y-71353750D01*
X146742500Y-71747500D02*
X146742500Y-70960000D01*
X150935563Y-70720000D02*
X152000000Y-69655563D01*
X146244437Y-70720000D02*
X145180000Y-69655563D01*
X146244437Y-70720000D02*
X147530000Y-70720000D01*
X150935563Y-70720000D02*
X149650000Y-70720000D01*
X152000000Y-69655563D02*
X152000000Y-63900000D01*
X145180000Y-69655563D02*
X145180000Y-63900000D01*
X145180000Y-63900000D02*
X147530000Y-63900000D01*
X152000000Y-63900000D02*
X149650000Y-63900000D01*
%TO.C,C4*%
X135380000Y-111124420D02*
X135380000Y-111405580D01*
X136400000Y-111124420D02*
X136400000Y-111405580D01*
%TO.C,C5*%
X138940000Y-111124420D02*
X138940000Y-111405580D01*
X137920000Y-111124420D02*
X137920000Y-111405580D01*
%TO.C,C6*%
X135365580Y-80490000D02*
X135084420Y-80490000D01*
X135365580Y-81510000D02*
X135084420Y-81510000D01*
%TO.C,C7*%
X141235000Y-111124420D02*
X141235000Y-111405580D01*
X142255000Y-111124420D02*
X142255000Y-111405580D01*
%TO.C,C8*%
X135365580Y-77510000D02*
X135084420Y-77510000D01*
X135365580Y-76490000D02*
X135084420Y-76490000D01*
%TO.C,C9*%
X145290000Y-111124420D02*
X145290000Y-111405580D01*
X144270000Y-111124420D02*
X144270000Y-111405580D01*
%TO.C,C10*%
X145540000Y-89535580D02*
X145540000Y-89254420D01*
X146560000Y-89535580D02*
X146560000Y-89254420D01*
%TO.C,C11*%
X141861000Y-89535580D02*
X141861000Y-89254420D01*
X140841000Y-89535580D02*
X140841000Y-89254420D01*
%TO.C,C12*%
X137920000Y-89535580D02*
X137920000Y-89254420D01*
X138940000Y-89535580D02*
X138940000Y-89254420D01*
%TO.C,C13*%
X135130000Y-89535580D02*
X135130000Y-89254420D01*
X134110000Y-89535580D02*
X134110000Y-89254420D01*
D13*
%TO.C,U1*%
G36*
X152527000Y-123063000D02*
G01*
X152273000Y-123317000D01*
X152019000Y-122936000D01*
X152273000Y-122682000D01*
X152527000Y-123063000D01*
G37*
X152527000Y-123063000D02*
X152273000Y-123317000D01*
X152019000Y-122936000D01*
X152273000Y-122682000D01*
X152527000Y-123063000D01*
G36*
X152146000Y-123444000D02*
G01*
X151892000Y-123698000D01*
X151638000Y-123317000D01*
X151892000Y-123063000D01*
X152146000Y-123444000D01*
G37*
X152146000Y-123444000D02*
X151892000Y-123698000D01*
X151638000Y-123317000D01*
X151892000Y-123063000D01*
X152146000Y-123444000D01*
G36*
X150241000Y-122682000D02*
G01*
X149987000Y-122936000D01*
X149733000Y-122555000D01*
X149987000Y-122301000D01*
X150241000Y-122682000D01*
G37*
X150241000Y-122682000D02*
X149987000Y-122936000D01*
X149733000Y-122555000D01*
X149987000Y-122301000D01*
X150241000Y-122682000D01*
G36*
X150622000Y-123190000D02*
G01*
X150368000Y-123444000D01*
X150114000Y-123063000D01*
X150368000Y-122809000D01*
X150622000Y-123190000D01*
G37*
X150622000Y-123190000D02*
X150368000Y-123444000D01*
X150114000Y-123063000D01*
X150368000Y-122809000D01*
X150622000Y-123190000D01*
G36*
X151003000Y-123698000D02*
G01*
X150749000Y-123952000D01*
X150495000Y-123571000D01*
X150749000Y-123317000D01*
X151003000Y-123698000D01*
G37*
X151003000Y-123698000D02*
X150749000Y-123952000D01*
X150495000Y-123571000D01*
X150749000Y-123317000D01*
X151003000Y-123698000D01*
G36*
X151003000Y-122809000D02*
G01*
X150749000Y-123063000D01*
X150495000Y-122682000D01*
X150749000Y-122428000D01*
X151003000Y-122809000D01*
G37*
X151003000Y-122809000D02*
X150749000Y-123063000D01*
X150495000Y-122682000D01*
X150749000Y-122428000D01*
X151003000Y-122809000D01*
G36*
X151384000Y-123317000D02*
G01*
X151130000Y-123571000D01*
X150876000Y-123190000D01*
X151130000Y-122936000D01*
X151384000Y-123317000D01*
G37*
X151384000Y-123317000D02*
X151130000Y-123571000D01*
X150876000Y-123190000D01*
X151130000Y-122936000D01*
X151384000Y-123317000D01*
G36*
X151765000Y-123825000D02*
G01*
X151511000Y-124079000D01*
X151257000Y-123698000D01*
X151511000Y-123444000D01*
X151765000Y-123825000D01*
G37*
X151765000Y-123825000D02*
X151511000Y-124079000D01*
X151257000Y-123698000D01*
X151511000Y-123444000D01*
X151765000Y-123825000D01*
D10*
X143510000Y-125095000D02*
X143510000Y-128270000D01*
X140970000Y-125095000D02*
X143510000Y-125095000D01*
X140970000Y-128270000D02*
X140970000Y-125095000D01*
X143510000Y-128270000D02*
X140970000Y-128270000D01*
X166370000Y-114300000D02*
X166370000Y-132080000D01*
X130810000Y-114300000D02*
X166370000Y-114300000D01*
X130810000Y-132080000D02*
X130810000Y-114300000D01*
X166370000Y-132080000D02*
X130810000Y-132080000D01*
X144145000Y-118110000D02*
X154305000Y-118110000D01*
X144145000Y-128270000D02*
X154305000Y-128270000D01*
X154305000Y-128270000D02*
X154305000Y-118110000D01*
X144145000Y-118110000D02*
X144145000Y-128270000D01*
X161290000Y-119380000D02*
X166370000Y-119380000D01*
X161290000Y-127000000D02*
X166370000Y-127000000D01*
X161290000Y-119380000D02*
X161290000Y-127000000D01*
X167640000Y-127000000D02*
X166370000Y-127000000D01*
X167640000Y-119380000D02*
X167640000Y-127000000D01*
X166370000Y-119380000D02*
X167640000Y-119380000D01*
D11*
%TO.C,U2*%
X162160000Y-67630000D02*
X162160000Y-73640000D01*
X155340000Y-69880000D02*
X155340000Y-73640000D01*
X162160000Y-73640000D02*
X160900000Y-73640000D01*
X155340000Y-73640000D02*
X156600000Y-73640000D01*
%TO.C,U3*%
D10*
X127711380Y-101152904D02*
X128520904Y-101152904D01*
X128616142Y-101105285D01*
X128663761Y-101057666D01*
X128711380Y-100962428D01*
X128711380Y-100771952D01*
X128663761Y-100676714D01*
X128616142Y-100629095D01*
X128520904Y-100581476D01*
X127711380Y-100581476D01*
X127711380Y-100200523D02*
X127711380Y-99581476D01*
X128092333Y-99914809D01*
X128092333Y-99771952D01*
X128139952Y-99676714D01*
X128187571Y-99629095D01*
X128282809Y-99581476D01*
X128520904Y-99581476D01*
X128616142Y-99629095D01*
X128663761Y-99676714D01*
X128711380Y-99771952D01*
X128711380Y-100057666D01*
X128663761Y-100152904D01*
X128616142Y-100200523D01*
%TO.C,L1*%
X136993333Y-71412380D02*
X136517142Y-71412380D01*
X136517142Y-70412380D01*
X137850476Y-71412380D02*
X137279047Y-71412380D01*
X137564761Y-71412380D02*
X137564761Y-70412380D01*
X137469523Y-70555238D01*
X137374285Y-70650476D01*
X137279047Y-70698095D01*
%TO.C,C1*%
X164662142Y-70156666D02*
X164709761Y-70204285D01*
X164757380Y-70347142D01*
X164757380Y-70442380D01*
X164709761Y-70585238D01*
X164614523Y-70680476D01*
X164519285Y-70728095D01*
X164328809Y-70775714D01*
X164185952Y-70775714D01*
X163995476Y-70728095D01*
X163900238Y-70680476D01*
X163805000Y-70585238D01*
X163757380Y-70442380D01*
X163757380Y-70347142D01*
X163805000Y-70204285D01*
X163852619Y-70156666D01*
X164757380Y-69204285D02*
X164757380Y-69775714D01*
X164757380Y-69490000D02*
X163757380Y-69490000D01*
X163900238Y-69585238D01*
X163995476Y-69680476D01*
X164043095Y-69775714D01*
%TO.C,C2*%
X144597142Y-67476666D02*
X144644761Y-67524285D01*
X144692380Y-67667142D01*
X144692380Y-67762380D01*
X144644761Y-67905238D01*
X144549523Y-68000476D01*
X144454285Y-68048095D01*
X144263809Y-68095714D01*
X144120952Y-68095714D01*
X143930476Y-68048095D01*
X143835238Y-68000476D01*
X143740000Y-67905238D01*
X143692380Y-67762380D01*
X143692380Y-67667142D01*
X143740000Y-67524285D01*
X143787619Y-67476666D01*
X143787619Y-67095714D02*
X143740000Y-67048095D01*
X143692380Y-66952857D01*
X143692380Y-66714761D01*
X143740000Y-66619523D01*
X143787619Y-66571904D01*
X143882857Y-66524285D01*
X143978095Y-66524285D01*
X144120952Y-66571904D01*
X144692380Y-67143333D01*
X144692380Y-66524285D01*
%TO.C,C4*%
X137677142Y-111431666D02*
X137724761Y-111479285D01*
X137772380Y-111622142D01*
X137772380Y-111717380D01*
X137724761Y-111860238D01*
X137629523Y-111955476D01*
X137534285Y-112003095D01*
X137343809Y-112050714D01*
X137200952Y-112050714D01*
X137010476Y-112003095D01*
X136915238Y-111955476D01*
X136820000Y-111860238D01*
X136772380Y-111717380D01*
X136772380Y-111622142D01*
X136820000Y-111479285D01*
X136867619Y-111431666D01*
X137105714Y-110574523D02*
X137772380Y-110574523D01*
X136724761Y-110812619D02*
X137439047Y-111050714D01*
X137439047Y-110431666D01*
%TO.C,C5*%
X140217142Y-111431666D02*
X140264761Y-111479285D01*
X140312380Y-111622142D01*
X140312380Y-111717380D01*
X140264761Y-111860238D01*
X140169523Y-111955476D01*
X140074285Y-112003095D01*
X139883809Y-112050714D01*
X139740952Y-112050714D01*
X139550476Y-112003095D01*
X139455238Y-111955476D01*
X139360000Y-111860238D01*
X139312380Y-111717380D01*
X139312380Y-111622142D01*
X139360000Y-111479285D01*
X139407619Y-111431666D01*
X139312380Y-110526904D02*
X139312380Y-111003095D01*
X139788571Y-111050714D01*
X139740952Y-111003095D01*
X139693333Y-110907857D01*
X139693333Y-110669761D01*
X139740952Y-110574523D01*
X139788571Y-110526904D01*
X139883809Y-110479285D01*
X140121904Y-110479285D01*
X140217142Y-110526904D01*
X140264761Y-110574523D01*
X140312380Y-110669761D01*
X140312380Y-110907857D01*
X140264761Y-111003095D01*
X140217142Y-111050714D01*
%TO.C,C6*%
X135058333Y-82787142D02*
X135010714Y-82834761D01*
X134867857Y-82882380D01*
X134772619Y-82882380D01*
X134629761Y-82834761D01*
X134534523Y-82739523D01*
X134486904Y-82644285D01*
X134439285Y-82453809D01*
X134439285Y-82310952D01*
X134486904Y-82120476D01*
X134534523Y-82025238D01*
X134629761Y-81930000D01*
X134772619Y-81882380D01*
X134867857Y-81882380D01*
X135010714Y-81930000D01*
X135058333Y-81977619D01*
X135915476Y-81882380D02*
X135725000Y-81882380D01*
X135629761Y-81930000D01*
X135582142Y-81977619D01*
X135486904Y-82120476D01*
X135439285Y-82310952D01*
X135439285Y-82691904D01*
X135486904Y-82787142D01*
X135534523Y-82834761D01*
X135629761Y-82882380D01*
X135820238Y-82882380D01*
X135915476Y-82834761D01*
X135963095Y-82787142D01*
X136010714Y-82691904D01*
X136010714Y-82453809D01*
X135963095Y-82358571D01*
X135915476Y-82310952D01*
X135820238Y-82263333D01*
X135629761Y-82263333D01*
X135534523Y-82310952D01*
X135486904Y-82358571D01*
X135439285Y-82453809D01*
%TO.C,C7*%
X143532142Y-111431666D02*
X143579761Y-111479285D01*
X143627380Y-111622142D01*
X143627380Y-111717380D01*
X143579761Y-111860238D01*
X143484523Y-111955476D01*
X143389285Y-112003095D01*
X143198809Y-112050714D01*
X143055952Y-112050714D01*
X142865476Y-112003095D01*
X142770238Y-111955476D01*
X142675000Y-111860238D01*
X142627380Y-111717380D01*
X142627380Y-111622142D01*
X142675000Y-111479285D01*
X142722619Y-111431666D01*
X142627380Y-111098333D02*
X142627380Y-110431666D01*
X143627380Y-110860238D01*
%TO.C,C8*%
X135058333Y-78787142D02*
X135010714Y-78834761D01*
X134867857Y-78882380D01*
X134772619Y-78882380D01*
X134629761Y-78834761D01*
X134534523Y-78739523D01*
X134486904Y-78644285D01*
X134439285Y-78453809D01*
X134439285Y-78310952D01*
X134486904Y-78120476D01*
X134534523Y-78025238D01*
X134629761Y-77930000D01*
X134772619Y-77882380D01*
X134867857Y-77882380D01*
X135010714Y-77930000D01*
X135058333Y-77977619D01*
X135629761Y-78310952D02*
X135534523Y-78263333D01*
X135486904Y-78215714D01*
X135439285Y-78120476D01*
X135439285Y-78072857D01*
X135486904Y-77977619D01*
X135534523Y-77930000D01*
X135629761Y-77882380D01*
X135820238Y-77882380D01*
X135915476Y-77930000D01*
X135963095Y-77977619D01*
X136010714Y-78072857D01*
X136010714Y-78120476D01*
X135963095Y-78215714D01*
X135915476Y-78263333D01*
X135820238Y-78310952D01*
X135629761Y-78310952D01*
X135534523Y-78358571D01*
X135486904Y-78406190D01*
X135439285Y-78501428D01*
X135439285Y-78691904D01*
X135486904Y-78787142D01*
X135534523Y-78834761D01*
X135629761Y-78882380D01*
X135820238Y-78882380D01*
X135915476Y-78834761D01*
X135963095Y-78787142D01*
X136010714Y-78691904D01*
X136010714Y-78501428D01*
X135963095Y-78406190D01*
X135915476Y-78358571D01*
X135820238Y-78310952D01*
%TO.C,C9*%
X146567142Y-111431666D02*
X146614761Y-111479285D01*
X146662380Y-111622142D01*
X146662380Y-111717380D01*
X146614761Y-111860238D01*
X146519523Y-111955476D01*
X146424285Y-112003095D01*
X146233809Y-112050714D01*
X146090952Y-112050714D01*
X145900476Y-112003095D01*
X145805238Y-111955476D01*
X145710000Y-111860238D01*
X145662380Y-111717380D01*
X145662380Y-111622142D01*
X145710000Y-111479285D01*
X145757619Y-111431666D01*
X146662380Y-110955476D02*
X146662380Y-110765000D01*
X146614761Y-110669761D01*
X146567142Y-110622142D01*
X146424285Y-110526904D01*
X146233809Y-110479285D01*
X145852857Y-110479285D01*
X145757619Y-110526904D01*
X145710000Y-110574523D01*
X145662380Y-110669761D01*
X145662380Y-110860238D01*
X145710000Y-110955476D01*
X145757619Y-111003095D01*
X145852857Y-111050714D01*
X146090952Y-111050714D01*
X146186190Y-111003095D01*
X146233809Y-110955476D01*
X146281428Y-110860238D01*
X146281428Y-110669761D01*
X146233809Y-110574523D01*
X146186190Y-110526904D01*
X146090952Y-110479285D01*
%TO.C,C10*%
X144977142Y-90037857D02*
X145024761Y-90085476D01*
X145072380Y-90228333D01*
X145072380Y-90323571D01*
X145024761Y-90466428D01*
X144929523Y-90561666D01*
X144834285Y-90609285D01*
X144643809Y-90656904D01*
X144500952Y-90656904D01*
X144310476Y-90609285D01*
X144215238Y-90561666D01*
X144120000Y-90466428D01*
X144072380Y-90323571D01*
X144072380Y-90228333D01*
X144120000Y-90085476D01*
X144167619Y-90037857D01*
X145072380Y-89085476D02*
X145072380Y-89656904D01*
X145072380Y-89371190D02*
X144072380Y-89371190D01*
X144215238Y-89466428D01*
X144310476Y-89561666D01*
X144358095Y-89656904D01*
X144072380Y-88466428D02*
X144072380Y-88371190D01*
X144120000Y-88275952D01*
X144167619Y-88228333D01*
X144262857Y-88180714D01*
X144453333Y-88133095D01*
X144691428Y-88133095D01*
X144881904Y-88180714D01*
X144977142Y-88228333D01*
X145024761Y-88275952D01*
X145072380Y-88371190D01*
X145072380Y-88466428D01*
X145024761Y-88561666D01*
X144977142Y-88609285D01*
X144881904Y-88656904D01*
X144691428Y-88704523D01*
X144453333Y-88704523D01*
X144262857Y-88656904D01*
X144167619Y-88609285D01*
X144120000Y-88561666D01*
X144072380Y-88466428D01*
%TO.C,C11*%
X140438142Y-90050857D02*
X140485761Y-90098476D01*
X140533380Y-90241333D01*
X140533380Y-90336571D01*
X140485761Y-90479428D01*
X140390523Y-90574666D01*
X140295285Y-90622285D01*
X140104809Y-90669904D01*
X139961952Y-90669904D01*
X139771476Y-90622285D01*
X139676238Y-90574666D01*
X139581000Y-90479428D01*
X139533380Y-90336571D01*
X139533380Y-90241333D01*
X139581000Y-90098476D01*
X139628619Y-90050857D01*
X140533380Y-89098476D02*
X140533380Y-89669904D01*
X140533380Y-89384190D02*
X139533380Y-89384190D01*
X139676238Y-89479428D01*
X139771476Y-89574666D01*
X139819095Y-89669904D01*
X140533380Y-88146095D02*
X140533380Y-88717523D01*
X140533380Y-88431809D02*
X139533380Y-88431809D01*
X139676238Y-88527047D01*
X139771476Y-88622285D01*
X139819095Y-88717523D01*
%TO.C,C12*%
X137357142Y-90037857D02*
X137404761Y-90085476D01*
X137452380Y-90228333D01*
X137452380Y-90323571D01*
X137404761Y-90466428D01*
X137309523Y-90561666D01*
X137214285Y-90609285D01*
X137023809Y-90656904D01*
X136880952Y-90656904D01*
X136690476Y-90609285D01*
X136595238Y-90561666D01*
X136500000Y-90466428D01*
X136452380Y-90323571D01*
X136452380Y-90228333D01*
X136500000Y-90085476D01*
X136547619Y-90037857D01*
X137452380Y-89085476D02*
X137452380Y-89656904D01*
X137452380Y-89371190D02*
X136452380Y-89371190D01*
X136595238Y-89466428D01*
X136690476Y-89561666D01*
X136738095Y-89656904D01*
X136547619Y-88704523D02*
X136500000Y-88656904D01*
X136452380Y-88561666D01*
X136452380Y-88323571D01*
X136500000Y-88228333D01*
X136547619Y-88180714D01*
X136642857Y-88133095D01*
X136738095Y-88133095D01*
X136880952Y-88180714D01*
X137452380Y-88752142D01*
X137452380Y-88133095D01*
%TO.C,C13*%
X133547142Y-90037857D02*
X133594761Y-90085476D01*
X133642380Y-90228333D01*
X133642380Y-90323571D01*
X133594761Y-90466428D01*
X133499523Y-90561666D01*
X133404285Y-90609285D01*
X133213809Y-90656904D01*
X133070952Y-90656904D01*
X132880476Y-90609285D01*
X132785238Y-90561666D01*
X132690000Y-90466428D01*
X132642380Y-90323571D01*
X132642380Y-90228333D01*
X132690000Y-90085476D01*
X132737619Y-90037857D01*
X133642380Y-89085476D02*
X133642380Y-89656904D01*
X133642380Y-89371190D02*
X132642380Y-89371190D01*
X132785238Y-89466428D01*
X132880476Y-89561666D01*
X132928095Y-89656904D01*
X132642380Y-88752142D02*
X132642380Y-88133095D01*
X133023333Y-88466428D01*
X133023333Y-88323571D01*
X133070952Y-88228333D01*
X133118571Y-88180714D01*
X133213809Y-88133095D01*
X133451904Y-88133095D01*
X133547142Y-88180714D01*
X133594761Y-88228333D01*
X133642380Y-88323571D01*
X133642380Y-88609285D01*
X133594761Y-88704523D01*
X133547142Y-88752142D01*
%TO.C,U1*%
X147828095Y-132802380D02*
X147828095Y-133611904D01*
X147875714Y-133707142D01*
X147923333Y-133754761D01*
X148018571Y-133802380D01*
X148209047Y-133802380D01*
X148304285Y-133754761D01*
X148351904Y-133707142D01*
X148399523Y-133611904D01*
X148399523Y-132802380D01*
X149399523Y-133802380D02*
X148828095Y-133802380D01*
X149113809Y-133802380D02*
X149113809Y-132802380D01*
X149018571Y-132945238D01*
X148923333Y-133040476D01*
X148828095Y-133088095D01*
X148652666Y-126273333D02*
X147952666Y-126273333D01*
X148452666Y-126040000D01*
X147952666Y-125806666D01*
X148652666Y-125806666D01*
X148652666Y-125473333D02*
X147952666Y-125473333D01*
X148652666Y-125140000D02*
X147952666Y-125140000D01*
X148452666Y-124906666D01*
X147952666Y-124673333D01*
X148652666Y-124673333D01*
X147952666Y-124406666D02*
X148652666Y-123940000D01*
X147952666Y-123940000D02*
X148652666Y-124406666D01*
X148652666Y-123273333D02*
X148319333Y-123506666D01*
X148652666Y-123673333D02*
X147952666Y-123673333D01*
X147952666Y-123406666D01*
X147986000Y-123340000D01*
X148019333Y-123306666D01*
X148086000Y-123273333D01*
X148186000Y-123273333D01*
X148252666Y-123306666D01*
X148286000Y-123340000D01*
X148319333Y-123406666D01*
X148319333Y-123673333D01*
X147952666Y-123073333D02*
X147952666Y-122673333D01*
X148652666Y-122873333D02*
X147952666Y-122873333D01*
X148652666Y-122073333D02*
X148652666Y-122473333D01*
X148652666Y-122273333D02*
X147952666Y-122273333D01*
X148052666Y-122340000D01*
X148119333Y-122406666D01*
X148152666Y-122473333D01*
X147952666Y-121640000D02*
X147952666Y-121573333D01*
X147986000Y-121506666D01*
X148019333Y-121473333D01*
X148086000Y-121440000D01*
X148219333Y-121406666D01*
X148386000Y-121406666D01*
X148519333Y-121440000D01*
X148586000Y-121473333D01*
X148619333Y-121506666D01*
X148652666Y-121573333D01*
X148652666Y-121640000D01*
X148619333Y-121706666D01*
X148586000Y-121740000D01*
X148519333Y-121773333D01*
X148386000Y-121806666D01*
X148219333Y-121806666D01*
X148086000Y-121773333D01*
X148019333Y-121740000D01*
X147986000Y-121706666D01*
X147952666Y-121640000D01*
X147952666Y-120806666D02*
X147952666Y-120940000D01*
X147986000Y-121006666D01*
X148019333Y-121040000D01*
X148119333Y-121106666D01*
X148252666Y-121140000D01*
X148519333Y-121140000D01*
X148586000Y-121106666D01*
X148619333Y-121073333D01*
X148652666Y-121006666D01*
X148652666Y-120873333D01*
X148619333Y-120806666D01*
X148586000Y-120773333D01*
X148519333Y-120740000D01*
X148352666Y-120740000D01*
X148286000Y-120773333D01*
X148252666Y-120806666D01*
X148219333Y-120873333D01*
X148219333Y-121006666D01*
X148252666Y-121073333D01*
X148286000Y-121106666D01*
X148352666Y-121140000D01*
X148019333Y-120473333D02*
X147986000Y-120440000D01*
X147952666Y-120373333D01*
X147952666Y-120206666D01*
X147986000Y-120140000D01*
X148019333Y-120106666D01*
X148086000Y-120073333D01*
X148152666Y-120073333D01*
X148252666Y-120106666D01*
X148652666Y-120506666D01*
X148652666Y-120073333D01*
X147128666Y-124590000D02*
X146428666Y-124590000D01*
X146428666Y-124423333D01*
X146462000Y-124323333D01*
X146528666Y-124256666D01*
X146595333Y-124223333D01*
X146728666Y-124190000D01*
X146828666Y-124190000D01*
X146962000Y-124223333D01*
X147028666Y-124256666D01*
X147095333Y-124323333D01*
X147128666Y-124423333D01*
X147128666Y-124590000D01*
X146428666Y-123990000D02*
X147128666Y-123756666D01*
X146428666Y-123523333D01*
X147128666Y-122956666D02*
X147128666Y-123290000D01*
X146428666Y-123290000D01*
X146428666Y-122423333D02*
X146428666Y-122556666D01*
X146462000Y-122623333D01*
X146495333Y-122656666D01*
X146595333Y-122723333D01*
X146728666Y-122756666D01*
X146995333Y-122756666D01*
X147062000Y-122723333D01*
X147095333Y-122690000D01*
X147128666Y-122623333D01*
X147128666Y-122490000D01*
X147095333Y-122423333D01*
X147062000Y-122390000D01*
X146995333Y-122356666D01*
X146828666Y-122356666D01*
X146762000Y-122390000D01*
X146728666Y-122423333D01*
X146695333Y-122490000D01*
X146695333Y-122623333D01*
X146728666Y-122690000D01*
X146762000Y-122723333D01*
X146828666Y-122756666D01*
X146928666Y-122090000D02*
X146928666Y-121756666D01*
X147128666Y-122156666D02*
X146428666Y-121923333D01*
X147128666Y-121690000D01*
%TO.C,U2*%
X162702380Y-72491904D02*
X163511904Y-72491904D01*
X163607142Y-72444285D01*
X163654761Y-72396666D01*
X163702380Y-72301428D01*
X163702380Y-72110952D01*
X163654761Y-72015714D01*
X163607142Y-71968095D01*
X163511904Y-71920476D01*
X162702380Y-71920476D01*
X162797619Y-71491904D02*
X162750000Y-71444285D01*
X162702380Y-71349047D01*
X162702380Y-71110952D01*
X162750000Y-71015714D01*
X162797619Y-70968095D01*
X162892857Y-70920476D01*
X162988095Y-70920476D01*
X163130952Y-70968095D01*
X163702380Y-71539523D01*
X163702380Y-70920476D01*
%TD*%
M02*
