%FSLAX45Y45*%
G04 Gerber Fmt 4.5, Leading zero omitted, Abs format (unit mm)*
G04 Created by KiCad (PCBNEW (5.1.9)-1) date 2021-08-06 16:11:33*
%MOMM*%
%LPD*%
G01*
G04 APERTURE LIST*
%TA.AperFunction,Profile*%
%ADD10C,0.050000*%
%TD*%
%ADD11C,0.200000*%
%ADD12C,0.300000*%
G04 APERTURE END LIST*
D10*
X11465000Y-10000000D02*
G75*
G03*
X11465000Y-10000000I-165000J0D01*
G01*
X16865000Y-10000000D02*
G75*
G03*
X16865000Y-10000000I-165000J0D01*
G01*
X16865000Y-13700000D02*
G75*
G03*
X16865000Y-13700000I-165000J0D01*
G01*
X11465000Y-13700000D02*
G75*
G03*
X11465000Y-13700000I-165000J0D01*
G01*
X11465000Y-6300000D02*
G75*
G03*
X11465000Y-6300000I-165000J0D01*
G01*
X16865000Y-6300000D02*
G75*
G03*
X16865000Y-6300000I-165000J0D01*
G01*
X11300000Y-14000000D02*
X16700000Y-14000000D01*
X11000000Y-6300000D02*
X11000000Y-13700000D01*
X16700000Y-6000000D02*
X11300000Y-6000000D01*
X17000000Y-13700000D02*
G75*
G02*
X16700000Y-14000000I-300000J0D01*
G01*
X17000000Y-6300000D02*
X17000000Y-13700000D01*
X11300000Y-14000000D02*
G75*
G02*
X11000000Y-13700000I0J300000D01*
G01*
X16700000Y-6000000D02*
G75*
G02*
X17000000Y-6300000I0J-300000D01*
G01*
X11000000Y-6300000D02*
G75*
G02*
X11300000Y-6000000I300000J0D01*
G01*
D11*
D12*
X11283928Y-14468214D02*
X11283928Y-14168214D01*
X11355357Y-14168214D01*
X11398214Y-14182500D01*
X11426786Y-14211071D01*
X11441071Y-14239643D01*
X11455357Y-14296786D01*
X11455357Y-14339643D01*
X11441071Y-14396786D01*
X11426786Y-14425357D01*
X11398214Y-14453929D01*
X11355357Y-14468214D01*
X11283928Y-14468214D01*
X11583928Y-14468214D02*
X11583928Y-14268214D01*
X11583928Y-14325357D02*
X11598214Y-14296786D01*
X11612500Y-14282500D01*
X11641071Y-14268214D01*
X11669643Y-14268214D01*
X11769643Y-14468214D02*
X11769643Y-14268214D01*
X11769643Y-14168214D02*
X11755357Y-14182500D01*
X11769643Y-14196786D01*
X11783928Y-14182500D01*
X11769643Y-14168214D01*
X11769643Y-14196786D01*
X11955357Y-14468214D02*
X11926786Y-14453929D01*
X11912500Y-14425357D01*
X11912500Y-14168214D01*
X12112500Y-14468214D02*
X12083928Y-14453929D01*
X12069643Y-14425357D01*
X12069643Y-14168214D01*
X12455357Y-14468214D02*
X12455357Y-14168214D01*
X12555357Y-14382500D01*
X12655357Y-14168214D01*
X12655357Y-14468214D01*
X12926786Y-14468214D02*
X12926786Y-14311071D01*
X12912500Y-14282500D01*
X12883928Y-14268214D01*
X12826786Y-14268214D01*
X12798214Y-14282500D01*
X12926786Y-14453929D02*
X12898214Y-14468214D01*
X12826786Y-14468214D01*
X12798214Y-14453929D01*
X12783928Y-14425357D01*
X12783928Y-14396786D01*
X12798214Y-14368214D01*
X12826786Y-14353929D01*
X12898214Y-14353929D01*
X12926786Y-14339643D01*
X13069643Y-14268214D02*
X13069643Y-14568214D01*
X13069643Y-14282500D02*
X13098214Y-14268214D01*
X13155357Y-14268214D01*
X13183928Y-14282500D01*
X13198214Y-14296786D01*
X13212500Y-14325357D01*
X13212500Y-14411071D01*
X13198214Y-14439643D01*
X13183928Y-14453929D01*
X13155357Y-14468214D01*
X13098214Y-14468214D01*
X13069643Y-14453929D01*
X13341071Y-14439643D02*
X13355357Y-14453929D01*
X13341071Y-14468214D01*
X13326786Y-14453929D01*
X13341071Y-14439643D01*
X13341071Y-14468214D01*
X13341071Y-14282500D02*
X13355357Y-14296786D01*
X13341071Y-14311071D01*
X13326786Y-14296786D01*
X13341071Y-14282500D01*
X13341071Y-14311071D01*
M02*
