%FSLAX45Y45*%
G04 Gerber Fmt 4.5, Leading zero omitted, Abs format (unit mm)*
G04 Created by KiCad (PCBNEW (5.1.9)-1) date 2021-08-06 16:11:33*
%MOMM*%
%LPD*%
G01*
G04 APERTURE LIST*
%TA.AperFunction,Profile*%
%ADD10C,0.050000*%
%TD*%
%ADD11C,0.200000*%
%ADD12C,0.300000*%
G04 APERTURE END LIST*
D10*
X11465000Y-10000000D02*
G75*
G03*
X11465000Y-10000000I-165000J0D01*
G01*
X16865000Y-10000000D02*
G75*
G03*
X16865000Y-10000000I-165000J0D01*
G01*
X16865000Y-13700000D02*
G75*
G03*
X16865000Y-13700000I-165000J0D01*
G01*
X11465000Y-13700000D02*
G75*
G03*
X11465000Y-13700000I-165000J0D01*
G01*
X11465000Y-6300000D02*
G75*
G03*
X11465000Y-6300000I-165000J0D01*
G01*
X16865000Y-6300000D02*
G75*
G03*
X16865000Y-6300000I-165000J0D01*
G01*
X11300000Y-14000000D02*
X16700000Y-14000000D01*
X11000000Y-6300000D02*
X11000000Y-13700000D01*
X16700000Y-6000000D02*
X11300000Y-6000000D01*
X17000000Y-13700000D02*
G75*
G02*
X16700000Y-14000000I-300000J0D01*
G01*
X17000000Y-6300000D02*
X17000000Y-13700000D01*
X11300000Y-14000000D02*
G75*
G02*
X11000000Y-13700000I0J300000D01*
G01*
X16700000Y-6000000D02*
G75*
G02*
X17000000Y-6300000I0J-300000D01*
G01*
X11000000Y-6300000D02*
G75*
G02*
X11300000Y-6000000I300000J0D01*
G01*
D11*
X11280000Y-6680000D02*
X11320000Y-6720000D01*
X11320000Y-6680000D02*
X11280000Y-6720000D01*
X11280000Y-7180000D02*
X11320000Y-7220000D01*
X11320000Y-7180000D02*
X11280000Y-7220000D01*
X11280000Y-7680000D02*
X11320000Y-7720000D01*
X11320000Y-7680000D02*
X11280000Y-7720000D01*
X11280000Y-8180000D02*
X11320000Y-8220000D01*
X11320000Y-8180000D02*
X11280000Y-8220000D01*
X11280000Y-8680000D02*
X11320000Y-8720000D01*
X11320000Y-8680000D02*
X11280000Y-8720000D01*
X11280000Y-9180000D02*
X11320000Y-9220000D01*
X11320000Y-9180000D02*
X11280000Y-9220000D01*
X11280000Y-10680000D02*
X11320000Y-10720000D01*
X11320000Y-10680000D02*
X11280000Y-10720000D01*
X11280000Y-11180000D02*
X11320000Y-11220000D01*
X11320000Y-11180000D02*
X11280000Y-11220000D01*
X11280000Y-11680000D02*
X11320000Y-11720000D01*
X11320000Y-11680000D02*
X11280000Y-11720000D01*
X11280000Y-12180000D02*
X11320000Y-12220000D01*
X11320000Y-12180000D02*
X11280000Y-12220000D01*
X11280000Y-12680000D02*
X11320000Y-12720000D01*
X11320000Y-12680000D02*
X11280000Y-12720000D01*
X11280000Y-13180000D02*
X11320000Y-13220000D01*
X11320000Y-13180000D02*
X11280000Y-13220000D01*
X11780000Y-6180000D02*
X11820000Y-6220000D01*
X11820000Y-6180000D02*
X11780000Y-6220000D01*
X11780000Y-6680000D02*
X11820000Y-6720000D01*
X11820000Y-6680000D02*
X11780000Y-6720000D01*
X11780000Y-7180000D02*
X11820000Y-7220000D01*
X11820000Y-7180000D02*
X11780000Y-7220000D01*
X11780000Y-7680000D02*
X11820000Y-7720000D01*
X11820000Y-7680000D02*
X11780000Y-7720000D01*
X11780000Y-8180000D02*
X11820000Y-8220000D01*
X11820000Y-8180000D02*
X11780000Y-8220000D01*
X11780000Y-8680000D02*
X11820000Y-8720000D01*
X11820000Y-8680000D02*
X11780000Y-8720000D01*
X11780000Y-9180000D02*
X11820000Y-9220000D01*
X11820000Y-9180000D02*
X11780000Y-9220000D01*
X11780000Y-9680000D02*
X11820000Y-9720000D01*
X11820000Y-9680000D02*
X11780000Y-9720000D01*
X11780000Y-10180000D02*
X11820000Y-10220000D01*
X11820000Y-10180000D02*
X11780000Y-10220000D01*
X11780000Y-10680000D02*
X11820000Y-10720000D01*
X11820000Y-10680000D02*
X11780000Y-10720000D01*
X11780000Y-11180000D02*
X11820000Y-11220000D01*
X11820000Y-11180000D02*
X11780000Y-11220000D01*
X11780000Y-12180000D02*
X11820000Y-12220000D01*
X11820000Y-12180000D02*
X11780000Y-12220000D01*
X11780000Y-12680000D02*
X11820000Y-12720000D01*
X11820000Y-12680000D02*
X11780000Y-12720000D01*
X11780000Y-13180000D02*
X11820000Y-13220000D01*
X11820000Y-13180000D02*
X11780000Y-13220000D01*
X12280000Y-6180000D02*
X12320000Y-6220000D01*
X12320000Y-6180000D02*
X12280000Y-6220000D01*
X12280000Y-6680000D02*
X12320000Y-6720000D01*
X12320000Y-6680000D02*
X12280000Y-6720000D01*
X12280000Y-7180000D02*
X12320000Y-7220000D01*
X12320000Y-7180000D02*
X12280000Y-7220000D01*
X12280000Y-7680000D02*
X12320000Y-7720000D01*
X12320000Y-7680000D02*
X12280000Y-7720000D01*
X12280000Y-11680000D02*
X12320000Y-11720000D01*
X12320000Y-11680000D02*
X12280000Y-11720000D01*
X12280000Y-12680000D02*
X12320000Y-12720000D01*
X12320000Y-12680000D02*
X12280000Y-12720000D01*
X12280000Y-13180000D02*
X12320000Y-13220000D01*
X12320000Y-13180000D02*
X12280000Y-13220000D01*
X12780000Y-6180000D02*
X12820000Y-6220000D01*
X12820000Y-6180000D02*
X12780000Y-6220000D01*
X12780000Y-6680000D02*
X12820000Y-6720000D01*
X12820000Y-6680000D02*
X12780000Y-6720000D01*
X12780000Y-7180000D02*
X12820000Y-7220000D01*
X12820000Y-7180000D02*
X12780000Y-7220000D01*
X12780000Y-7680000D02*
X12820000Y-7720000D01*
X12820000Y-7680000D02*
X12780000Y-7720000D01*
X12780000Y-8180000D02*
X12820000Y-8220000D01*
X12820000Y-8180000D02*
X12780000Y-8220000D01*
X12780000Y-8680000D02*
X12820000Y-8720000D01*
X12820000Y-8680000D02*
X12780000Y-8720000D01*
X12780000Y-12180000D02*
X12820000Y-12220000D01*
X12820000Y-12180000D02*
X12780000Y-12220000D01*
X12780000Y-12680000D02*
X12820000Y-12720000D01*
X12820000Y-12680000D02*
X12780000Y-12720000D01*
X12780000Y-13180000D02*
X12820000Y-13220000D01*
X12820000Y-13180000D02*
X12780000Y-13220000D01*
X12780000Y-13380000D02*
X12820000Y-13420000D01*
X12820000Y-13380000D02*
X12780000Y-13420000D01*
X12934000Y-9124000D02*
X12974000Y-9164000D01*
X12974000Y-9124000D02*
X12934000Y-9164000D01*
X12934000Y-11422043D02*
X12974000Y-11462043D01*
X12974000Y-11422043D02*
X12934000Y-11462043D01*
X12980000Y-9280000D02*
X13020000Y-9320000D01*
X13020000Y-9280000D02*
X12980000Y-9320000D01*
X12980000Y-9480000D02*
X13020000Y-9520000D01*
X13020000Y-9480000D02*
X12980000Y-9520000D01*
X12980000Y-9680000D02*
X13020000Y-9720000D01*
X13020000Y-9680000D02*
X12980000Y-9720000D01*
X12980000Y-10280000D02*
X13020000Y-10320000D01*
X13020000Y-10280000D02*
X12980000Y-10320000D01*
X12980000Y-10480000D02*
X13020000Y-10520000D01*
X13020000Y-10480000D02*
X12980000Y-10520000D01*
X13180000Y-9280000D02*
X13220000Y-9320000D01*
X13220000Y-9280000D02*
X13180000Y-9320000D01*
X13180000Y-9680000D02*
X13220000Y-9720000D01*
X13220000Y-9680000D02*
X13180000Y-9720000D01*
X13180000Y-9880000D02*
X13220000Y-9920000D01*
X13220000Y-9880000D02*
X13180000Y-9920000D01*
X13180000Y-10080000D02*
X13220000Y-10120000D01*
X13220000Y-10080000D02*
X13180000Y-10120000D01*
X13180000Y-10280000D02*
X13220000Y-10320000D01*
X13220000Y-10280000D02*
X13180000Y-10320000D01*
X13188000Y-10902000D02*
X13228000Y-10942000D01*
X13228000Y-10902000D02*
X13188000Y-10942000D01*
X13280000Y-6180000D02*
X13320000Y-6220000D01*
X13320000Y-6180000D02*
X13280000Y-6220000D01*
X13280000Y-13380000D02*
X13320000Y-13420000D01*
X13320000Y-13380000D02*
X13280000Y-13420000D01*
X13405000Y-10812000D02*
X13445000Y-10852000D01*
X13445000Y-10812000D02*
X13405000Y-10852000D01*
X13442000Y-9759000D02*
X13482000Y-9799000D01*
X13482000Y-9759000D02*
X13442000Y-9799000D01*
X13480000Y-9980000D02*
X13520000Y-10020000D01*
X13520000Y-9980000D02*
X13480000Y-10020000D01*
X13505000Y-10204000D02*
X13545000Y-10244000D01*
X13545000Y-10204000D02*
X13505000Y-10244000D01*
X13680000Y-9980000D02*
X13720000Y-10020000D01*
X13720000Y-9980000D02*
X13680000Y-10020000D01*
X13696000Y-10267000D02*
X13736000Y-10307000D01*
X13736000Y-10267000D02*
X13696000Y-10307000D01*
X13780000Y-6180000D02*
X13820000Y-6220000D01*
X13820000Y-6180000D02*
X13780000Y-6220000D01*
X13780000Y-6680000D02*
X13820000Y-6720000D01*
X13820000Y-6680000D02*
X13780000Y-6720000D01*
X13780000Y-7380000D02*
X13820000Y-7420000D01*
X13820000Y-7380000D02*
X13780000Y-7420000D01*
X13780000Y-8180000D02*
X13820000Y-8220000D01*
X13820000Y-8180000D02*
X13780000Y-8220000D01*
X13780000Y-13380000D02*
X13820000Y-13420000D01*
X13820000Y-13380000D02*
X13780000Y-13420000D01*
X13880000Y-9880000D02*
X13920000Y-9920000D01*
X13920000Y-9880000D02*
X13880000Y-9920000D01*
X13950000Y-10013000D02*
X13990000Y-10053000D01*
X13990000Y-10013000D02*
X13950000Y-10053000D01*
X14204000Y-10013000D02*
X14244000Y-10053000D01*
X14244000Y-10013000D02*
X14204000Y-10053000D01*
X14205000Y-9885000D02*
X14245000Y-9925000D01*
X14245000Y-9885000D02*
X14205000Y-9925000D01*
X14280000Y-6180000D02*
X14320000Y-6220000D01*
X14320000Y-6180000D02*
X14280000Y-6220000D01*
X14280000Y-6680000D02*
X14320000Y-6720000D01*
X14320000Y-6680000D02*
X14280000Y-6720000D01*
X14280000Y-13380000D02*
X14320000Y-13420000D01*
X14320000Y-13380000D02*
X14280000Y-13420000D01*
X14305000Y-9860000D02*
X14345000Y-9900000D01*
X14345000Y-9860000D02*
X14305000Y-9900000D01*
X14305600Y-11346500D02*
X14345600Y-11386500D01*
X14345600Y-11346500D02*
X14305600Y-11386500D01*
X14496100Y-10114600D02*
X14536100Y-10154600D01*
X14536100Y-10114600D02*
X14496100Y-10154600D01*
X14580000Y-10280000D02*
X14620000Y-10320000D01*
X14620000Y-10280000D02*
X14580000Y-10320000D01*
X14585000Y-9759000D02*
X14625000Y-9799000D01*
X14625000Y-9759000D02*
X14585000Y-9799000D01*
X14623100Y-9974900D02*
X14663100Y-10014900D01*
X14663100Y-9974900D02*
X14623100Y-10014900D01*
X14680000Y-7380000D02*
X14720000Y-7420000D01*
X14720000Y-7380000D02*
X14680000Y-7420000D01*
X14680000Y-8180000D02*
X14720000Y-8220000D01*
X14720000Y-8180000D02*
X14680000Y-8220000D01*
X14780000Y-9980000D02*
X14820000Y-10020000D01*
X14820000Y-9980000D02*
X14780000Y-10020000D01*
X14780000Y-10280000D02*
X14820000Y-10320000D01*
X14820000Y-10280000D02*
X14780000Y-10320000D01*
X14880000Y-10680000D02*
X14920000Y-10720000D01*
X14920000Y-10680000D02*
X14880000Y-10720000D01*
X14880000Y-10880000D02*
X14920000Y-10920000D01*
X14920000Y-10880000D02*
X14880000Y-10920000D01*
X14880000Y-11080000D02*
X14920000Y-11120000D01*
X14920000Y-11080000D02*
X14880000Y-11120000D01*
X14880000Y-11280000D02*
X14920000Y-11320000D01*
X14920000Y-11280000D02*
X14880000Y-11320000D01*
X15280000Y-6180000D02*
X15320000Y-6220000D01*
X15320000Y-6180000D02*
X15280000Y-6220000D01*
X15280000Y-7180000D02*
X15320000Y-7220000D01*
X15320000Y-7180000D02*
X15280000Y-7220000D01*
X15280000Y-7380000D02*
X15320000Y-7420000D01*
X15320000Y-7380000D02*
X15280000Y-7420000D01*
X15280000Y-7580000D02*
X15320000Y-7620000D01*
X15320000Y-7580000D02*
X15280000Y-7620000D01*
X15280000Y-7780000D02*
X15320000Y-7820000D01*
X15320000Y-7780000D02*
X15280000Y-7820000D01*
X15280000Y-7980000D02*
X15320000Y-8020000D01*
X15320000Y-7980000D02*
X15280000Y-8020000D01*
X15280000Y-8480000D02*
X15320000Y-8520000D01*
X15320000Y-8480000D02*
X15280000Y-8520000D01*
X15280000Y-8980000D02*
X15320000Y-9020000D01*
X15320000Y-8980000D02*
X15280000Y-9020000D01*
X15280000Y-9480000D02*
X15320000Y-9520000D01*
X15320000Y-9480000D02*
X15280000Y-9520000D01*
X15280000Y-10480000D02*
X15320000Y-10520000D01*
X15320000Y-10480000D02*
X15280000Y-10520000D01*
X15280000Y-10980000D02*
X15320000Y-11020000D01*
X15320000Y-10980000D02*
X15280000Y-11020000D01*
X15280000Y-13380000D02*
X15320000Y-13420000D01*
X15320000Y-13380000D02*
X15280000Y-13420000D01*
X15480000Y-7180000D02*
X15520000Y-7220000D01*
X15520000Y-7180000D02*
X15480000Y-7220000D01*
X15480000Y-7380000D02*
X15520000Y-7420000D01*
X15520000Y-7380000D02*
X15480000Y-7420000D01*
X15480000Y-7580000D02*
X15520000Y-7620000D01*
X15520000Y-7580000D02*
X15480000Y-7620000D01*
X15480000Y-7780000D02*
X15520000Y-7820000D01*
X15520000Y-7780000D02*
X15480000Y-7820000D01*
X15480000Y-7980000D02*
X15520000Y-8020000D01*
X15520000Y-7980000D02*
X15480000Y-8020000D01*
X15680000Y-7180000D02*
X15720000Y-7220000D01*
X15720000Y-7180000D02*
X15680000Y-7220000D01*
X15680000Y-7780000D02*
X15720000Y-7820000D01*
X15720000Y-7780000D02*
X15680000Y-7820000D01*
X15680000Y-7980000D02*
X15720000Y-8020000D01*
X15720000Y-7980000D02*
X15680000Y-8020000D01*
X15780000Y-6180000D02*
X15820000Y-6220000D01*
X15820000Y-6180000D02*
X15780000Y-6220000D01*
X15780000Y-8480000D02*
X15820000Y-8520000D01*
X15820000Y-8480000D02*
X15780000Y-8520000D01*
X15780000Y-8980000D02*
X15820000Y-9020000D01*
X15820000Y-8980000D02*
X15780000Y-9020000D01*
X15780000Y-9480000D02*
X15820000Y-9520000D01*
X15820000Y-9480000D02*
X15780000Y-9520000D01*
X15780000Y-9980000D02*
X15820000Y-10020000D01*
X15820000Y-9980000D02*
X15780000Y-10020000D01*
X15780000Y-10480000D02*
X15820000Y-10520000D01*
X15820000Y-10480000D02*
X15780000Y-10520000D01*
X15780000Y-10980000D02*
X15820000Y-11020000D01*
X15820000Y-10980000D02*
X15780000Y-11020000D01*
X15780000Y-13380000D02*
X15820000Y-13420000D01*
X15820000Y-13380000D02*
X15780000Y-13420000D01*
X15880000Y-7180000D02*
X15920000Y-7220000D01*
X15920000Y-7180000D02*
X15880000Y-7220000D01*
X15880000Y-7780000D02*
X15920000Y-7820000D01*
X15920000Y-7780000D02*
X15880000Y-7820000D01*
X15880000Y-7980000D02*
X15920000Y-8020000D01*
X15920000Y-7980000D02*
X15880000Y-8020000D01*
X16080000Y-7180000D02*
X16120000Y-7220000D01*
X16120000Y-7180000D02*
X16080000Y-7220000D01*
X16080000Y-7780000D02*
X16120000Y-7820000D01*
X16120000Y-7780000D02*
X16080000Y-7820000D01*
X16080000Y-7980000D02*
X16120000Y-8020000D01*
X16120000Y-7980000D02*
X16080000Y-8020000D01*
X16236000Y-8870000D02*
X16276000Y-8910000D01*
X16276000Y-8870000D02*
X16236000Y-8910000D01*
X16280000Y-6180000D02*
X16320000Y-6220000D01*
X16320000Y-6180000D02*
X16280000Y-6220000D01*
X16280000Y-6680000D02*
X16320000Y-6720000D01*
X16320000Y-6680000D02*
X16280000Y-6720000D01*
X16280000Y-7380000D02*
X16320000Y-7420000D01*
X16320000Y-7380000D02*
X16280000Y-7420000D01*
X16280000Y-7580000D02*
X16320000Y-7620000D01*
X16320000Y-7580000D02*
X16280000Y-7620000D01*
X16280000Y-7780000D02*
X16320000Y-7820000D01*
X16320000Y-7780000D02*
X16280000Y-7820000D01*
X16280000Y-7980000D02*
X16320000Y-8020000D01*
X16320000Y-7980000D02*
X16280000Y-8020000D01*
X16280000Y-10980000D02*
X16320000Y-11020000D01*
X16320000Y-10980000D02*
X16280000Y-11020000D01*
X16780000Y-6680000D02*
X16820000Y-6720000D01*
X16820000Y-6680000D02*
X16780000Y-6720000D01*
X16780000Y-7180000D02*
X16820000Y-7220000D01*
X16820000Y-7180000D02*
X16780000Y-7220000D01*
X13263000Y-11557000D02*
G75*
G03*
X13263000Y-11557000I-55000J0D01*
G01*
X13263000Y-11811000D02*
G75*
G03*
X13263000Y-11811000I-55000J0D01*
G01*
X13263000Y-12065000D02*
G75*
G03*
X13263000Y-12065000I-55000J0D01*
G01*
X13263000Y-12319000D02*
G75*
G03*
X13263000Y-12319000I-55000J0D01*
G01*
X13263000Y-12573000D02*
G75*
G03*
X13263000Y-12573000I-55000J0D01*
G01*
X13263000Y-12827000D02*
G75*
G03*
X13263000Y-12827000I-55000J0D01*
G01*
X13263000Y-13081000D02*
G75*
G03*
X13263000Y-13081000I-55000J0D01*
G01*
X13517000Y-11557000D02*
G75*
G03*
X13517000Y-11557000I-55000J0D01*
G01*
X13517000Y-13081000D02*
G75*
G03*
X13517000Y-13081000I-55000J0D01*
G01*
X13771000Y-11557000D02*
G75*
G03*
X13771000Y-11557000I-55000J0D01*
G01*
X13771000Y-13081000D02*
G75*
G03*
X13771000Y-13081000I-55000J0D01*
G01*
X14025000Y-11557000D02*
G75*
G03*
X14025000Y-11557000I-55000J0D01*
G01*
X14025000Y-13081000D02*
G75*
G03*
X14025000Y-13081000I-55000J0D01*
G01*
X14279000Y-11557000D02*
G75*
G03*
X14279000Y-11557000I-55000J0D01*
G01*
X14279000Y-13081000D02*
G75*
G03*
X14279000Y-13081000I-55000J0D01*
G01*
X14533000Y-11557000D02*
G75*
G03*
X14533000Y-11557000I-55000J0D01*
G01*
X14533000Y-13081000D02*
G75*
G03*
X14533000Y-13081000I-55000J0D01*
G01*
X14787000Y-11557000D02*
G75*
G03*
X14787000Y-11557000I-55000J0D01*
G01*
X14787000Y-13081000D02*
G75*
G03*
X14787000Y-13081000I-55000J0D01*
G01*
X15041000Y-11557000D02*
G75*
G03*
X15041000Y-11557000I-55000J0D01*
G01*
X15041000Y-13081000D02*
G75*
G03*
X15041000Y-13081000I-55000J0D01*
G01*
X15295000Y-11557000D02*
G75*
G03*
X15295000Y-11557000I-55000J0D01*
G01*
X15295000Y-13081000D02*
G75*
G03*
X15295000Y-13081000I-55000J0D01*
G01*
X15549000Y-11557000D02*
G75*
G03*
X15549000Y-11557000I-55000J0D01*
G01*
X15549000Y-13081000D02*
G75*
G03*
X15549000Y-13081000I-55000J0D01*
G01*
X15803000Y-11557000D02*
G75*
G03*
X15803000Y-11557000I-55000J0D01*
G01*
X15803000Y-13081000D02*
G75*
G03*
X15803000Y-13081000I-55000J0D01*
G01*
X16057000Y-11557000D02*
G75*
G03*
X16057000Y-11557000I-55000J0D01*
G01*
X16057000Y-13081000D02*
G75*
G03*
X16057000Y-13081000I-55000J0D01*
G01*
X16311000Y-11557000D02*
G75*
G03*
X16311000Y-11557000I-55000J0D01*
G01*
X16311000Y-13081000D02*
G75*
G03*
X16311000Y-13081000I-55000J0D01*
G01*
X16565000Y-11557000D02*
G75*
G03*
X16565000Y-11557000I-55000J0D01*
G01*
X16565000Y-13081000D02*
G75*
G03*
X16565000Y-13081000I-55000J0D01*
G01*
D12*
X11283928Y-14468214D02*
X11283928Y-14168214D01*
X11355357Y-14168214D01*
X11398214Y-14182500D01*
X11426786Y-14211071D01*
X11441071Y-14239643D01*
X11455357Y-14296786D01*
X11455357Y-14339643D01*
X11441071Y-14396786D01*
X11426786Y-14425357D01*
X11398214Y-14453929D01*
X11355357Y-14468214D01*
X11283928Y-14468214D01*
X11583928Y-14468214D02*
X11583928Y-14268214D01*
X11583928Y-14325357D02*
X11598214Y-14296786D01*
X11612500Y-14282500D01*
X11641071Y-14268214D01*
X11669643Y-14268214D01*
X11769643Y-14468214D02*
X11769643Y-14268214D01*
X11769643Y-14168214D02*
X11755357Y-14182500D01*
X11769643Y-14196786D01*
X11783928Y-14182500D01*
X11769643Y-14168214D01*
X11769643Y-14196786D01*
X11955357Y-14468214D02*
X11926786Y-14453929D01*
X11912500Y-14425357D01*
X11912500Y-14168214D01*
X12112500Y-14468214D02*
X12083928Y-14453929D01*
X12069643Y-14425357D01*
X12069643Y-14168214D01*
X12455357Y-14468214D02*
X12455357Y-14168214D01*
X12555357Y-14382500D01*
X12655357Y-14168214D01*
X12655357Y-14468214D01*
X12926786Y-14468214D02*
X12926786Y-14311071D01*
X12912500Y-14282500D01*
X12883928Y-14268214D01*
X12826786Y-14268214D01*
X12798214Y-14282500D01*
X12926786Y-14453929D02*
X12898214Y-14468214D01*
X12826786Y-14468214D01*
X12798214Y-14453929D01*
X12783928Y-14425357D01*
X12783928Y-14396786D01*
X12798214Y-14368214D01*
X12826786Y-14353929D01*
X12898214Y-14353929D01*
X12926786Y-14339643D01*
X13069643Y-14268214D02*
X13069643Y-14568214D01*
X13069643Y-14282500D02*
X13098214Y-14268214D01*
X13155357Y-14268214D01*
X13183928Y-14282500D01*
X13198214Y-14296786D01*
X13212500Y-14325357D01*
X13212500Y-14411071D01*
X13198214Y-14439643D01*
X13183928Y-14453929D01*
X13155357Y-14468214D01*
X13098214Y-14468214D01*
X13069643Y-14453929D01*
X13341071Y-14439643D02*
X13355357Y-14453929D01*
X13341071Y-14468214D01*
X13326786Y-14453929D01*
X13341071Y-14439643D01*
X13341071Y-14468214D01*
X13341071Y-14282500D02*
X13355357Y-14296786D01*
X13341071Y-14311071D01*
X13326786Y-14296786D01*
X13341071Y-14282500D01*
X13341071Y-14311071D01*
X10957500Y-14942500D02*
X10997500Y-14982500D01*
X10997500Y-14942500D02*
X10957500Y-14982500D01*
X11341071Y-14798214D02*
X11369643Y-14798214D01*
X11398214Y-14812500D01*
X11412500Y-14826786D01*
X11426786Y-14855357D01*
X11441071Y-14912500D01*
X11441071Y-14983929D01*
X11426786Y-15041071D01*
X11412500Y-15069643D01*
X11398214Y-15083929D01*
X11369643Y-15098214D01*
X11341071Y-15098214D01*
X11312500Y-15083929D01*
X11298214Y-15069643D01*
X11283928Y-15041071D01*
X11269643Y-14983929D01*
X11269643Y-14912500D01*
X11283928Y-14855357D01*
X11298214Y-14826786D01*
X11312500Y-14812500D01*
X11341071Y-14798214D01*
X11569643Y-15069643D02*
X11583928Y-15083929D01*
X11569643Y-15098214D01*
X11555357Y-15083929D01*
X11569643Y-15069643D01*
X11569643Y-15098214D01*
X11841071Y-14898214D02*
X11841071Y-15098214D01*
X11769643Y-14783929D02*
X11698214Y-14998214D01*
X11883928Y-14998214D01*
X12055357Y-14798214D02*
X12083928Y-14798214D01*
X12112500Y-14812500D01*
X12126786Y-14826786D01*
X12141071Y-14855357D01*
X12155357Y-14912500D01*
X12155357Y-14983929D01*
X12141071Y-15041071D01*
X12126786Y-15069643D01*
X12112500Y-15083929D01*
X12083928Y-15098214D01*
X12055357Y-15098214D01*
X12026786Y-15083929D01*
X12012500Y-15069643D01*
X11998214Y-15041071D01*
X11983928Y-14983929D01*
X11983928Y-14912500D01*
X11998214Y-14855357D01*
X12012500Y-14826786D01*
X12026786Y-14812500D01*
X12055357Y-14798214D01*
X12283928Y-15098214D02*
X12283928Y-14898214D01*
X12283928Y-14926786D02*
X12298214Y-14912500D01*
X12326786Y-14898214D01*
X12369643Y-14898214D01*
X12398214Y-14912500D01*
X12412500Y-14941071D01*
X12412500Y-15098214D01*
X12412500Y-14941071D02*
X12426786Y-14912500D01*
X12455357Y-14898214D01*
X12498214Y-14898214D01*
X12526786Y-14912500D01*
X12541071Y-14941071D01*
X12541071Y-15098214D01*
X12683928Y-15098214D02*
X12683928Y-14898214D01*
X12683928Y-14926786D02*
X12698214Y-14912500D01*
X12726786Y-14898214D01*
X12769643Y-14898214D01*
X12798214Y-14912500D01*
X12812500Y-14941071D01*
X12812500Y-15098214D01*
X12812500Y-14941071D02*
X12826786Y-14912500D01*
X12855357Y-14898214D01*
X12898214Y-14898214D01*
X12926786Y-14912500D01*
X12941071Y-14941071D01*
X12941071Y-15098214D01*
X13526786Y-14783929D02*
X13269643Y-15169643D01*
X13912500Y-14798214D02*
X13941071Y-14798214D01*
X13969643Y-14812500D01*
X13983928Y-14826786D01*
X13998214Y-14855357D01*
X14012500Y-14912500D01*
X14012500Y-14983929D01*
X13998214Y-15041071D01*
X13983928Y-15069643D01*
X13969643Y-15083929D01*
X13941071Y-15098214D01*
X13912500Y-15098214D01*
X13883928Y-15083929D01*
X13869643Y-15069643D01*
X13855357Y-15041071D01*
X13841071Y-14983929D01*
X13841071Y-14912500D01*
X13855357Y-14855357D01*
X13869643Y-14826786D01*
X13883928Y-14812500D01*
X13912500Y-14798214D01*
X14141071Y-15069643D02*
X14155357Y-15083929D01*
X14141071Y-15098214D01*
X14126786Y-15083929D01*
X14141071Y-15069643D01*
X14141071Y-15098214D01*
X14341071Y-14798214D02*
X14369643Y-14798214D01*
X14398214Y-14812500D01*
X14412500Y-14826786D01*
X14426786Y-14855357D01*
X14441071Y-14912500D01*
X14441071Y-14983929D01*
X14426786Y-15041071D01*
X14412500Y-15069643D01*
X14398214Y-15083929D01*
X14369643Y-15098214D01*
X14341071Y-15098214D01*
X14312500Y-15083929D01*
X14298214Y-15069643D01*
X14283928Y-15041071D01*
X14269643Y-14983929D01*
X14269643Y-14912500D01*
X14283928Y-14855357D01*
X14298214Y-14826786D01*
X14312500Y-14812500D01*
X14341071Y-14798214D01*
X14726786Y-15098214D02*
X14555357Y-15098214D01*
X14641071Y-15098214D02*
X14641071Y-14798214D01*
X14612500Y-14841071D01*
X14583928Y-14869643D01*
X14555357Y-14883929D01*
X14983928Y-14798214D02*
X14926786Y-14798214D01*
X14898214Y-14812500D01*
X14883928Y-14826786D01*
X14855357Y-14869643D01*
X14841071Y-14926786D01*
X14841071Y-15041071D01*
X14855357Y-15069643D01*
X14869643Y-15083929D01*
X14898214Y-15098214D01*
X14955357Y-15098214D01*
X14983928Y-15083929D01*
X14998214Y-15069643D01*
X15012500Y-15041071D01*
X15012500Y-14969643D01*
X14998214Y-14941071D01*
X14983928Y-14926786D01*
X14955357Y-14912500D01*
X14898214Y-14912500D01*
X14869643Y-14926786D01*
X14855357Y-14941071D01*
X14841071Y-14969643D01*
X15126786Y-14798214D02*
X15126786Y-14855357D01*
X15241071Y-14798214D02*
X15241071Y-14855357D01*
X15683928Y-15212500D02*
X15669643Y-15198214D01*
X15641071Y-15155357D01*
X15626786Y-15126786D01*
X15612500Y-15083929D01*
X15598214Y-15012500D01*
X15598214Y-14955357D01*
X15612500Y-14883929D01*
X15626786Y-14841071D01*
X15641071Y-14812500D01*
X15669643Y-14769643D01*
X15683928Y-14755357D01*
X15955357Y-15098214D02*
X15783928Y-15098214D01*
X15869643Y-15098214D02*
X15869643Y-14798214D01*
X15841071Y-14841071D01*
X15812500Y-14869643D01*
X15783928Y-14883929D01*
X16055357Y-14798214D02*
X16241071Y-14798214D01*
X16141071Y-14912500D01*
X16183928Y-14912500D01*
X16212500Y-14926786D01*
X16226786Y-14941071D01*
X16241071Y-14969643D01*
X16241071Y-15041071D01*
X16226786Y-15069643D01*
X16212500Y-15083929D01*
X16183928Y-15098214D01*
X16098214Y-15098214D01*
X16069643Y-15083929D01*
X16055357Y-15069643D01*
X16498214Y-14898214D02*
X16498214Y-15098214D01*
X16426786Y-14783929D02*
X16355357Y-14998214D01*
X16541071Y-14998214D01*
X16883928Y-15098214D02*
X16883928Y-14798214D01*
X17012500Y-15098214D02*
X17012500Y-14941071D01*
X16998214Y-14912500D01*
X16969643Y-14898214D01*
X16926786Y-14898214D01*
X16898214Y-14912500D01*
X16883928Y-14926786D01*
X17198214Y-15098214D02*
X17169643Y-15083929D01*
X17155357Y-15069643D01*
X17141071Y-15041071D01*
X17141071Y-14955357D01*
X17155357Y-14926786D01*
X17169643Y-14912500D01*
X17198214Y-14898214D01*
X17241071Y-14898214D01*
X17269643Y-14912500D01*
X17283928Y-14926786D01*
X17298214Y-14955357D01*
X17298214Y-15041071D01*
X17283928Y-15069643D01*
X17269643Y-15083929D01*
X17241071Y-15098214D01*
X17198214Y-15098214D01*
X17469643Y-15098214D02*
X17441071Y-15083929D01*
X17426786Y-15055357D01*
X17426786Y-14798214D01*
X17698214Y-15083929D02*
X17669643Y-15098214D01*
X17612500Y-15098214D01*
X17583928Y-15083929D01*
X17569643Y-15055357D01*
X17569643Y-14941071D01*
X17583928Y-14912500D01*
X17612500Y-14898214D01*
X17669643Y-14898214D01*
X17698214Y-14912500D01*
X17712500Y-14941071D01*
X17712500Y-14969643D01*
X17569643Y-14998214D01*
X17826786Y-15083929D02*
X17855357Y-15098214D01*
X17912500Y-15098214D01*
X17941071Y-15083929D01*
X17955357Y-15055357D01*
X17955357Y-15041071D01*
X17941071Y-15012500D01*
X17912500Y-14998214D01*
X17869643Y-14998214D01*
X17841071Y-14983929D01*
X17826786Y-14955357D01*
X17826786Y-14941071D01*
X17841071Y-14912500D01*
X17869643Y-14898214D01*
X17912500Y-14898214D01*
X17941071Y-14912500D01*
X18055357Y-15212500D02*
X18069643Y-15198214D01*
X18098214Y-15155357D01*
X18112500Y-15126786D01*
X18126786Y-15083929D01*
X18141071Y-15012500D01*
X18141071Y-14955357D01*
X18126786Y-14883929D01*
X18112500Y-14841071D01*
X18098214Y-14812500D01*
X18069643Y-14769643D01*
X18055357Y-14755357D01*
X10997500Y-15358500D02*
G75*
G03*
X10997500Y-15358500I-55000J0D01*
G01*
X11441071Y-15494214D02*
X11269643Y-15494214D01*
X11355357Y-15494214D02*
X11355357Y-15194214D01*
X11326786Y-15237071D01*
X11298214Y-15265643D01*
X11269643Y-15279929D01*
X11569643Y-15465643D02*
X11583928Y-15479929D01*
X11569643Y-15494214D01*
X11555357Y-15479929D01*
X11569643Y-15465643D01*
X11569643Y-15494214D01*
X11869643Y-15494214D02*
X11698214Y-15494214D01*
X11783928Y-15494214D02*
X11783928Y-15194214D01*
X11755357Y-15237071D01*
X11726786Y-15265643D01*
X11698214Y-15279929D01*
X12055357Y-15194214D02*
X12083928Y-15194214D01*
X12112500Y-15208500D01*
X12126786Y-15222786D01*
X12141071Y-15251357D01*
X12155357Y-15308500D01*
X12155357Y-15379929D01*
X12141071Y-15437071D01*
X12126786Y-15465643D01*
X12112500Y-15479929D01*
X12083928Y-15494214D01*
X12055357Y-15494214D01*
X12026786Y-15479929D01*
X12012500Y-15465643D01*
X11998214Y-15437071D01*
X11983928Y-15379929D01*
X11983928Y-15308500D01*
X11998214Y-15251357D01*
X12012500Y-15222786D01*
X12026786Y-15208500D01*
X12055357Y-15194214D01*
X12283928Y-15494214D02*
X12283928Y-15294214D01*
X12283928Y-15322786D02*
X12298214Y-15308500D01*
X12326786Y-15294214D01*
X12369643Y-15294214D01*
X12398214Y-15308500D01*
X12412500Y-15337071D01*
X12412500Y-15494214D01*
X12412500Y-15337071D02*
X12426786Y-15308500D01*
X12455357Y-15294214D01*
X12498214Y-15294214D01*
X12526786Y-15308500D01*
X12541071Y-15337071D01*
X12541071Y-15494214D01*
X12683928Y-15494214D02*
X12683928Y-15294214D01*
X12683928Y-15322786D02*
X12698214Y-15308500D01*
X12726786Y-15294214D01*
X12769643Y-15294214D01*
X12798214Y-15308500D01*
X12812500Y-15337071D01*
X12812500Y-15494214D01*
X12812500Y-15337071D02*
X12826786Y-15308500D01*
X12855357Y-15294214D01*
X12898214Y-15294214D01*
X12926786Y-15308500D01*
X12941071Y-15337071D01*
X12941071Y-15494214D01*
X13526786Y-15179929D02*
X13269643Y-15565643D01*
X13912500Y-15194214D02*
X13941071Y-15194214D01*
X13969643Y-15208500D01*
X13983928Y-15222786D01*
X13998214Y-15251357D01*
X14012500Y-15308500D01*
X14012500Y-15379929D01*
X13998214Y-15437071D01*
X13983928Y-15465643D01*
X13969643Y-15479929D01*
X13941071Y-15494214D01*
X13912500Y-15494214D01*
X13883928Y-15479929D01*
X13869643Y-15465643D01*
X13855357Y-15437071D01*
X13841071Y-15379929D01*
X13841071Y-15308500D01*
X13855357Y-15251357D01*
X13869643Y-15222786D01*
X13883928Y-15208500D01*
X13912500Y-15194214D01*
X14141071Y-15465643D02*
X14155357Y-15479929D01*
X14141071Y-15494214D01*
X14126786Y-15479929D01*
X14141071Y-15465643D01*
X14141071Y-15494214D01*
X14341071Y-15194214D02*
X14369643Y-15194214D01*
X14398214Y-15208500D01*
X14412500Y-15222786D01*
X14426786Y-15251357D01*
X14441071Y-15308500D01*
X14441071Y-15379929D01*
X14426786Y-15437071D01*
X14412500Y-15465643D01*
X14398214Y-15479929D01*
X14369643Y-15494214D01*
X14341071Y-15494214D01*
X14312500Y-15479929D01*
X14298214Y-15465643D01*
X14283928Y-15437071D01*
X14269643Y-15379929D01*
X14269643Y-15308500D01*
X14283928Y-15251357D01*
X14298214Y-15222786D01*
X14312500Y-15208500D01*
X14341071Y-15194214D01*
X14698214Y-15294214D02*
X14698214Y-15494214D01*
X14626786Y-15179929D02*
X14555357Y-15394214D01*
X14741071Y-15394214D01*
X14826786Y-15194214D02*
X15012500Y-15194214D01*
X14912500Y-15308500D01*
X14955357Y-15308500D01*
X14983928Y-15322786D01*
X14998214Y-15337071D01*
X15012500Y-15365643D01*
X15012500Y-15437071D01*
X14998214Y-15465643D01*
X14983928Y-15479929D01*
X14955357Y-15494214D01*
X14869643Y-15494214D01*
X14841071Y-15479929D01*
X14826786Y-15465643D01*
X15126786Y-15194214D02*
X15126786Y-15251357D01*
X15241071Y-15194214D02*
X15241071Y-15251357D01*
X15683928Y-15608500D02*
X15669643Y-15594214D01*
X15641071Y-15551357D01*
X15626786Y-15522786D01*
X15612500Y-15479929D01*
X15598214Y-15408500D01*
X15598214Y-15351357D01*
X15612500Y-15279929D01*
X15626786Y-15237071D01*
X15641071Y-15208500D01*
X15669643Y-15165643D01*
X15683928Y-15151357D01*
X15769643Y-15194214D02*
X15955357Y-15194214D01*
X15855357Y-15308500D01*
X15898214Y-15308500D01*
X15926786Y-15322786D01*
X15941071Y-15337071D01*
X15955357Y-15365643D01*
X15955357Y-15437071D01*
X15941071Y-15465643D01*
X15926786Y-15479929D01*
X15898214Y-15494214D01*
X15812500Y-15494214D01*
X15783928Y-15479929D01*
X15769643Y-15465643D01*
X16055357Y-15194214D02*
X16241071Y-15194214D01*
X16141071Y-15308500D01*
X16183928Y-15308500D01*
X16212500Y-15322786D01*
X16226786Y-15337071D01*
X16241071Y-15365643D01*
X16241071Y-15437071D01*
X16226786Y-15465643D01*
X16212500Y-15479929D01*
X16183928Y-15494214D01*
X16098214Y-15494214D01*
X16069643Y-15479929D01*
X16055357Y-15465643D01*
X16598214Y-15494214D02*
X16598214Y-15194214D01*
X16726786Y-15494214D02*
X16726786Y-15337071D01*
X16712500Y-15308500D01*
X16683928Y-15294214D01*
X16641071Y-15294214D01*
X16612500Y-15308500D01*
X16598214Y-15322786D01*
X16912500Y-15494214D02*
X16883928Y-15479929D01*
X16869643Y-15465643D01*
X16855357Y-15437071D01*
X16855357Y-15351357D01*
X16869643Y-15322786D01*
X16883928Y-15308500D01*
X16912500Y-15294214D01*
X16955357Y-15294214D01*
X16983928Y-15308500D01*
X16998214Y-15322786D01*
X17012500Y-15351357D01*
X17012500Y-15437071D01*
X16998214Y-15465643D01*
X16983928Y-15479929D01*
X16955357Y-15494214D01*
X16912500Y-15494214D01*
X17183928Y-15494214D02*
X17155357Y-15479929D01*
X17141071Y-15451357D01*
X17141071Y-15194214D01*
X17412500Y-15479929D02*
X17383928Y-15494214D01*
X17326786Y-15494214D01*
X17298214Y-15479929D01*
X17283928Y-15451357D01*
X17283928Y-15337071D01*
X17298214Y-15308500D01*
X17326786Y-15294214D01*
X17383928Y-15294214D01*
X17412500Y-15308500D01*
X17426786Y-15337071D01*
X17426786Y-15365643D01*
X17283928Y-15394214D01*
X17541071Y-15479929D02*
X17569643Y-15494214D01*
X17626786Y-15494214D01*
X17655357Y-15479929D01*
X17669643Y-15451357D01*
X17669643Y-15437071D01*
X17655357Y-15408500D01*
X17626786Y-15394214D01*
X17583928Y-15394214D01*
X17555357Y-15379929D01*
X17541071Y-15351357D01*
X17541071Y-15337071D01*
X17555357Y-15308500D01*
X17583928Y-15294214D01*
X17626786Y-15294214D01*
X17655357Y-15308500D01*
X17769643Y-15608500D02*
X17783928Y-15594214D01*
X17812500Y-15551357D01*
X17826786Y-15522786D01*
X17841071Y-15479929D01*
X17855357Y-15408500D01*
X17855357Y-15351357D01*
X17841071Y-15279929D01*
X17826786Y-15237071D01*
X17812500Y-15208500D01*
X17783928Y-15165643D01*
X17769643Y-15151357D01*
M02*
