%TF.GenerationSoftware,KiCad,Pcbnew,(5.1.9)-1*%
%TF.CreationDate,2021-08-06T16:10:44+09:00*%
%TF.ProjectId,IMU_USB_ver2,494d555f-5553-4425-9f76-6572322e6b69,rev?*%
%TF.SameCoordinates,Original*%
%TF.FileFunction,Paste,Top*%
%TF.FilePolarity,Positive*%
%FSLAX46Y46*%
G04 Gerber Fmt 4.6, Leading zero omitted, Abs format (unit mm)*
G04 Created by KiCad (PCBNEW (5.1.9)-1) date 2021-08-06 16:10:44*
%MOMM*%
%LPD*%
G01*
G04 APERTURE LIST*
%ADD10R,0.700000X2.200000*%
%ADD11R,3.800000X2.000000*%
%ADD12R,1.500000X2.000000*%
G04 APERTURE END LIST*
D10*
%TO.C,U3*%
X132239000Y-94991000D03*
X132239000Y-105791000D03*
X133239000Y-94991000D03*
X133239000Y-105791000D03*
X134239000Y-94991000D03*
X134239000Y-105791000D03*
X135239000Y-94991000D03*
X135239000Y-105791000D03*
X136239000Y-94991000D03*
X136239000Y-105791000D03*
X137239000Y-94991000D03*
X137239000Y-105791000D03*
X138239000Y-94991000D03*
X138239000Y-105791000D03*
X139239000Y-94991000D03*
X139239000Y-105791000D03*
X140239000Y-94991000D03*
X140239000Y-105791000D03*
X141239000Y-94991000D03*
X141239000Y-105791000D03*
X142239000Y-94991000D03*
X142239000Y-105791000D03*
X143239000Y-94991000D03*
X143239000Y-105791000D03*
X144239000Y-94991000D03*
X144239000Y-105791000D03*
X145239000Y-94991000D03*
X145239000Y-105791000D03*
X146239000Y-94991000D03*
X146239000Y-105791000D03*
X147239000Y-94991000D03*
X147239000Y-105791000D03*
%TD*%
%TO.C,L1*%
G36*
G01*
X137585000Y-72665000D02*
X137585000Y-72115000D01*
G75*
G02*
X137785000Y-71915000I200000J0D01*
G01*
X138185000Y-71915000D01*
G75*
G02*
X138385000Y-72115000I0J-200000D01*
G01*
X138385000Y-72665000D01*
G75*
G02*
X138185000Y-72865000I-200000J0D01*
G01*
X137785000Y-72865000D01*
G75*
G02*
X137585000Y-72665000I0J200000D01*
G01*
G37*
G36*
G01*
X135935000Y-72665000D02*
X135935000Y-72115000D01*
G75*
G02*
X136135000Y-71915000I200000J0D01*
G01*
X136535000Y-71915000D01*
G75*
G02*
X136735000Y-72115000I0J-200000D01*
G01*
X136735000Y-72665000D01*
G75*
G02*
X136535000Y-72865000I-200000J0D01*
G01*
X136135000Y-72865000D01*
G75*
G02*
X135935000Y-72665000I0J200000D01*
G01*
G37*
%TD*%
%TO.C,C1*%
G36*
G01*
X165985000Y-69665000D02*
X165485000Y-69665000D01*
G75*
G02*
X165260000Y-69440000I0J225000D01*
G01*
X165260000Y-68990000D01*
G75*
G02*
X165485000Y-68765000I225000J0D01*
G01*
X165985000Y-68765000D01*
G75*
G02*
X166210000Y-68990000I0J-225000D01*
G01*
X166210000Y-69440000D01*
G75*
G02*
X165985000Y-69665000I-225000J0D01*
G01*
G37*
G36*
G01*
X165985000Y-71215000D02*
X165485000Y-71215000D01*
G75*
G02*
X165260000Y-70990000I0J225000D01*
G01*
X165260000Y-70540000D01*
G75*
G02*
X165485000Y-70315000I225000J0D01*
G01*
X165985000Y-70315000D01*
G75*
G02*
X166210000Y-70540000I0J-225000D01*
G01*
X166210000Y-70990000D01*
G75*
G02*
X165985000Y-71215000I-225000J0D01*
G01*
G37*
%TD*%
%TO.C,C2*%
G36*
G01*
X149140000Y-71860000D02*
X148040000Y-71860000D01*
G75*
G02*
X147790000Y-71610000I0J250000D01*
G01*
X147790000Y-68610000D01*
G75*
G02*
X148040000Y-68360000I250000J0D01*
G01*
X149140000Y-68360000D01*
G75*
G02*
X149390000Y-68610000I0J-250000D01*
G01*
X149390000Y-71610000D01*
G75*
G02*
X149140000Y-71860000I-250000J0D01*
G01*
G37*
G36*
G01*
X149140000Y-66260000D02*
X148040000Y-66260000D01*
G75*
G02*
X147790000Y-66010000I0J250000D01*
G01*
X147790000Y-63010000D01*
G75*
G02*
X148040000Y-62760000I250000J0D01*
G01*
X149140000Y-62760000D01*
G75*
G02*
X149390000Y-63010000I0J-250000D01*
G01*
X149390000Y-66010000D01*
G75*
G02*
X149140000Y-66260000I-250000J0D01*
G01*
G37*
%TD*%
%TO.C,C4*%
G36*
G01*
X135640000Y-110040000D02*
X136140000Y-110040000D01*
G75*
G02*
X136365000Y-110265000I0J-225000D01*
G01*
X136365000Y-110715000D01*
G75*
G02*
X136140000Y-110940000I-225000J0D01*
G01*
X135640000Y-110940000D01*
G75*
G02*
X135415000Y-110715000I0J225000D01*
G01*
X135415000Y-110265000D01*
G75*
G02*
X135640000Y-110040000I225000J0D01*
G01*
G37*
G36*
G01*
X135640000Y-111590000D02*
X136140000Y-111590000D01*
G75*
G02*
X136365000Y-111815000I0J-225000D01*
G01*
X136365000Y-112265000D01*
G75*
G02*
X136140000Y-112490000I-225000J0D01*
G01*
X135640000Y-112490000D01*
G75*
G02*
X135415000Y-112265000I0J225000D01*
G01*
X135415000Y-111815000D01*
G75*
G02*
X135640000Y-111590000I225000J0D01*
G01*
G37*
%TD*%
%TO.C,C5*%
G36*
G01*
X138180000Y-111590000D02*
X138680000Y-111590000D01*
G75*
G02*
X138905000Y-111815000I0J-225000D01*
G01*
X138905000Y-112265000D01*
G75*
G02*
X138680000Y-112490000I-225000J0D01*
G01*
X138180000Y-112490000D01*
G75*
G02*
X137955000Y-112265000I0J225000D01*
G01*
X137955000Y-111815000D01*
G75*
G02*
X138180000Y-111590000I225000J0D01*
G01*
G37*
G36*
G01*
X138180000Y-110040000D02*
X138680000Y-110040000D01*
G75*
G02*
X138905000Y-110265000I0J-225000D01*
G01*
X138905000Y-110715000D01*
G75*
G02*
X138680000Y-110940000I-225000J0D01*
G01*
X138180000Y-110940000D01*
G75*
G02*
X137955000Y-110715000I0J225000D01*
G01*
X137955000Y-110265000D01*
G75*
G02*
X138180000Y-110040000I225000J0D01*
G01*
G37*
%TD*%
%TO.C,C6*%
G36*
G01*
X136450000Y-80750000D02*
X136450000Y-81250000D01*
G75*
G02*
X136225000Y-81475000I-225000J0D01*
G01*
X135775000Y-81475000D01*
G75*
G02*
X135550000Y-81250000I0J225000D01*
G01*
X135550000Y-80750000D01*
G75*
G02*
X135775000Y-80525000I225000J0D01*
G01*
X136225000Y-80525000D01*
G75*
G02*
X136450000Y-80750000I0J-225000D01*
G01*
G37*
G36*
G01*
X134900000Y-80750000D02*
X134900000Y-81250000D01*
G75*
G02*
X134675000Y-81475000I-225000J0D01*
G01*
X134225000Y-81475000D01*
G75*
G02*
X134000000Y-81250000I0J225000D01*
G01*
X134000000Y-80750000D01*
G75*
G02*
X134225000Y-80525000I225000J0D01*
G01*
X134675000Y-80525000D01*
G75*
G02*
X134900000Y-80750000I0J-225000D01*
G01*
G37*
%TD*%
%TO.C,C7*%
G36*
G01*
X141495000Y-110040000D02*
X141995000Y-110040000D01*
G75*
G02*
X142220000Y-110265000I0J-225000D01*
G01*
X142220000Y-110715000D01*
G75*
G02*
X141995000Y-110940000I-225000J0D01*
G01*
X141495000Y-110940000D01*
G75*
G02*
X141270000Y-110715000I0J225000D01*
G01*
X141270000Y-110265000D01*
G75*
G02*
X141495000Y-110040000I225000J0D01*
G01*
G37*
G36*
G01*
X141495000Y-111590000D02*
X141995000Y-111590000D01*
G75*
G02*
X142220000Y-111815000I0J-225000D01*
G01*
X142220000Y-112265000D01*
G75*
G02*
X141995000Y-112490000I-225000J0D01*
G01*
X141495000Y-112490000D01*
G75*
G02*
X141270000Y-112265000I0J225000D01*
G01*
X141270000Y-111815000D01*
G75*
G02*
X141495000Y-111590000I225000J0D01*
G01*
G37*
%TD*%
%TO.C,C8*%
G36*
G01*
X134900000Y-76750000D02*
X134900000Y-77250000D01*
G75*
G02*
X134675000Y-77475000I-225000J0D01*
G01*
X134225000Y-77475000D01*
G75*
G02*
X134000000Y-77250000I0J225000D01*
G01*
X134000000Y-76750000D01*
G75*
G02*
X134225000Y-76525000I225000J0D01*
G01*
X134675000Y-76525000D01*
G75*
G02*
X134900000Y-76750000I0J-225000D01*
G01*
G37*
G36*
G01*
X136450000Y-76750000D02*
X136450000Y-77250000D01*
G75*
G02*
X136225000Y-77475000I-225000J0D01*
G01*
X135775000Y-77475000D01*
G75*
G02*
X135550000Y-77250000I0J225000D01*
G01*
X135550000Y-76750000D01*
G75*
G02*
X135775000Y-76525000I225000J0D01*
G01*
X136225000Y-76525000D01*
G75*
G02*
X136450000Y-76750000I0J-225000D01*
G01*
G37*
%TD*%
%TO.C,C9*%
G36*
G01*
X144530000Y-111590000D02*
X145030000Y-111590000D01*
G75*
G02*
X145255000Y-111815000I0J-225000D01*
G01*
X145255000Y-112265000D01*
G75*
G02*
X145030000Y-112490000I-225000J0D01*
G01*
X144530000Y-112490000D01*
G75*
G02*
X144305000Y-112265000I0J225000D01*
G01*
X144305000Y-111815000D01*
G75*
G02*
X144530000Y-111590000I225000J0D01*
G01*
G37*
G36*
G01*
X144530000Y-110040000D02*
X145030000Y-110040000D01*
G75*
G02*
X145255000Y-110265000I0J-225000D01*
G01*
X145255000Y-110715000D01*
G75*
G02*
X145030000Y-110940000I-225000J0D01*
G01*
X144530000Y-110940000D01*
G75*
G02*
X144305000Y-110715000I0J225000D01*
G01*
X144305000Y-110265000D01*
G75*
G02*
X144530000Y-110040000I225000J0D01*
G01*
G37*
%TD*%
%TO.C,C10*%
G36*
G01*
X146300000Y-89070000D02*
X145800000Y-89070000D01*
G75*
G02*
X145575000Y-88845000I0J225000D01*
G01*
X145575000Y-88395000D01*
G75*
G02*
X145800000Y-88170000I225000J0D01*
G01*
X146300000Y-88170000D01*
G75*
G02*
X146525000Y-88395000I0J-225000D01*
G01*
X146525000Y-88845000D01*
G75*
G02*
X146300000Y-89070000I-225000J0D01*
G01*
G37*
G36*
G01*
X146300000Y-90620000D02*
X145800000Y-90620000D01*
G75*
G02*
X145575000Y-90395000I0J225000D01*
G01*
X145575000Y-89945000D01*
G75*
G02*
X145800000Y-89720000I225000J0D01*
G01*
X146300000Y-89720000D01*
G75*
G02*
X146525000Y-89945000I0J-225000D01*
G01*
X146525000Y-90395000D01*
G75*
G02*
X146300000Y-90620000I-225000J0D01*
G01*
G37*
%TD*%
%TO.C,C11*%
G36*
G01*
X141601000Y-90620000D02*
X141101000Y-90620000D01*
G75*
G02*
X140876000Y-90395000I0J225000D01*
G01*
X140876000Y-89945000D01*
G75*
G02*
X141101000Y-89720000I225000J0D01*
G01*
X141601000Y-89720000D01*
G75*
G02*
X141826000Y-89945000I0J-225000D01*
G01*
X141826000Y-90395000D01*
G75*
G02*
X141601000Y-90620000I-225000J0D01*
G01*
G37*
G36*
G01*
X141601000Y-89070000D02*
X141101000Y-89070000D01*
G75*
G02*
X140876000Y-88845000I0J225000D01*
G01*
X140876000Y-88395000D01*
G75*
G02*
X141101000Y-88170000I225000J0D01*
G01*
X141601000Y-88170000D01*
G75*
G02*
X141826000Y-88395000I0J-225000D01*
G01*
X141826000Y-88845000D01*
G75*
G02*
X141601000Y-89070000I-225000J0D01*
G01*
G37*
%TD*%
%TO.C,C12*%
G36*
G01*
X138680000Y-89070000D02*
X138180000Y-89070000D01*
G75*
G02*
X137955000Y-88845000I0J225000D01*
G01*
X137955000Y-88395000D01*
G75*
G02*
X138180000Y-88170000I225000J0D01*
G01*
X138680000Y-88170000D01*
G75*
G02*
X138905000Y-88395000I0J-225000D01*
G01*
X138905000Y-88845000D01*
G75*
G02*
X138680000Y-89070000I-225000J0D01*
G01*
G37*
G36*
G01*
X138680000Y-90620000D02*
X138180000Y-90620000D01*
G75*
G02*
X137955000Y-90395000I0J225000D01*
G01*
X137955000Y-89945000D01*
G75*
G02*
X138180000Y-89720000I225000J0D01*
G01*
X138680000Y-89720000D01*
G75*
G02*
X138905000Y-89945000I0J-225000D01*
G01*
X138905000Y-90395000D01*
G75*
G02*
X138680000Y-90620000I-225000J0D01*
G01*
G37*
%TD*%
%TO.C,C13*%
G36*
G01*
X134870000Y-90620000D02*
X134370000Y-90620000D01*
G75*
G02*
X134145000Y-90395000I0J225000D01*
G01*
X134145000Y-89945000D01*
G75*
G02*
X134370000Y-89720000I225000J0D01*
G01*
X134870000Y-89720000D01*
G75*
G02*
X135095000Y-89945000I0J-225000D01*
G01*
X135095000Y-90395000D01*
G75*
G02*
X134870000Y-90620000I-225000J0D01*
G01*
G37*
G36*
G01*
X134870000Y-89070000D02*
X134370000Y-89070000D01*
G75*
G02*
X134145000Y-88845000I0J225000D01*
G01*
X134145000Y-88395000D01*
G75*
G02*
X134370000Y-88170000I225000J0D01*
G01*
X134870000Y-88170000D01*
G75*
G02*
X135095000Y-88395000I0J-225000D01*
G01*
X135095000Y-88845000D01*
G75*
G02*
X134870000Y-89070000I-225000J0D01*
G01*
G37*
%TD*%
D11*
%TO.C,U2*%
X158750000Y-74880000D03*
D12*
X158750000Y-68580000D03*
X156450000Y-68580000D03*
X161050000Y-68580000D03*
%TD*%
M02*
