M48
; DRILL file {KiCad (5.1.9)-1} date 08/06/21 16:11:31
; FORMAT={-:-/ absolute / metric / decimal}
; #@! TF.CreationDate,2021-08-06T16:11:31+09:00
; #@! TF.GenerationSoftware,Kicad,Pcbnew,(5.1.9)-1
; #@! TF.FileFunction,Plated,1,2,PTH
FMAT,2
METRIC
T1C0.400
T2C1.100
%
G90
G05
T1
X113.0Y-67.0
X113.0Y-72.0
X113.0Y-77.0
X113.0Y-82.0
X113.0Y-87.0
X113.0Y-92.0
X113.0Y-107.0
X113.0Y-112.0
X113.0Y-117.0
X113.0Y-122.0
X113.0Y-127.0
X113.0Y-132.0
X118.0Y-62.0
X118.0Y-67.0
X118.0Y-72.0
X118.0Y-77.0
X118.0Y-82.0
X118.0Y-87.0
X118.0Y-92.0
X118.0Y-97.0
X118.0Y-102.0
X118.0Y-107.0
X118.0Y-112.0
X118.0Y-122.0
X118.0Y-127.0
X118.0Y-132.0
X123.0Y-62.0
X123.0Y-67.0
X123.0Y-72.0
X123.0Y-77.0
X123.0Y-117.0
X123.0Y-127.0
X123.0Y-132.0
X128.0Y-62.0
X128.0Y-67.0
X128.0Y-72.0
X128.0Y-77.0
X128.0Y-82.0
X128.0Y-87.0
X128.0Y-122.0
X128.0Y-127.0
X128.0Y-132.0
X128.0Y-134.0
X129.54Y-91.44
X129.54Y-114.42
X130.0Y-93.0
X130.0Y-95.0
X130.0Y-97.0
X130.0Y-103.0
X130.0Y-105.0
X132.0Y-93.0
X132.0Y-97.0
X132.0Y-99.0
X132.0Y-101.0
X132.0Y-103.0
X132.08Y-109.22
X133.0Y-62.0
X133.0Y-134.0
X134.25Y-108.32
X134.62Y-97.79
X135.0Y-100.0
X135.25Y-102.24
X137.0Y-100.0
X137.16Y-102.87
X138.0Y-62.0
X138.0Y-67.0
X138.0Y-74.0
X138.0Y-82.0
X138.0Y-134.0
X139.0Y-99.0
X139.7Y-100.33
X142.24Y-100.33
X142.25Y-99.05
X143.0Y-62.0
X143.0Y-67.0
X143.0Y-134.0
X143.25Y-98.8
X143.256Y-113.665
X145.161Y-101.346
X146.0Y-103.0
X146.05Y-97.79
X146.431Y-99.949
X147.0Y-74.0
X147.0Y-82.0
X148.0Y-100.0
X148.0Y-103.0
X149.0Y-107.0
X149.0Y-109.0
X149.0Y-111.0
X149.0Y-113.0
X153.0Y-62.0
X153.0Y-72.0
X153.0Y-74.0
X153.0Y-76.0
X153.0Y-78.0
X153.0Y-80.0
X153.0Y-85.0
X153.0Y-90.0
X153.0Y-95.0
X153.0Y-105.0
X153.0Y-110.0
X153.0Y-134.0
X155.0Y-72.0
X155.0Y-74.0
X155.0Y-76.0
X155.0Y-78.0
X155.0Y-80.0
X157.0Y-72.0
X157.0Y-78.0
X157.0Y-80.0
X158.0Y-62.0
X158.0Y-85.0
X158.0Y-90.0
X158.0Y-95.0
X158.0Y-100.0
X158.0Y-105.0
X158.0Y-110.0
X158.0Y-134.0
X159.0Y-72.0
X159.0Y-78.0
X159.0Y-80.0
X161.0Y-72.0
X161.0Y-78.0
X161.0Y-80.0
X162.56Y-88.9
X163.0Y-62.0
X163.0Y-67.0
X163.0Y-74.0
X163.0Y-76.0
X163.0Y-78.0
X163.0Y-80.0
X163.0Y-110.0
X168.0Y-67.0
X168.0Y-72.0
T2
X132.08Y-115.57
X132.08Y-118.11
X132.08Y-120.65
X132.08Y-123.19
X132.08Y-125.73
X132.08Y-128.27
X132.08Y-130.81
X134.62Y-115.57
X134.62Y-130.81
X137.16Y-115.57
X137.16Y-130.81
X139.7Y-115.57
X139.7Y-130.81
X142.24Y-115.57
X142.24Y-130.81
X144.78Y-115.57
X144.78Y-130.81
X147.32Y-115.57
X147.32Y-130.81
X149.86Y-115.57
X149.86Y-130.81
X152.4Y-115.57
X152.4Y-130.81
X154.94Y-115.57
X154.94Y-130.81
X157.48Y-115.57
X157.48Y-130.81
X160.02Y-115.57
X160.02Y-130.81
X162.56Y-115.57
X162.56Y-130.81
X165.1Y-115.57
X165.1Y-130.81
T0
M30
